<svg version="1.2" xmlns="http://www.w3.org/2000/svg" viewBox="0 0 1561 680" width="1561" height="680"><style>.a{fill:#085fac}.b{fill:#fff}</style><path class="a" d="m679.3 0v679.7h-679.3v-679.7z"/><path fill-rule="evenodd" class="b" d="m35.4 543.7v-91.3h80.3c16.4 0 43.6 2.7 43.6 23.2-0.5 5.4-2.8 10.4-6.5 14.4-3.7 3.9-8.6 6.5-13.9 7.4 12.2 4.1 20.4 12.3 20.4 21.8 0 9.5-25.9 24.5-43.6 24.5h-51.6l8.1-13.6c0.9-1.6 2.3-3 4-4 1.7-0.9 3.6-1.4 5.5-1.4h32.7c2.5 0 4.9-1 6.7-2.8 1.8-1.8 2.8-4.2 2.8-6.8 0-2.5-1-4.9-2.8-6.7-1.8-1.8-4.2-2.8-6.7-2.8h-50.4v38.1zm28.6-38.1l8.2-15c1.2-1.4 2.6-2.4 4.3-3.1 1.6-0.7 3.4-1.1 5.2-1h34c5.5 0 10.9-2.7 10.9-8.2 0-5.4-5.4-6.8-10.9-6.8h-51.7zm0 38.1h0.1l-0.1 0.1zm166.1-69.4l-39.5 69.5h-35.4l55.8-91.3h38.1l55.8 91.3h-34l-9.5-16.4h-51.7l8.1-15c1.2-1.3 2.7-2.4 4.3-3.1 1.7-0.7 3.5-1 5.2-1h21.8zm243.7 0l-40.8 69.5h-34.1l55.9-91.3h38.1l55.8 91.3h-34l-9.6-16.3h-53.1l9.6-15c1.1-1.4 2.6-2.6 4.2-3.3 1.7-0.7 3.5-1 5.3-0.8h21.8zm-114.4 50.4c8.2 0 12.3-4.1 12.3-10.9v-62.7h29.9v65.4c0 20.5-13.6 25.9-29.9 25.9h-50.4c-1.8 0.1-3.6-0.2-5.2-1-1.7-0.7-3.1-1.7-4.3-3.1l-8.2-13.6zm243.7 0c1.5 0.2 3.1 0.1 4.6-0.4 1.5-0.4 2.8-1.2 4-2.3 1.2-1 2.1-2.3 2.7-3.7 0.6-1.4 1-2.9 1-4.5v-62.7h29.9v65.4c0 20.5-13.6 25.9-29.9 25.9h-50.4c-1.8 0.1-3.6-0.2-5.2-1-1.7-0.7-3.2-1.7-4.3-3.1l-8.2-13.6z"/><path class="b" d="m403 235.8c10.7-2.2 20.3-8 27.2-16.5 7-8.4 10.8-19 10.9-29.9 0-47.7-50.4-53.1-81.7-53.1h-121.2v203h42.2v-159.4h126.7l-15 25.9c0 0-1.4 5.4-12.3 5.4h-46.3c-4.8 0.7-9.1 3.2-12.2 7-3 3.8-4.5 8.6-4.1 13.5v42.2c0 0 1.4-16.3 15-17.7h61.2l-12.2 25.9c-1.3 2-3.2 3.7-5.3 4.9-2.1 1.2-4.5 1.9-7 1.9h-36.7c-2.2 0.2-4.3 0.8-6.2 1.8-1.9 0.9-3.6 2.3-5 3.9-1.4 1.7-2.4 3.6-3.1 5.6-0.6 2.1-0.9 4.3-0.7 6.4v32.7h40.8c34.1 0 81.7-4.1 81.7-54.5 1.4-21.8-10.9-39.5-36.7-49z"/><path class="a" d="m1498.9 395.2l61.3-110.4h-42.2l-42.2 83.1-42.2-83.1h-42.2l61.2 110.4"/><path class="a" d="m901.2 284.8v109.8h-35.3v-109.8z"/><path class="a" d="m1000.6 284.8v61.3l-42.2-61.3h-42.2v110.4h35.4v-61.3h1.4l40.8 61.3h42.2v-110.4z"/><path class="a" d="m1403.6 395.2l-25.9-42.3v-4c2.8-0.8 5.3-2.2 7.4-4.1 2.1-1.9 3.8-4.2 4.9-6.8 3.8-5.1 5.7-11.4 5.4-17.8 0.3-4.1-0.2-8.2-1.3-12.2-1.9-4.2-4.7-7.9-8.2-10.9-2.7-3.8-6.5-6.7-10.9-8.2l-16.3-4.1h-68.1l8.2 23.2h44.9c1.8-0.1 3.6 0.3 5.2 1 1.7 0.7 3.1 1.7 4.3 3.1 1.7 1.9 2.7 4.3 2.8 6.8-0.1 3.3-1 6.6-2.8 9.5-2.7 2.2-6 3.6-9.5 4.1h-35.4l6.8 23.2h24.5l23.2 40.9h40.8z"/><path class="a" d="m1162.6 359.8c0-6.9-1.3-27.3-34-32.7h-8.2c-5.8-0.7-11.8-0.7-17.7 0h-1.3c-4.1 0-13.6-1.4-13.6-9.6 0-8.2 0-8.2 10.9-8.2h61.2v-23.1h-69.4c-12.3 0-38.1 0-40.9 25.9v4.1c0 5.4 2.8 20.4 24.5 27.2l24.6 4.1h13.6c0 0 9.5 0 10.9 5.4 1.3 5.5 8.1 13.7-9.6 17.8h-57.1v24.5h57.1c0 0 45 1.4 51.8-28.6-1-0.9-1.7-1.9-2.2-3.1-0.5-1.2-0.7-2.5-0.6-3.7z"/><path class="a" d="m747.4 284.8v110.4h35.4v-43.6h30c8.1 0 9.5-5.5 9.5-5.5l12.2-17.7h-51.7v-8.2c0.3-3.3 1.9-6.5 4.4-8.7 2.6-2.3 5.8-3.5 9.2-3.5h36.8c8.1 0 9.5-4.1 9.5-4.1l12.3-19.1z"/><path class="a" d="m1210.3 321.6v6.8h50.4l-10.9 17.7c-1 1.7-2.4 3.1-4.1 4-1.6 1-3.5 1.5-5.5 1.5h-29.9v12.2c0.9 2.6 2.5 4.7 4.8 6.2 2.2 1.5 4.8 2.2 7.4 2h53.1v23.2h-102.1v-110.4h102.1v23.2h-53.1c-1.7 0-3.4 0.3-5 1-1.6 0.7-3 1.7-4.1 3-1.2 1.3-2.1 2.8-2.6 4.5-0.5 1.6-0.7 3.4-0.5 5.1z"/></svg>