<svg version="1.2" xmlns="http://www.w3.org/2000/svg" viewBox="0 0 1554 285" width="1554" height="285">
	<title>hcltech-new-logo-svg</title>
	<defs>
		<clipPath clipPathUnits="userSpaceOnUse" id="cp1">
			<path d="m1553 0v284h-1553v-284z"/>
		</clipPath>
	</defs>
	<style>
		.s0 { fill: #0f5fdc } 
	</style>
	<g id="Clip-Path" clip-path="url(#cp1)">
		<g id="Layer">
			<path id="Layer" class="s0" d="m216.1 3.2v276.9h-59.8v-115.9h-96.9v115.9h-59.4v-276.9h59.4v109.9h96.9v-109.9z"/>
			<path id="Layer" class="s0" d="m248.4 141.6c0-93.3 60.4-141.6 129.3-141.6 64.9 0 112.4 39.6 119.4 99.3h-57.8c-3.7-28.9-29.2-48.3-61.6-48.3-41.6 0-73.7 31.3-73.7 90.6 0 59.3 32.1 90.2 73.7 90.2 33.2 0 58.6-19.4 63-47.9h55.3c-4.8 59.4-52.3 99.3-118.2 99.3-70 0-129.4-48.2-129.4-141.6z"/>
			<path id="Layer" class="s0" d="m794.5 54.9h-82v-51h223.4v51h-82v225.9h-59.5v-225.9z"/>
			<path id="Layer" fill-rule="evenodd" class="s0" d="m1105.7 213.2q0 0 0 0zm-95.1 70.8c-67.8 0-102.7-53-102.7-103.2 0-50.3 30.9-102.5 98.7-102.5 67.8 0 98.6 51.8 98.6 97.3 0 7.5-0.3 13.5-0.7 17.8h-143.4c3.9 28.1 21.7 45.5 49.5 45.5 22.2 0 36.8-8.7 41.2-25.7h53.8c-7.9 43.1-45.9 70.8-95 70.8zm-48.8-125.4h88.4c-1.6-22.2-17.1-40-43.6-40-25 0-40.1 12.3-44.8 40z"/>
			<path id="Layer" class="s0" d="m1131.3 181.1c0-58.1 41.3-102.8 103.1-102.8 52.3 0 93.8 31.6 97.4 77.9h-55.5c-3.1-17.8-20.2-30.9-40.4-30.9-29.7 0-47.1 23.4-47.1 55.8 0 32.4 17.8 55.4 47.9 55.4 20.3 0 36.5-12.3 40.5-30.1h56.2c-5.9 44.3-47.1 77.6-99 77.6-61.8 0-103-44.7-103-102.9z"/>
			<path id="Layer" class="s0" d="m1362.9 3.6h55v105.5c11.5-19.3 33.3-30.8 61-30.8 44.8 0 74.1 32.4 74.1 78.3v124.2h-55v-111.9c0-24.2-15.9-41.6-38.9-41.6-24.1 0-41.2 18.6-41.2 44.3v109.2h-55z"/>
			<path id="Layer" class="s0" d="m591.5 228.7v-225.5h-59.4v223.9c0 34.4 18.6 53 53 53h127v-51.4z"/>
		</g>
	</g>
</svg>