<svg version="1.2" xmlns="http://www.w3.org/2000/svg" viewBox="0 0 1501 1299" width="1501" height="1299">
	<title>ITC_Limited_Logo-svg</title>
	<style>
		.s0 { fill: #062f62 } 
	</style>
	<g id="#062f62ff">
		<path id="path6" class="s0" d="m238 882.7q252-441.1 504.1-882.2c-31.4 201.3-62.9 402.6-94.3 604-0.3 2.1-2.3 3.3-3.5 4.8-214.5 229.6-429.1 459.2-643.6 688.8 79-138.6 158.2-276.9 237.3-415.4zm520.8-882.3c247.4 432.6 494.5 865.3 741.9 1298-98.6-105.2-196.9-210.5-295.4-315.7q-175.6-187.8-351.2-375.5c-1.2-1.6-1-3.8-1.4-5.6-31.3-200.4-62.6-400.8-93.9-601.2zm-359.8 921.4c6.4-7 12.4-14.3 19-21 41.9-0.2 83.7-0.1 125.5-0.1-72.3 132.6-145.1 264.9-217.4 397.5-87.5 0-174.9 0-262.3 0 111.8-125.4 223.5-250.9 335.2-376.4zm186-21.1c73 0 146-0.1 219 0 6.4 44.1 13 88.2 19.4 132.3q-36.2 0-72.4 0 0 132.6 0 265.2c-76.5 0-153 0-229.5 0.1 11.1-38.1 22.7-76.1 34-114.1 15-50.1 30-100.3 45.1-150.4-24.7 0-49.4 0-74.1 0 19.5-44.4 39-88.8 58.5-133.1zm291.8 2c8-3.3 16.7-1.8 25.1-2 60.6 0 121.3 0 181.9-0.1 35.7 40 71.3 80.1 107 120-49.5 0.1-98.9 0-148.4 0.1-9.7 0.2-17.1 11.9-12.4 20.7 15 28.1 30.3 56.1 45.3 84.2 5.9 13 19.5 21.9 33.8 22.2q87.7 0 175.3 0c6.5 0.1 12.9-0.2 19.3 0.1 44.5 49.9 88.8 100.1 133.2 150.1q-221.5 0.1-443.1 0.1c-6.5-0.2-13.1 0.7-19.6-0.5-15.8-2.5-29.9-13.1-36.7-27.6-3.4-6.5-4.4-13.8-6.3-20.8-25.5-102.2-51.1-204.3-76.5-306.5-3.8-16.4 6.2-34.5 22.1-40z"/>
	</g>
</svg>