<svg version="1.2" xmlns="http://www.w3.org/2000/svg" viewBox="0 0 1595 794" width="1595" height="794">
	<title>Life_Insurance_Corporation_of_India_(logo)-svg</title>
	<style>
		.s0 { fill: #ffffff } 
		.s1 { fill: #024282 } 
		.s2 { fill: #f8c301 } 
	</style>
	<path id="Layer" fill-rule="evenodd" class="s0" d="m285.5 52.1c8.9-0.6 17.8-0.4 26.7-0.5q3.8-0.1 7.6 0 3.8 0.1 7.6 0.4 3.8 0.3 7.6 0.7 3.8 0.5 7.5 1.1 2.6 0.5 5.3 1 2.6 0.5 5.1 1.2 2.6 0.6 5.2 1.3 2.5 0.8 5.1 1.6 2.1 0.5 4.1 1.2 2.1 0.6 4.1 1.4 2 0.7 4 1.6 2 0.8 3.9 1.7 3.2 1.5 6.2 3 3.1 1.6 6.2 3.2 3 1.6 6 3.3 3 1.7 5.9 3.5 5.4 3.6 10.5 7.5 5.1 3.9 9.9 8.1 4.9 4.2 9.5 8.7 4.5 4.5 8.8 9.3c5.4 5.9 10.3 12.4 15.3 18.7 5.1 6.4 9.1 13.8 13 21q1.5 2.8 2.9 5.7 1.4 2.8 2.7 5.7 1.3 2.9 2.4 5.8 1.2 3 2.3 6 1.6 4 2.8 8.2 1.2 4.2 2.1 8.4 0.9 4.3 1.4 8.6 0.5 4.4 0.6 8.7 0 78 0 156v16.7q-0.3 5.3-1.1 10.6-0.8 5.3-2.1 10.5-1.2 5.1-2.9 10.2-1.6 5-3.7 10c-1.3 2.5-1.9 5.3-3.3 8q-1.8 3.9-3.8 7.7-2 3.8-4.2 7.5-2.2 3.7-4.5 7.4-2.3 3.6-4.7 7.1-1.6 2.3-3.3 4.6-1.6 2.2-3.4 4.4-1.7 2.1-3.5 4.2-1.8 2.1-3.7 4.2-1.9 2.3-3.9 4.6-2.1 2.2-4.2 4.3-2.1 2.2-4.3 4.2-2.2 2-4.6 3.9-3.1 3-6.5 5.8-3.3 2.8-6.8 5.4-3.5 2.6-7.1 5-3.7 2.4-7.4 4.5-3.2 2-6.5 3.8-3.3 1.7-6.7 3.3-3.3 1.6-6.8 3-3.5 1.4-7 2.6-6.3 2.4-12.8 4.1-6.5 1.8-13.1 3-6.6 1.2-13.3 1.8-6.7 0.6-13.5 0.6c-5.7 0-11.5 0.7-17.3 0-5.8-0.8-12.3 0-18.4-0.7q-3.4-0.3-6.8-0.7-3.4-0.4-6.8-0.9-3.3-0.6-6.7-1.3-3.3-0.7-6.6-1.6c-6.1-1.5-11.8-3.9-17.7-5.4q-2.2-0.9-4.3-1.9-2.1-1-4.2-2-2.1-1-4.1-2.1-2.1-1-4.1-2.2c-5.4-2.7-10.3-6.4-15.6-9.4q-2.7-1.9-5.3-3.8-2.6-2-5.1-4-2.6-2-5-4.1-2.5-2.1-4.9-4.3-0.6-0.4-1.1-0.8-0.5-0.4-1-0.9-0.5-0.4-1-0.9-0.5-0.5-1-0.9c-5.8-6.4-12-12.5-17.4-19.3-3.4-4.9-7-9.5-10.4-14.3q-1.2-1.8-2.3-3.6-1.1-1.8-2.2-3.6-1.1-1.8-2.1-3.6-1.1-1.9-2-3.8-2.9-5.1-5.4-10.5-2.5-5.4-4.7-10.9-2.1-5.5-3.7-11.2-1.7-5.7-3-11.5-0.4-2.3-0.7-4.6-0.3-2.3-0.5-4.6-0.2-2.4-0.3-4.7-0.2-2.3-0.3-4.6 0-81.3 0-162.6-0.1-4.2 0.1-8.4 0.2-4.2 0.7-8.4 0.5-4.2 1.4-8.3 0.8-4.2 2-8.2 0.8-2.7 1.7-5.4 0.9-2.7 1.9-5.3 1-2.6 2.1-5.2 1.1-2.6 2.4-5.2c2.1-4.9 4.8-9.5 7.1-14.4q1.5-2.6 3.1-5.2 1.6-2.5 3.3-5 1.6-2.6 3.4-5 1.8-2.5 3.6-4.9 1.5-2.1 3.1-4.2 1.6-2.1 3.2-4.2 1.7-2 3.5-3.9 1.7-2 3.6-3.9 2-2.3 4.1-4.6 2.2-2.2 4.4-4.4 2.2-2.2 4.6-4.2 2.3-2.1 4.7-4.1 2.7-2.5 5.6-4.8 2.9-2.3 5.9-4.5 3-2.2 6.1-4.2 3.2-2.1 6.4-4 1.7-1.1 3.4-2.1 1.8-1.1 3.6-2 1.8-1 3.6-2 1.8-0.9 3.6-1.8 2.8-1.4 5.7-2.7 2.8-1.3 5.7-2.5 2.9-1.1 5.9-2.1 3-1 6-1.9 4-1.2 8.1-2.3 4.1-1 8.3-1.8 4.1-0.9 8.3-1.4 4.2-0.6 8.4-1m-1.6 5.4c-5.4 0.4-10.3 1.4-15.4 2.1q-5.7 1.2-11.2 2.8-5.5 1.6-10.9 3.6-5.3 2.1-10.5 4.5-5.3 2.4-10.3 5.2-2.1 1.1-4.2 2.2-2 1.2-4.1 2.4-2 1.3-4 2.6-1.9 1.3-3.8 2.7-4.1 2.9-8.1 5.9-3.9 3.1-7.7 6.4-3.7 3.2-7.3 6.7-3.6 3.5-7 7.1c-5.4 5.7-10.8 12.1-15.6 18.4-2.9 4.5-6.2 8.9-9 13.6q-1.8 2.6-3.3 5.4-1.5 2.7-2.8 5.6-1.2 2.9-2.2 5.9-0.9 3-1.6 6.1-0.7 3-1.2 6.1-0.5 3.1-0.8 6.2-0.3 3.2-0.4 6.3-0.2 3.1-0.1 6.3c0.5 29.3 0 58.6 0 87.9v96.3q-0.2 5.4-0.2 10.7 0 5.4 0.2 10.7 0.2 5.3 0.5 10.7 0.4 5.3 0.9 10.6c0.4 2.9 1.2 5.7 1.7 8.6q0.7 2.7 1.7 5.2 0.9 2.6 2.1 5 1.2 2.5 2.5 4.8 1.4 2.4 3 4.6 2.2 3.5 4.5 7 2.3 3.5 4.7 6.8 2.4 3.4 5 6.7 2.6 3.3 5.3 6.4c2.3 2.3 4.5 4.6 6.5 7.1q1.4 1.4 2.8 2.8 1.4 1.3 2.8 2.7 1.4 1.3 2.9 2.7 1.4 1.3 2.9 2.5 0.8 0.6 1.5 1.2 0.8 0.5 1.5 1.1 0.8 0.6 1.5 1.3 0.7 0.6 1.4 1.2 2.1 1.7 4.3 3.4 2.2 1.6 4.4 3.2 2.2 1.6 4.4 3.1 2.3 1.5 4.6 3 3.1 1.8 6.2 3.5 3.2 1.6 6.4 3.2 3.2 1.6 6.5 3.1 3.3 1.5 6.6 2.8 1.9 0.8 3.8 1.5 1.9 0.7 3.8 1.3 1.9 0.6 3.8 1.2 2 0.6 3.9 1.1c6.5 1.2 12.9 3 19.5 3.6 7.5 1.1 15.1 0.9 22.6 1.4q2.8 0.1 5.5 0.2 2.8 0 5.6 0 2.7-0.1 5.5-0.2 2.8-0.1 5.5-0.3 9.8-0.1 19.4-1.5 9.6-1.3 19-4 9.4-2.6 18.3-6.5 9-3.8 17.4-8.8 1.8-0.9 3.6-2 1.8-1 3.5-2.1 1.7-1.1 3.4-2.3 1.7-1.2 3.3-2.5c4.6-3.3 8.9-7 13.4-10.4 5.4-5.4 10.8-10.1 15.7-15.6q0.8-0.9 1.6-1.9 0.9-0.9 1.6-1.9 0.8-0.9 1.6-1.9 0.7-1 1.4-2 1.9-2.4 3.6-4.9 1.8-2.4 3.5-4.9 1.7-2.5 3.3-5 1.6-2.6 3.1-5.2c3.3-6.8 7.6-13.1 10.2-20.2q1.7-5 2.9-10.1 1.2-5.1 1.9-10.4 0.7-5.2 0.8-10.5 0.2-5.2-0.2-10.5 0-25.1 0-50.2 0-63.4 0-126.9 0.4-4.4 0.5-8.9 0.1-4.5-0.1-9-0.2-4.5-0.6-9-0.4-4.4-1-8.9-1-3.9-2.4-7.7-1.3-3.9-3-7.6-1.6-3.7-3.6-7.2-2.1-3.5-4.4-6.9-2.1-3.4-4.4-6.8-2.3-3.4-4.6-6.7-2.4-3.2-4.9-6.4-2.5-3.2-5.2-6.3c-5.3-6.1-11.1-11.5-16.7-17.3-5.5-5.8-11.7-9.7-17.7-14.5q-2-1.4-4-2.8-2.1-1.4-4.1-2.7-2.1-1.3-4.3-2.5-2.1-1.2-4.3-2.4-4.9-2.8-10.1-5.2-5.1-2.4-10.5-4.5-5.3-2-10.7-3.6-5.5-1.6-11-2.9c-4.7-0.4-9.2-1.5-13.9-1.9q-3.7-0.3-7.5-0.5-3.8-0.2-7.5-0.3-3.8-0.1-7.6-0.1-3.8 0-7.5 0.1-2.4-0.1-4.7 0-2.3 0-4.6 0.1-2.3 0.1-4.6 0.2-2.3 0.1-4.6 0.3z"/>
	<path id="Layer" class="s0" d="m214.3 133.2q0-0.4 0-0.8 0.1-0.3 0.3-0.7 0.2-0.3 0.4-0.6 0.3-0.2 0.7-0.4c1.9-0.2 3.9 0.1 5.8 0.7 1.8 0.7 3.5 1.8 4.9 3.3 1.3 1.4 2.4 3.1 3 5 0.6 1.9 0.8 3.9 0.5 5.8q-0.6 3.7-1.6 7.3-0.9 3.6-2 7.1-1.2 3.5-2.6 7-1.5 3.4-3.1 6.7-0.9 1.3-1.6 2.7-0.8 1.4-1.5 2.8-0.6 1.4-1.2 2.8-0.6 1.4-1.1 2.9c-1.7 4-3.5 7.9-5 11.9q-0.2 0.5-0.5 1.1-0.2 0.5-0.5 1-0.2 0.5-0.5 1-0.3 0.5-0.6 1-1.2 3.5-2.2 7-1 3.5-1.8 7-0.9 3.6-1.6 7.2-0.7 3.6-1.2 7.2-0.3 3-0.3 6.1-0.1 3 0.2 6 0.2 3.1 0.7 6.1 0.6 3 1.3 5.9c0.4 1.4 0.8 3 2.5 3 2-5.4-0.4-10.8-0.3-16.2 0-4.3 0-8.8 0.3-13.2q0.3-2.3 0.7-4.5 0.4-2.3 1-4.5 0.6-2.2 1.3-4.4 0.7-2.2 1.5-4.3 0.5-1.5 1-3 0.5-1.5 1.1-3 0.5-1.5 1.1-2.9 0.6-1.5 1.2-2.9c5.4-14.7 14-28.3 18.1-43.5q0.3-1.3 0.6-2.6 0.3-1.4 0.5-2.7 0.2-1.4 0.4-2.7 0.1-1.4 0.2-2.8c0-3.2 1-6.4 1.4-9.7 0.3-1.9 2.7-1.6 4-1.2q1.7 0.7 3.2 1.6 1.6 1 2.9 2.2 1.3 1.2 2.3 2.7 1.1 1.5 1.8 3.1 0.3 0.9 0.5 1.9 0.1 0.9 0.2 1.9 0.1 0.9 0.1 1.9-0.1 1-0.2 1.9c-0.5 1.7-2.7 1-4.1 1.1q-0.4 0.2-0.7 0.5-0.4 0.3-0.6 0.7-0.3 0.4-0.5 0.8-0.1 0.4-0.2 0.9-0.4 1.5-0.8 2.9-0.3 1.5-0.6 3-0.3 1.5-0.6 3-0.2 1.5-0.4 3-0.2 1.3-0.4 2.5-0.2 1.2-0.5 2.4-0.3 1.2-0.7 2.4-0.4 1.2-0.9 2.4c-2.3 7.1-5.3 14.1-7.1 21.6-1.4 3.6-2.6 7.3-4.2 10.7q-0.9 3.1-1.8 6.3-0.8 3.1-1.5 6.3-0.8 3.1-1.3 6.3-0.6 3.2-1.1 6.4-0.5 3-0.6 6-0.1 2.9 0.1 5.9 0.2 3 0.7 5.9 0.6 2.9 1.4 5.8 0.2 0.3 0.5 0.5 0.3 0.3 0.7 0.3 0.4 0.1 0.7-0.1 0.4-0.1 0.6-0.4c0-2.9-1-5.8-1-8.7q0-1.3 0.1-2.6 0.1-1.3 0.2-2.6 0.1-1.3 0.2-2.5 0.2-1.3 0.4-2.6 0.2-2.8 0.6-5.6 0.4-2.8 1-5.6 0.5-2.8 1.2-5.5 0.8-2.7 1.6-5.4c1.4-3.5 2.1-7.2 3.2-10.8 4.1-12.4 9.2-24.4 12.2-37.2q0.1-1.1 0.2-2.2 0.2-1.1 0.5-2.2 0.4-1 0.8-2 0.5-1.1 1.1-2 0.4-0.6 1-1.1 0.6-0.4 1.2-0.7 0.7-0.3 1.4-0.4 0.7-0.1 1.4-0.1 1.1 0.6 2.1 1.4 0.9 0.8 1.6 1.8 0.7 1 1.1 2.2 0.5 1.1 0.6 2.4 0.4 2.4 0.5 5 0.1 2.5 0 5-0.1 2.5-0.5 5-0.4 2.5-1 4.9-0.4 1.6-0.7 3.2-0.4 1.6-0.8 3.1-0.5 1.6-1 3.2-0.4 1.5-1 3c-1.6 3.6-3.2 7.1-4.5 10.8q-0.2 0.8-0.4 1.7-0.1 0.8-0.1 1.6-0.1 0.9-0.1 1.7 0.1 0.9 0.2 1.7 0.3 2.8 0.4 5.6 0.2 2.7 0.2 5.5 0 2.8-0.2 5.6-0.1 2.8-0.4 5.5-0.4 1.5-0.7 3-0.4 1.4-0.7 2.9-0.3 1.5-0.5 3-0.2 1.5-0.4 3 0.1 0.6 0.3 1.3 0.2 0.6 0.5 1.2 0.2 0.6 0.5 1.2 0.4 0.5 0.7 1c1.5 3.2 3.9 6 5.4 9.3 1.6 3.4 1.6 7.1 2.4 10.8q0.2 0.4 0.4 0.8 0.2 0.4 0.4 0.8 0.3 0.4 0.6 0.7 0.3 0.4 0.6 0.7 1.4 1.4 2.6 3 1.3 1.5 2.4 3.2 1.1 1.6 2.1 3.4 1 1.7 1.8 3.5 1 1.8 2 3.6 1 1.7 2.2 3.5 1.1 1.7 2.3 3.3 1.2 1.7 2.4 3.3c2.5 3.2 4.9 6.4 7.2 9.6 2.4 4.2 5.7 7.7 8.3 11.8q1 1.6 2.1 3.3 1 1.7 2 3.4 1 1.7 1.9 3.4 1 1.7 1.9 3.5 0.6 1.3 1.1 2.6 0.6 1.3 1 2.7 0.5 1.3 0.8 2.7 0.4 1.4 0.6 2.8c0.4 2.9 0.3 5.7-0.2 8.6-0.5 2.8-1.3 5.6-2.6 8.2-1.2 2.6-2.8 5-4.7 7.2-1.9 2.1-4.1 4-6.5 5.6-1.5 0.9-3.4 2-3.8 3.9-1.1 5-1.8 10-3.1 14.9q-33.9 0-67.7 0c4.4-7.8 9.1-15.6 13.4-23.4 0.7-1.3 1.6-2.3 2.3-3.6q0.1-0.8 0.1-1.7 0-0.9-0.1-1.7-0.2-0.9-0.5-1.7-0.3-0.8-0.7-1.5-0.5-1.1-1.2-2.2-0.6-1.1-1.3-2.1-0.6-1-1.4-2-0.7-1-1.5-1.9-1.2-1.4-2.3-2.8-1.1-1.4-2.1-2.8-1.1-1.5-2.1-3-1-1.4-2-3c-1.8-3.9-4.6-7.2-6.9-10.8-3.2-5.4-6.4-10.7-9.7-16.1-3.4-5.4-6.6-11.9-9.9-17.4-3.7-6.5-7.6-13-11.1-19.7q-0.9-1.7-1.6-3.4-0.7-1.8-1.2-3.6-0.6-1.9-0.8-3.8-0.3-1.9-0.4-3.8c-1.3-13.9-0.9-28-1-42q-0.2-4 0.1-7.9 0.2-3.9 0.9-7.8 0.6-3.8 1.8-7.6 1.1-3.8 2.6-7.4c1.2-2.7 1.9-5.6 3.2-8.3 3.3-7.7 6.2-15.6 9.4-23.3q0.6-1.7 1.1-3.4 0.6-1.7 1-3.4 0.4-1.7 0.8-3.5 0.3-1.7 0.6-3.5c0.7-2.5-0.3-5.3 0.5-7.9q0.2-0.4 0.5-0.8 0.4-0.3 0.8-0.5 0.4-0.2 0.9-0.2 0.4 0 0.9 0.2 1.6 0.4 3 1.2 1.5 0.8 2.7 1.9 1.2 1.1 2.1 2.6 0.9 1.4 1.3 3-0.1 1.6-0.3 3.2-0.3 1.6-0.7 3.1-0.4 1.6-1 3.1-0.6 1.5-1.4 3c-5.7 15.3-10.7 30.9-17.1 46.2q-0.5 2.3-1 4.5-0.4 2.3-0.7 4.6-0.3 2.4-0.5 4.7-0.2 2.3-0.2 4.6 0.1 2.6 0.2 5.2 0.1 2.5 0.3 5.1 0.2 2.6 0.5 5.1 0.2 2.6 0.6 5.1c0.3 1.6 0 3.4 1 4.8 2.4-1.2 2.1-4.1 2-6.3q-0.2-2.4-0.3-4.7 0-2.4 0-4.8 0-2.3 0-4.7 0.1-2.3 0.3-4.7 0.1-2.2 0.3-4.4 0.2-2.2 0.5-4.3 0.2-2.2 0.6-4.4 0.4-2.1 0.9-4.3 0.4-1.3 0.8-2.6 0.4-1.3 0.9-2.6 0.5-1.3 1-2.6 0.6-1.2 1.2-2.5 0.4-1 0.8-2.1 0.4-1.1 0.7-2.2 0.4-1 0.7-2.1 0.4-1.1 0.7-2.2 0.9-2.5 1.8-5 1-2.5 2-5 1-2.5 2.1-4.9 1.1-2.4 2.3-4.9 2.1-3.9 3.7-8.1 1.5-4.2 2.5-8.6 0.9-4.4 1.3-8.9 0.3-4.5 0-8.9z"/>
	<path id="Layer" class="s0" d="m394.1 131.4q0.7-0.3 1.5-0.5 0.8-0.2 1.5-0.3 0.8 0 1.6 0 0.8 0.1 1.6 0.2c1.9 1.1 1.1 3.4 0.8 5.1q0 3.9 0.5 7.8 0.4 3.9 1.3 7.7 0.8 3.8 2.1 7.5 1.3 3.7 3 7.3 1.7 3.4 3.3 6.8 1.5 3.5 3 7 1.4 3.5 2.7 7 1.4 3.5 2.6 7.1c0.9 3.6 2.8 6.9 4.1 10.4 1.3 3.5 1.3 8.3 2 12.4q0.2 2.6 0.3 5.1 0.2 2.6 0.3 5.2 0 2.5 0 5.1 0.1 2.5 0 5.1-0.2 1.2-0.2 2.5-0.1 1.3-0.1 2.5 0 1.3 0.1 2.6 0 1.2 0.2 2.5c0.3 0.8 1.5 2 2.2 0.9 0.6-4.5 0.9-9.1 1.5-13.7q0.5-4.1 0.6-8.2 0.1-4.1-0.3-8.1-0.3-4.1-1.1-8.1-0.8-4.1-2-8c-1-3.2-2.6-6.3-3.4-9.6-1.9-5.4-3.9-11.1-6.1-16.6-2.1-5.4-4.1-10.2-6.1-15.3q-0.8-1.7-1.5-3.4-0.6-1.7-1.1-3.5-0.5-1.8-0.7-3.6-0.3-1.8-0.4-3.6 0.4-1.6 1.2-2.9 0.7-1.4 1.8-2.5 1.1-1.1 2.4-1.9 1.4-0.8 2.9-1.3 0.4-0.2 0.8-0.3 0.4 0 0.9 0.1 0.4 0 0.8 0.3 0.4 0.2 0.7 0.5c1.4 2.3 0 5.1 0.8 7.6 0.9 3.8 1.4 7.5 2.4 11.3 3.9 10.7 8.7 21.5 12.9 32.3q1 2.4 1.9 4.8 0.9 2.4 1.6 4.9 0.8 2.5 1.3 5 0.6 2.6 0.9 5.1c0 2.6 0.5 5.1 0.6 7.6 0 12.4 0.4 24.9 0 37.3 0 4.2 0 8.5-0.7 12.7q0 1.6-0.3 3.3-0.2 1.7-0.6 3.3-0.5 1.6-1.1 3.2-0.6 1.5-1.4 3c-7.2 12.1-14.2 24.3-21.5 36.5-3.6 5.9-7.4 11.8-10.8 17.9-4.3 6.2-8.1 12.7-12.8 18.6q-1 1.1-1.9 2.3-0.9 1.3-1.8 2.5-0.8 1.3-1.6 2.6-0.7 1.3-1.4 2.7c-1 2.4-2.2 5.4 0 7.8q0.8 1.1 1.5 2.3 0.7 1.2 1.4 2.4 0.6 1.2 1.3 2.4 0.6 1.3 1.2 2.5c3 5.4 6.4 10.8 9.4 16.2-22.6 0-45.2 0-67.8 0-1.2-5-2.3-10.1-3.5-15.2-0.8-2.7-3.8-3.6-5.9-5q-0.8-0.7-1.6-1.5-0.8-0.7-1.6-1.5-0.8-0.8-1.4-1.7-0.7-0.9-1.3-1.8-2-2.5-3.3-5.3-1.3-2.9-2-6-0.7-3-0.8-6.2 0-3.1 0.7-6.2 0.6-2 1.3-3.9 0.7-1.9 1.6-3.8 0.9-1.8 1.9-3.6 1-1.8 2.1-3.6 0.7-1.4 1.4-2.8 0.7-1.4 1.5-2.7 0.7-1.4 1.6-2.7 0.9-1.3 1.8-2.6c3.9-4.9 7.5-10.1 11.2-15.2 1.9-3.1 4.6-5.4 6.4-8.8 2.9-4.7 5.4-9.6 8.4-14.2q0.7-1 1.5-2.1 0.7-1 1.5-2 0.8-0.9 1.6-1.9 0.7-1 1.6-1.9 0.4-0.6 0.7-1.3 0.3-0.6 0.5-1.3 0.3-0.7 0.4-1.4 0.2-0.7 0.2-1.4c0.5-2.5 0.9-5.1 1.6-7.5 2-4.6 5.4-8.2 7.2-12.9q0.1-1 0.1-1.9 0-1-0.2-2-0.1-1-0.3-1.9-0.2-1-0.6-1.9-0.5-1.9-0.9-3.8-0.5-1.9-0.7-3.9-0.3-2-0.4-3.9 0-2 0-4 0-1.9 0-3.8 0.1-1.9 0.2-3.7 0.1-1.9 0.3-3.8 0.1-1.9 0.4-3.8 0-0.4 0-0.7 0-0.4 0-0.8-0.1-0.4-0.2-0.7-0.1-0.4-0.2-0.8c-1.4-3.8-3.4-7.5-5-11.3q-0.8-2.3-1.4-4.6-0.7-2.3-1.3-4.6-0.5-2.4-1-4.7-0.4-2.4-0.7-4.7-0.4-1.8-0.6-3.7-0.2-1.8-0.2-3.7 0-1.8 0.3-3.6 0.2-1.9 0.6-3.7 0.3-1 0.8-2 0.5-0.9 1.2-1.7 0.7-0.8 1.5-1.4 0.9-0.6 1.9-1 1.4 0.1 2.6 0.7 1.3 0.7 2.2 1.6 1 1 1.6 2.3 0.5 1.2 0.6 2.6c0.6 4.8 2.7 9.1 3.4 13.8 1.1 3.2 1.9 6.4 3.1 9.6 3.6 9 6.6 18.3 9.5 27.5q1.3 4 2.2 8 0.9 4.1 1.6 8.2 0.6 4.1 0.9 8.3 0.3 4.2 0.3 8.3c0 3-0.7 5.8-0.6 8.8l1.1 0.7c2.1-0.8 1.9-3.2 2.4-5q0.3-1.5 0.6-3.1 0.3-1.5 0.4-3.1 0.2-1.6 0.2-3.2 0.1-1.6 0-3.2-0.3-3-0.7-6.1-0.4-3.1-1-6.1-0.5-3.1-1.2-6.1-0.6-3-1.4-6-0.2-1.6-0.6-3.1-0.3-1.5-0.8-3-0.4-1.4-1-2.9-0.5-1.4-1.2-2.9c-3.7-10.2-7.2-20.6-10.7-30.9-1.5-3.7-1.1-7.8-2.3-11.6q-0.2-0.9-0.4-1.7-0.1-0.9-0.3-1.8-0.1-0.8-0.2-1.7-0.1-0.9-0.1-1.8-0.1-0.5-0.4-1-0.2-0.5-0.5-0.9-0.3-0.5-0.6-0.9-0.4-0.4-0.9-0.7c-1.5 0-3.8 0.4-4.4-1.4q-0.3-1.6-0.2-3.2 0.1-1.5 0.6-3 0.5-1.5 1.3-2.9 0.7-1.3 1.8-2.5 0.9-1 1.9-1.8 1-0.9 2.1-1.6 1.2-0.6 2.4-1.2 1.2-0.5 2.5-0.8c0.8 0 2.3 0 2.4 1.1 0 3.1 1.2 6 1.2 9q0.3 2.7 0.7 5.4 0.4 2.6 1.1 5.3 0.7 2.6 1.6 5.1 0.9 2.6 2 5c2.3 5.4 4 10.6 6.4 15.6 2 4.1 3.6 8.3 5.4 12.3q2.1 4.3 3.9 8.8 1.8 4.5 3.3 9.2 1.4 4.6 2.5 9.3 1.1 4.8 1.9 9.6 0.1 2.4 0.2 4.9 0.1 2.5 0 5-0.1 2.5-0.2 4.9-0.2 2.5-0.5 5-0.3 1.1-0.4 2.3-0.1 1.2 0 2.3 0.1 1.2 0.5 2.3 0.3 1.2 0.8 2.2c0.7-0.5 1.5-1 1.6-2q1.1-3.6 1.7-7.3 0.7-3.7 0.9-7.5 0.2-3.8 0-7.5-0.2-3.8-0.8-7.5-0.8-4.3-1.8-8.5-1-4.3-2.3-8.4-1.2-4.2-2.7-8.3-1.5-4-3.3-8-0.8-2.1-1.8-4.2-0.9-2-1.9-4-1-2.1-2-4.1-1.1-1.9-2.2-3.9-1-1.7-1.8-3.4-0.9-1.7-1.7-3.5-0.7-1.7-1.4-3.5-0.7-1.8-1.3-3.7c-0.9-4.4-2.2-8.6-3.1-13q-0.4-1.1-0.6-2.2-0.2-1.2-0.2-2.4 0-1.1 0.2-2.3 0.2-1.2 0.6-2.3 0.6-1.2 1.3-2.3 0.8-1.2 1.8-2.2 1-0.9 2.1-1.7 1.1-0.8 2.4-1.4z"/>
	<path id="Layer" fill-rule="evenodd" class="s0" d="m302.4 147.2c1.5 5.1 3.8 9.9 5.9 14.8q1.9 3.5 3.4 7.1 1.5 3.6 2.7 7.4 1.1 3.8 1.8 7.7 0.7 3.8 1 7.8 0 1.4-0.1 2.8-0.1 1.4-0.3 2.8-0.1 1.4-0.4 2.8-0.3 1.3-0.7 2.7c-1.8 5.4-3.5 10.8-5.4 16.2q4.5-0.1 9 0.3 4.6 0.3 9 1.1 4.5 0.7 8.9 1.9 4.4 1.1 8.7 2.6 1.4 0.5 2.7 1.1 1.4 0.6 2.7 1.4 1.2 0.8 2.4 1.7 1.2 0.9 2.3 1.9 0.8 0.6 1.5 1.4 0.7 0.8 1.2 1.7 0.5 0.9 0.7 1.9 0.3 1 0.3 2.1-0.1 1.8-0.5 3.6-0.3 1.8-0.9 3.5-0.6 1.8-1.4 3.4-0.8 1.7-1.8 3.2-1.1 2.2-2.4 4.2-1.3 2.1-2.7 4-1.5 2-3.2 3.8-1.6 1.8-3.4 3.4-1.3 1.2-2.6 2.3-1.3 1.2-2.6 2.3-1.4 1-2.8 2.1-1.4 1-2.8 1.9-3.3 2.2-6.8 3.7-3.6 1.5-7.4 2.5-3.8 0.9-7.7 1.1-3.9 0.3-7.8-0.2-2.1-0.3-4.2-0.8-2-0.5-4.1-1.2-2-0.6-4-1.5-1.9-0.8-3.8-1.9-1.9-1-3.7-2.2-1.7-1.1-3.4-2.4-1.8-1.3-3.4-2.6-1.6-1.4-3.2-2.8-1.3-1.2-2.5-2.5-1.3-1.3-2.4-2.6-1.2-1.4-2.2-2.8-1.1-1.4-2-2.9-1.7-2.1-3-4.4-1.3-2.2-2.3-4.7-0.9-2.4-1.5-5-0.7-2.5-0.9-5.1c0-3.9 3.3-6.5 6.1-8.5q2.9-1.8 6-3.2 3.1-1.4 6.4-2.6 3.2-1.1 6.5-1.8 3.4-0.8 6.8-1.2c2.1-0.4 4.3-0.8 6.5-1q-1-1.5-2-3-0.9-1.6-1.8-3.1-0.9-1.6-1.7-3.2-0.9-1.6-1.6-3.3-1-2-1.6-4.1-0.6-2.1-0.8-4.3-0.2-2.2 0.1-4.4 0.2-2.2 0.9-4.3 0.5-1.3 1.1-2.6 0.6-1.2 1.2-2.5 0.6-1.2 1.3-2.4 0.7-1.3 1.4-2.5 1-1.8 1.9-3.6 0.9-1.8 1.8-3.7 0.8-1.8 1.6-3.7 0.8-1.9 1.5-3.8 0.8-2.1 1.5-4.3 0.7-2.2 1.2-4.3 0.6-2.2 1-4.5 0.4-2.2 0.8-4.4m5.3 87.4q0.4 1.5 1.2 2.9 0.8 1.4 2 2.5 1.2 1.1 2.6 1.8 1.4 0.8 3 1.1 3.7 0.8 7.5 1.1 3.8 0.3 7.7 0.1 3.8-0.3 7.5-1.1 3.8-0.8 7.4-2.1 1-0.3 1.9-0.7 1-0.5 1.9-1 0.9-0.6 1.7-1.3 0.8-0.6 1.5-1.4 0.2-0.4 0.3-0.9 0.1-0.5 0.1-1-0.1-0.5-0.4-1-0.2-0.4-0.6-0.7-1.4-1.2-3-2.1-1.5-1-3.1-1.9-1.6-0.8-3.3-1.4-1.7-0.6-3.5-1.1-3.7-1.1-7.5-2-3.8-0.8-7.6-1.4-3.9-0.6-7.8-0.8-3.8-0.3-7.7-0.3-0.5 1.5-0.9 3.1-0.3 1.6-0.6 3.1-0.2 1.6-0.3 3.2-0.1 1.6-0.1 3.3zm-29.6-9.5q-1.7 0.4-3.5 0.9-1.7 0.5-3.4 1.2-1.7 0.7-3.3 1.5-1.7 0.8-3.2 1.8c-1.3 1-3 2-3.3 3.7-0.3 1.8 0.9 2.7 2 3.5q1.5 1 3.1 1.7 1.6 0.8 3.2 1.4 1.7 0.6 3.4 1.1 1.8 0.4 3.5 0.7 2.2 0.5 4.4 0.8 2.3 0.3 4.5 0.4 2.3 0.1 4.5 0 2.2-0.1 4.5-0.4 1.1-0.1 2.3-0.4 1.1-0.3 2.1-0.9 1-0.6 1.9-1.4 0.8-0.8 1.4-1.8 0.2-1.1 0.3-2.3 0-1.1-0.1-2.2-0.1-1.2-0.4-2.3-0.2-1.1-0.7-2.1-0.5-1.1-1.1-2.2-0.6-1-1.3-2-0.7-1.1-1.4-2-0.8-1-1.6-1.9-2.2 0.3-4.5 0.6-2.2 0.3-4.4 0.7-2.3 0.4-4.5 0.9-2.2 0.4-4.4 1z"/>
	<path id="Layer" fill-rule="evenodd" class="s0" d="m427 404.5c4.1-2.7 8.1-5.4 12-8.4l2.7 2.6q-1.9 1.3-3.6 2.6c6 7.8 11.5 15.9 17.7 23.4-1.6 1.6-3.2 3-4.8 4.5-2.5-3.3-5.4-6.2-7.8-9.4q-0.6 0.5-1.2 1-0.6 0.5-1.2 0.9-0.6 0.5-1.3 1-0.6 0.4-1.3 0.8c0 1.6 0 3.8-1.5 4.6q-0.8 0.1-1.5 0.1-0.7 0-1.4 0-0.7 0-1.5 0-0.7 0-1.4-0.1-0.8 0-1.5-0.2-0.7-0.2-1.4-0.6-0.7-0.3-1.2-0.9-0.5-0.5-0.9-1.2 0-0.4 0-0.9 0-0.4 0.1-0.8 0.2-0.4 0.4-0.8 0.2-0.3 0.5-0.7-0.7-1.1-1.4-2.2-0.7-1.1-1.4-2.2-0.7-1.1-1.5-2.2-0.7-1.1-1.5-2.1-0.7 0.4-1.3 0.8-0.7 0.3-1.4 0.7-0.6 0.4-1.3 0.7-0.7 0.4-1.4 0.7 0.5 1 1 1.9 0.5 0.9 1 1.8 0.6 0.9 1.1 1.8 0.6 0.9 1.1 1.8l-7.5 5.4c-0.9 0.6-1.9 1.2-2.3 2.3-0.3 1.1 2.1 0.7 2.9 0q0.8-0.7 1.6-1.2 0.8-0.5 1.7-0.8 0.9-0.4 1.9-0.5 0.9-0.2 1.9-0.2 1 0.1 1.9 0.3 0.9 0.2 1.8 0.5 0.9 0.3 1.8 0.8 0.8 0.4 1.6 1 0.7 0.8 1.3 1.7 0.6 1 0.9 2 0.3 1.1 0.5 2.2 0.1 1.1 0 2.2c0 1.8-1.3 3.2-2.3 4.5q-2.1-0.9-4-2.1 0.1-0.5 0.2-1.1 0.1-0.6 0.1-1.1 0-0.6-0.1-1.2-0.1-0.6-0.2-1.1-0.4-0.5-0.9-0.8-0.5-0.4-1.1-0.6-0.6-0.1-1.3-0.1-0.6 0-1.2 0.3-0.7 0.3-1.3 0.8-0.6 0.5-1.1 1.1-0.5 0.6-0.9 1.3-0.3 0.7-0.5 1.4-0.2 0.9-0.2 1.8 0.1 0.9 0.5 1.7 0.4 0.8 1 1.5 0.6 0.6 1.4 1 0.6 0.3 1.3 0.4 0.7 0.1 1.4 0.1 0.6 0 1.3-0.1 0.7-0.1 1.3-0.4 0.2 0.7 0.4 1.4 0.2 0.6 0.3 1.3 0.1 0.7 0.3 1.4 0.1 0.6 0.2 1.3-1.7 0.6-3.5 0.8-1.8 0.1-3.6-0.2-1.8-0.3-3.5-1-1.7-0.7-3.1-1.7-0.9-1.1-1.6-2.4-0.6-1.3-1-2.7-0.4-1.4-0.5-2.8-0.1-1.5 0.2-2.9-0.9-0.5-1.7-1.1-0.7-0.5-1.4-1.2-0.7-0.7-1.3-1.5-0.6-0.8-1-1.6-0.3-0.9-0.3-1.8-0.1-1 0.1-1.9 0.1-0.9 0.5-1.7 0.4-0.9 1-1.6 0.7-0.7 1.4-1.3 0.8-0.7 1.6-1.3 0.8-0.6 1.6-1.1 0.8-0.6 1.6-1.1-0.1-0.2-0.2-0.3-0.1-0.2-0.3-0.4-0.1-0.2-0.2-0.3-0.1-0.2-0.2-0.4c-1.3 0.7-2.5 1.5-3.9 2.1-3.5 1.4-6.7 3.3-10.2 4.7 2.3 5.4 4.6 10.5 7.1 15.7q0.8 1.5 1.5 3 0.7 1.6 1.4 3.1 0.6 1.6 1.3 3.2 0.6 1.5 1.2 3.1-0.7 0.4-1.4 0.7-0.7 0.4-1.4 0.7-0.8 0.3-1.5 0.5-0.7 0.3-1.5 0.6c-1.4-2.4-2.6-4.9-3.9-7.3q-0.9 1.3-2 2.3-1.2 0.9-2.5 1.6-1.4 0.6-2.9 0.8-1.5 0.2-3 0-0.8 0-1.5-0.1-0.8-0.1-1.5-0.2-0.7-0.1-1.5-0.3-0.7-0.2-1.4-0.4-1.4-0.7-2.6-1.5-1.3-0.9-2.4-1.9-1.1-1-2.1-2.2-0.9-1.2-1.7-2.5c0.8-0.9 1.4-2.1 2.7-2.4q0.7-0.2 1.3-0.7 0.6-0.4 1-1.1 0.4-0.6 0.6-1.4 0.1-0.8 0-1.5-0.2-0.6-0.6-1.2-0.4-0.6-0.9-1-0.5-0.5-1.1-0.8-0.6-0.4-1.2-0.6c-2.3 0.9-4.7 1.5-7.1 2.2 1 3.8 2.4 7.4 3.4 11.1l2.2-0.9c1.7 2.2 3 4.5 4.6 6.6l-4.4 1.7c-0.3 1.7-0.6 4.1-2.6 4.5q-1-0.3-2.1-0.6-1-0.4-2-0.8-1-0.4-1.9-0.9-1-0.5-1.9-1-0.5-0.2-0.9-0.6-0.5-0.4-0.7-0.9-0.2-0.5-0.3-1.1 0-0.6 0.1-1.1c0.4-1.6 2.2-2.2 3.4-3.1-1.3-3.7-2.5-7.5-3.9-10.8-2 0.4-4 0.7-5.9 1 1.8 9.8 4.8 19.3 7.2 29l-6.9 1.3c-2.2-9.7-5.4-19.3-7.7-28.9l-4.4 0.8c0.4 2.9 0.9 5.8 1.3 8.8-3.3 0.6-6.5 1.3-9.8 2-1 0-1.5 1.2-1.9 2.1 2.8 1.1 5.4-1.1 8.2-0.7q0.8 0.1 1.6 0.4 0.7 0.2 1.5 0.6 0.7 0.3 1.4 0.7 0.7 0.5 1.3 1 0.8 0.5 1.4 1.2 0.7 0.7 1.1 1.5 0.4 0.9 0.6 1.8 0.2 0.9 0.1 1.9 0 1.3-0.3 2.6-0.4 1.2-1 2.4-0.7 1.1-1.6 2-1 0.9-2.1 1.6c-1.2-1.3-2.3-2.6-3.5-3.8q0.4-0.5 0.7-1 0.3-0.5 0.5-1.1 0.2-0.5 0.4-1.1 0.1-0.6 0.1-1.2-0.2-0.9-0.8-1.5-0.6-0.7-1.5-1-0.8-0.3-1.7-0.2-0.9 0-1.7 0.5-1 0.4-1.9 1.2-0.8 0.7-1.4 1.7-0.5 1-0.7 2.1-0.2 1.1-0.1 2.2c0.8 2.7 3.8 3.9 6.3 4.6-0.3 1.6-0.6 3.2-0.9 4.9q-1.5-0.2-2.9-0.7-1.5-0.4-2.8-1-1.4-0.6-2.7-1.5-1.2-0.8-2.4-1.8-0.9-1.5-1.4-3.1-0.5-1.7-0.5-3.5 0-1.7 0.5-3.4 0.5-1.6 1.4-3.1c-1.6-2.2-3.8-4.3-3.6-7.1q0.1-1 0.5-2 0.4-0.9 1-1.7 0.7-0.9 1.5-1.5 0.8-0.6 1.7-1 1-0.3 1.9-0.4 1-0.2 1.9-0.4 1-0.1 2-0.3 0.9-0.1 1.9-0.2l-1-2.7c-5.4 0.8-11.3 1.2-16.9 1.8 1 9.8 1 19.8 2 29.6-2.2 0-4.5 0-6.8 0.5 0-1.9 0-3.7-0.4-5.4q-1.1 0.4-2.4 0.6-1.2 0.3-2.4 0.3-1.3 0-2.5-0.3-1.2-0.2-2.4-0.6-1.5-0.6-2.7-1.6-1.2-1-2.2-2.3-0.9-1.2-1.4-2.7-0.6-1.5-0.7-3 0-1.5 0.5-2.9 0.4-1.3 1.2-2.6 0.7-1.2 1.8-2.1 1.1-1 2.4-1.7 1-0.4 2-0.8 1.1-0.4 2.2-0.6 1.1-0.3 2.2-0.4 1.2-0.1 2.3-0.1v-3.2c-3.8 0-7.7 0-11.6 0.4 0-1.4 0-2.8-0.4-4.3 7.6-0.5 15.1-0.6 22.7-1.4q6.8-0.4 13.7-1.3 6.8-0.9 13.5-2.2 6.8-1.3 13.5-3 6.6-1.7 13.2-3.8c3.2-1.3 6.4-2.6 9.6-3.9 3.2-1.3 6-2.8 9.1-3.8q4.2-2 8.3-4.2 4.2-2.1 8.2-4.4 4.1-2.2 8-4.6 4-2.4 7.9-5m0.3 4.5c2.2 2.9 4.2 5.9 6.4 8.7l4.9-3.9c-2.1-2.6-4.2-5.4-6.5-7.9-1.5 1.1-3.2 2.1-4.8 3.1zm-43.2 23.5c0 2 1.6 3.7 1.8 5.4q0.1 1.1 0 2.1-0.1 1.1-0.5 2.1-0.4 1-1 1.8-0.6 0.9-1.5 1.6 0.4 0.5 0.8 0.9 0.4 0.5 0.8 0.8 0.5 0.4 1.1 0.7 0.5 0.2 1.1 0.4c1.2 0.4 2.3-0.5 3.3-1q0.8-0.6 1.5-1.3 0.6-0.7 1-1.6 0.3-0.9 0.4-1.9 0.1-0.9-0.1-1.9-0.7-1.2-1.3-2.4-0.6-1.3-1.1-2.5-0.6-1.3-1.1-2.5-0.5-1.3-1-2.6-0.5 0.2-1.1 0.3-0.5 0.2-1 0.4-0.5 0.2-1.1 0.4-0.5 0.3-1 0.6zm-80.3 25.6q-0.4 0.7-0.5 1.5-0.1 0.8 0.2 1.6 0.3 0.8 0.9 1.4 0.6 0.6 1.3 0.9 0.8 0.4 1.7 0.6 0.8 0.2 1.7 0.2 0.9 0 1.7-0.2 0.9-0.2 1.7-0.6c0-2.5-0.3-4.9-0.5-7.4q-1.1-0.3-2.1-0.3-1.1-0.1-2.2 0.2-1 0.3-2 0.8-0.9 0.5-1.7 1.3z"/>
	<path id="Layer" fill-rule="evenodd" class="s0" d="m173.5 405.9q1.8-1.8 3.4-3.8 0.6 0.4 1.2 0.8 0.6 0.4 1.2 0.9 0.6 0.4 1.2 0.8 0.5 0.5 1.1 0.9c3 1.5 5.9 3.5 8.9 5.4 2.9 2 6.4 3.7 9.5 5.8-0.6-3.3-1.2-6.5-1.8-9.7l6.1 3c0.8 3.2 1.4 6.4 2.2 9.7 8.5 4.1 17.2 7.6 25.9 10.8-0.6 1.6-1.1 3.1-1.8 4.7l-2.5-0.8c-3.4 9.1-6.7 18.3-10.1 27.4-2.1-0.9-4.1-1.8-6.3-2.6 1.1-2.6 2.1-5.4 3.1-8 1.9-6.7 4.9-12.9 7.2-19.4l-4.4-1.8q0.1 2-0.2 3.9-0.4 1.9-1 3.7-0.6 1.8-1.5 3.5-0.9 1.7-2.1 3.2-0.6 0.8-1.4 1.5-0.8 0.6-1.8 1.1-0.9 0.4-2 0.5-1 0.2-2 0.1-1.1-0.4-1.9-1-0.9-0.7-1.6-1.6-0.6-0.9-1-1.9-0.3-1-0.4-2.1-0.1-0.7 0-1.4 0.1-0.7 0.5-1.3 0.3-0.7 0.8-1.1 0.5-0.5 1.1-0.8 0.9-0.4 1.7-0.4 0.9-0.1 1.8 0.2 0.8 0.3 1.5 0.8 0.7 0.6 1.1 1.3 0.9-1.2 1.4-2.5 0.5-1.4 0.6-2.9 0.1-1.4-0.1-2.9-0.3-1.4-0.9-2.7-0.7-0.4-1.4-0.8-0.6-0.3-1.3-0.6-0.7-0.4-1.4-0.7-0.6-0.3-1.3-0.6c-2.6 5-5.4 9.8-7.6 15-2.2 3.7-4.2 7.5-6.1 11.4-2-1-4-2-6-3 1.6-4 4-7.5 5.9-11.3 2.5-5 5.4-9.9 7.6-14.9q-1.8-1.2-3.6-2.1c-5 8.3-9.8 16.7-14.8 25-2-1.1-4-2.1-5.9-3.4 1.8-2.4 3.2-5 4.8-7.5q-1.4 0.2-2.9 0.1-1.4-0.1-2.8-0.5-1.4-0.5-2.7-1.2-1.3-0.7-2.3-1.7-1.2-1.8-1.9-3.9-0.6-2-0.7-4.2-0.1-2.1 0.4-4.2 0.5-2.1 1.6-3.9 0.8 0.1 1.7 0.2 0.9 0.1 1.8 0.1 0.9 0 1.7-0.1 0.9-0.1 1.8-0.2c2-1 2.2-3.5 2.1-5.4-1.2-0.9-2.4-1.8-3.8-2.5m9.8 6.5q-0.1 0.8-0.3 1.5-0.2 0.8-0.5 1.6-0.3 0.7-0.8 1.4-0.4 0.7-0.9 1.3c-1.4 2.3-4.3 2.4-6.7 2.5 0 0.9-0.8 1.9-0.3 2.8q0.5 1.2 1.4 2.1 0.9 0.9 2.2 1.3 1.2 0.4 2.5 0.2 1.3-0.2 2.3-0.9c2.5-3.3 4.5-6.9 6.7-10.3q-0.7-0.5-1.3-1.1-0.7-0.5-1.4-0.9-0.6-0.5-1.3-1-0.7-0.5-1.4-0.9z"/>
	<path id="Layer" class="s0" d="m460.5 425.1q0.3-0.2 0.7-0.2 0.4-0.1 0.8 0.1 0.4 0.2 0.6 0.5 0.2 0.3 0.3 0.8c-2 1.5-3.6 3.4-5.4 4.9q-0.4 0.2-0.8 0.4-0.4 0.2-0.9 0.3-0.4 0-0.9 0.1-0.4 0-0.9-0.1c0-1-0.7-2.5 0.6-3.1 1.9-1.1 3.8-2.4 5.9-3.7z"/>
	<path id="Layer" fill-rule="evenodd" class="s0" d="m249.6 428.1q0.1 0.1 0.1 0.2-0.1 0-0.2-0.1m7 1.8c1.5 2.4 2.8 4.9 4.4 7.3q3.3 0.9 6.7 1.6 3.4 0.7 6.9 1.1 3.4 0.5 6.9 0.8 3.4 0.2 6.9 0.3 0 0.7-0.1 1.3 0 0.7-0.1 1.4 0 0.7-0.1 1.3-0.1 0.7-0.2 1.4h-2.5c-0.6 9.5-1.4 19-2.4 28.4-2.2 0-4.4-0.5-6.5-0.9 0-3.6 0.3-7.2 0.4-10.7q-0.8-0.2-1.6-0.4-0.9-0.1-1.8-0.2-0.8-0.1-1.7-0.2-0.8-0.1-1.7-0.2-0.1 0.7-0.4 1.3-0.2 0.7-0.6 1.2-0.4 0.6-0.9 1-0.5 0.5-1.1 0.8c-1.4 0-2.2-1.3-3.1-2.2q-0.8-0.6-1.4-1.4-0.7-0.7-1.3-1.6-0.5-0.8-0.9-1.7-0.4-1-0.7-1.9 0-0.9 0.3-1.7 0.3-0.8 1-1.4 0.6-0.6 1.4-0.8 0.9-0.3 1.7-0.1c0.4-3.5 0.9-6.9 1.3-10.3q-0.9-0.2-1.7-0.3-0.8-0.1-1.6-0.3-0.8-0.2-1.7-0.4-0.8-0.2-1.6-0.4c-1.9 9.7-4.1 19.3-6.1 29q-3.3-0.7-6.7-1.3c1.2-6.4 2.7-12.7 3.9-19-3.4-1-6.8-1.8-10.2-3.1-0.8-0.2-1.6-0.2-2.5-0.1-0.8 0.2-1.6 0.6-2.2 1.1-0.7 0.5-1.2 1.2-1.6 2-0.3 0.7-0.5 1.6-0.4 2.4q0.1 0.5 0.4 0.9 0.3 0.4 0.7 0.7 0.4 0.3 0.8 0.6 0.4 0.2 0.9 0.4c2.3 0.8 4.4-0.7 6.5-1.3 1.1 1.3 2.1 2.6 3.3 3.8-1 1.8-4 2.3-3.8 4.6 0.2 2.3 0 3.3 0 4.9q-0.8-0.1-1.6-0.2-0.8-0.1-1.5-0.3-0.8-0.2-1.6-0.4-0.7-0.2-1.5-0.4 0-1.6 0-3.2-1.2-0.4-2.3-1-1.2-0.5-2.2-1.3-1-0.7-1.9-1.6-0.9-0.9-1.6-2-0.7-1.1-1-2.3-0.4-1.2-0.4-2.5 0-1.3 0.4-2.5 0.3-1.3 1-2.4 0.5-1 1.3-1.9 0.7-0.9 1.5-1.7 0.9-0.8 1.9-1.4 1-0.6 2.1-1.1c-2-1.8-1.6-4.7-1.3-7.1 0.5-1.1 1.1-2.2 2-3 0.9-0.8 2-1.5 3.1-1.8 1.2-0.4 2.4-0.5 3.6-0.4 1.3 0.2 2.4 0.6 3.4 1.3q1.2 0.7 2 1.7 0.8 1.1 1.2 2.4 0.4 1.2 0.4 2.6-0.1 1.3-0.5 2.5-0.3 0.5-0.7 1-0.3 0.5-0.6 0.9-0.4 0.5-0.8 0.9-0.4 0.4-0.8 0.8l5.7 1.3c0.3-1.4 0.6-2.8 0.9-4.2h-1.8q0-0.6 0.1-1.3 0-0.7 0.2-1.4 0.1-0.7 0.3-1.3 0.2-0.7 0.4-1.4l2.5 0.6q-0.5-0.9-1.1-1.8-0.5-0.9-1-1.9-0.5-0.9-1-1.8-0.4-0.9-0.8-1.8c2.2 0.7 4.5 1.2 6.8 1.7zm-17.3 7.5c0.3 1.1 1.6 1.2 2.6 1.3 0.5-0.9 1.3-2.3 0-3.2-1.3-0.9-3.6 0.3-2.9 1.9zm33 7.2c-0.4 3.3-1.1 6.5-1.6 9.8q0.9 0.2 1.8 0.2 0.8 0.1 1.7 0.2 0.9 0.1 1.8 0.1 0.9 0 1.7 0c0-3.2 0-6.4 0.4-9.7-2-0.1-3.7-0.3-5.6-0.5z"/>
	<path id="Layer" class="s0" d="m280.7 431c0.4-0.3 0.9-0.5 1.4-0.6 0.6 0 1.1 0.1 1.6 0.3 0.5 0.3 0.9 0.6 1.1 1.1 0.3 0.5 0.4 1 0.4 1.5 0 1-0.5 1.9-1.4 2.5-0.8 0.5-1.9 0.5-2.8 0.1-0.8-0.5-1.4-1.4-1.5-2.4-0.1-1 0.4-1.9 1.2-2.5z"/>
	<g id="Layer">
		<path id="Layer" fill-rule="evenodd" class="s1" d="m6.8 8.4q1.6-1.7 3.6-3.1 2-1.4 4.3-2.4 2.2-0.9 4.6-1.4 2.3-0.5 4.8-0.5h589.7q0 266.7 0 533.3v53.9h-588.6q-1.7 0-3.3-0.1-1.7-0.2-3.3-0.6-1.6-0.4-3.1-1-1.5-0.6-3-1.4-2.2-1.3-4-3-1.9-1.7-3.4-3.8-1.4-2.1-2.4-4.5-1-2.3-1.4-4.9-0.1-0.9-0.2-1.9-0.1-0.9-0.1-1.9 0-1 0-1.9 0-1 0-2v-537.1q0-2.1 0.4-4.2 0.3-2.1 1.1-4.1 0.7-2 1.8-3.9 1.1-1.8 2.5-3.5zm278.7 43.7q-4.2 0.3-8.4 0.9-4.2 0.6-8.3 1.4-4.2 0.9-8.3 1.9-4.1 1-8.1 2.3-3 0.9-6 1.8-3 1-5.9 2.2-2.9 1.1-5.7 2.4-2.9 1.3-5.7 2.8-1.8 0.9-3.6 1.8-1.8 0.9-3.6 1.9-1.8 1-3.6 2.1-1.7 1-3.5 2.1-3.2 1.9-6.3 3.9-3.1 2.1-6.1 4.3-3 2.2-5.9 4.5-2.9 2.3-5.7 4.8-2.4 2-4.7 4-2.3 2.1-4.5 4.3-2.2 2.1-4.4 4.4-2.1 2.3-4.1 4.6-1.9 1.9-3.6 3.8-1.8 2-3.5 4-1.7 2-3.2 4.1-1.6 2.1-3.1 4.3-1.9 2.4-3.6 4.9-1.8 2.4-3.5 4.9-1.6 2.6-3.2 5.1-1.6 2.6-3.1 5.2c-2.3 4.9-5.1 9.5-7.2 14.4q-1.2 2.6-2.3 5.2-1.1 2.6-2.1 5.2-1 2.6-1.9 5.3-0.9 2.7-1.7 5.4-1.2 4-2 8.1-0.9 4.2-1.4 8.4-0.5 4.2-0.7 8.4-0.2 4.2-0.1 8.4 0 81.2 0 162.5 0.1 2.4 0.2 4.7 0.2 2.3 0.4 4.6 0.2 2.4 0.5 4.7 0.3 2.3 0.7 4.6 1.2 5.8 2.9 11.5 1.7 5.6 3.8 11.2 2.1 5.5 4.6 10.9 2.6 5.4 5.4 10.5 1 1.9 2.1 3.7 1 1.9 2.1 3.7 1 1.8 2.2 3.6 1.1 1.8 2.3 3.5c3.4 4.8 7 9.5 10.4 14.4 5.4 6.8 11.6 12.9 17.4 19.2q0.5 0.5 1 1 0.5 0.4 1 0.9 0.5 0.4 1 0.9 0.5 0.4 1 0.8 2.5 2.2 4.9 4.3 2.5 2.1 5.1 4.1 2.5 2 5.1 4 2.6 1.9 5.3 3.8c5.4 2.9 10.1 6.7 15.6 9.4q2 1.2 4.2 2.2 2.1 1.1 4.2 2.1 2.2 1 4.3 2 2.2 1 4.4 1.9c5.9 1.7 11.6 4.1 17.7 5.4q3.3 0.8 6.6 1.6 3.4 0.7 6.8 1.2 3.3 0.6 6.7 1 3.4 0.4 6.8 0.6c6.1 0.6 12.3 0.4 18.4 0.7 6.2 0.4 11.6-0.3 17.3 0q6.8 0.1 13.5-0.5 6.7-0.6 13.4-1.8 6.6-1.2 13.1-3 6.5-1.8 12.8-4.2 3.6-1.1 7-2.5 3.5-1.4 6.9-3 3.3-1.6 6.6-3.4 3.3-1.7 6.5-3.7 3.7-2.2 7.4-4.6 3.6-2.4 7.1-5 3.5-2.6 6.8-5.3 3.4-2.8 6.6-5.8 2.3-1.9 4.5-3.9 2.2-2.1 4.4-4.2 2.1-2.1 4.1-4.4 2-2.2 3.9-4.5 1.9-2.1 3.7-4.2 1.8-2.1 3.6-4.3 1.7-2.1 3.4-4.4 1.6-2.2 3.2-4.5 2.5-3.5 4.8-7.2 2.3-3.6 4.4-7.3 2.2-3.7 4.2-7.5 2-3.8 3.9-7.7c1.3-2.6 1.9-5.4 3.2-8.1q2.1-4.9 3.8-9.9 1.6-5.1 2.8-10.3 1.3-5.2 2.1-10.4 0.8-5.3 1.2-10.6c0-5.4 0-11.2 0-16.7q0-78 0-156-0.2-4.3-0.8-8.6-0.6-4.3-1.5-8.5-0.9-4.3-2.2-8.4-1.2-4.1-2.8-8.1-1.1-3-2.2-6-1.2-2.9-2.5-5.8-1.3-2.9-2.7-5.7-1.4-2.9-2.9-5.7c-3.8-7.2-8.6-14-12.9-21-4.3-6.9-9.8-12.8-15.3-18.7q-4.3-4.8-8.9-9.3-4.6-4.5-9.4-8.7-4.9-4.2-10-8.1-5.1-3.9-10.4-7.5-3-1.8-6-3.5-3-1.7-6-3.3-3-1.6-6.1-3.2-3.1-1.5-6.2-3-1.9-0.9-3.9-1.7-2-0.9-4-1.6-2.1-0.8-4.1-1.4-2.1-0.7-4.2-1.2-2.5-0.8-5.1-1.6-2.5-0.7-5.1-1.3-2.6-0.7-5.2-1.2-2.6-0.5-5.2-1-3.8-0.6-7.6-1.1-3.7-0.4-7.5-0.7-3.8-0.3-7.6-0.4-3.8-0.1-7.6 0c-9 0.1-17.9-0.1-26.8 0.5z"/>
		<path id="Layer" fill-rule="evenodd" class="s1" d="m283.9 57.5q2.3-0.2 4.7-0.3 2.3-0.2 4.6-0.2 2.3-0.1 4.7-0.1 2.3-0.1 4.6 0 3.8-0.1 7.6-0.1 3.7 0 7.5 0.1 3.8 0.1 7.6 0.3 3.7 0.2 7.5 0.5c4.6 0.4 9.2 1.5 13.8 1.9q5.6 1.3 11 2.9 5.5 1.6 10.8 3.6 5.3 2.1 10.5 4.5 5.1 2.4 10.1 5.2 2.1 1.2 4.3 2.4 2.1 1.2 4.1 2.5 2.1 1.3 4.1 2.7 2 1.4 4 2.8c5.8 4.8 12.1 9 17.6 14.3 5.4 5.2 11.5 11.1 16.7 17.2q2.6 3.1 5.1 6.3 2.5 3.2 4.9 6.5 2.4 3.3 4.7 6.7 2.2 3.4 4.4 6.8 2.3 3.4 4.3 6.9 2.1 3.6 3.8 7.3 1.7 3.7 3 7.6 1.4 3.9 2.4 7.8 0.6 4.5 1 9 0.4 4.4 0.5 8.9 0.2 4.5 0.1 9-0.1 4.5-0.5 9 0 63.4 0 126.9v50.1q0.4 5.3 0.2 10.6-0.1 5.3-0.8 10.5-0.7 5.2-1.9 10.4-1.2 5.1-2.9 10.1c-2.7 7.1-6.9 13.4-10.2 20.2q-1.5 2.6-3.1 5.1-1.6 2.6-3.3 5.1-1.7 2.5-3.5 4.9-1.7 2.4-3.6 4.8-0.7 1-1.4 2-0.7 0.9-1.5 1.9-0.7 0.9-1.5 1.8-0.8 0.9-1.6 1.8c-4.9 5.4-10.4 10.5-15.7 15.6-4.5 3.4-8.7 7.2-13.4 10.4q-1.6 1.3-3.3 2.5-1.7 1.2-3.4 2.3-1.7 1.1-3.5 2.2-1.8 1-3.6 1.9-8.4 5-17.3 8.9-9 3.8-18.4 6.5-9.3 2.6-19 4-9.6 1.3-19.4 1.4-2.7 0.2-5.5 0.3-2.8 0.2-5.5 0.2-2.8 0-5.5 0-2.8 0-5.6-0.1c-7.5-0.5-15.1-0.4-22.6-1.4-6.6-0.7-13-2.5-19.5-3.6q-1.9-0.6-3.9-1.1-1.9-0.6-3.8-1.3-1.9-0.6-3.8-1.3-1.9-0.7-3.8-1.4-3.3-1.4-6.6-2.9-3.2-1.4-6.5-3-3.2-1.6-6.3-3.3-3.2-1.7-6.3-3.5-2.3-1.5-4.6-3-2.2-1.5-4.4-3.1-2.2-1.6-4.4-3.2-2.2-1.6-4.3-3.3-0.7-0.7-1.4-1.3-0.7-0.6-1.4-1.2-0.8-0.6-1.5-1.2-0.8-0.6-1.6-1.1-1.5-1.3-2.9-2.6-1.5-1.3-2.9-2.7-1.4-1.3-2.8-2.7-1.4-1.4-2.8-2.8c-2-2.4-4.2-4.8-6.5-7q-2.7-3.2-5.3-6.5-2.5-3.2-5-6.6-2.4-3.4-4.7-6.9-2.3-3.4-4.5-7-1.6-2.2-3-4.6-1.3-2.3-2.5-4.8-1.2-2.4-2.1-5-1-2.5-1.7-5.1c-0.5-2.9-1.3-5.7-1.6-8.7q-0.6-5.3-1-10.6-0.3-5.3-0.5-10.7-0.2-5.3-0.2-10.6 0-5.4 0.2-10.7c0-29.4 0-155.2 0-184.5q-0.1-3.2 0.1-6.3 0.1-3.1 0.4-6.2 0.3-3.1 0.8-6.2 0.5-3.1 1.2-6.2 0.7-3.1 1.6-6.1 1-3 2.2-5.9 1.3-2.9 2.8-5.6 1.5-2.8 3.3-5.4c2.8-4.7 6.1-9 9-13.6 5.1-6.3 10-12.6 15.6-18.4q3.4-3.6 7-7.1 3.6-3.4 7.3-6.7 3.8-3.3 7.7-6.4 4-3 8.1-5.9 1.9-1.4 3.8-2.7 2-1.3 4-2.6 2.1-1.2 4.1-2.3 2.1-1.2 4.2-2.2 5.1-2.9 10.3-5.3 5.2-2.4 10.5-4.5 5.4-2 10.9-3.6 5.5-1.6 11.2-2.8c5.4-0.7 10.3-1.6 15.4-2.1m-69.6 75.6q0.3 4.5 0 8.9-0.4 4.5-1.4 8.9-1 4.4-2.5 8.7-1.6 4.2-3.8 8.1-1.2 2.4-2.3 4.9-1.1 2.4-2.1 4.9-1 2.5-2 5-0.9 2.5-1.8 5-0.3 1.1-0.7 2.2-0.3 1.1-0.7 2.1-0.3 1.1-0.7 2.2-0.4 1.1-0.8 2.1-0.6 1.2-1.2 2.5-0.5 1.3-1 2.6-0.5 1.3-0.9 2.6-0.4 1.3-0.8 2.6-0.5 2.2-0.9 4.3-0.3 2.2-0.6 4.3-0.3 2.2-0.5 4.4-0.2 2.2-0.3 4.4-0.2 2.3-0.2 4.7-0.1 2.4-0.1 4.7 0 2.4 0.1 4.8 0 2.3 0.2 4.7c0 2.2 0.4 5.4-2 6.3-1.1-1.4-0.7-3.2-1-4.8q-0.4-2.5-0.6-5.1-0.3-2.5-0.5-5.1-0.2-2.6-0.3-5.1-0.1-2.6-0.2-5.2 0.1-2.3 0.2-4.6 0.2-2.4 0.5-4.7 0.3-2.3 0.7-4.6 0.5-2.3 1.1-4.5c6-15.3 11.3-30.9 17-46.2q0.8-1.5 1.4-3 0.6-1.5 1-3.1 0.4-1.5 0.7-3.1 0.3-1.6 0.3-3.3-0.4-1.5-1.3-2.9-0.9-1.4-2.1-2.5-1.2-1.1-2.6-1.9-1.4-0.8-3-1.2-0.4-0.2-0.9-0.2-0.5 0-0.9 0.2-0.4 0.2-0.8 0.5-0.3 0.4-0.4 0.8c-0.9 2.6 0 5.4-0.6 7.9q-0.3 1.8-0.6 3.6-0.4 1.7-0.9 3.4-0.5 1.8-1 3.5-0.6 1.7-1.2 3.4c-3.2 7.7-6.1 15.5-9.4 23.2-1.3 2.7-2 5.4-3.2 8.4q-1.5 3.6-2.6 7.3-1.2 3.8-1.8 7.7-0.7 3.8-0.9 7.8-0.3 3.9-0.1 7.8c0 14-0.3 28.1 1 42.1q0.1 1.9 0.3 3.8 0.3 1.8 0.8 3.7 0.5 1.8 1.2 3.6 0.7 1.7 1.6 3.4c3.5 6.7 7.4 13.2 11.1 19.7 3.4 5.4 6.7 10.8 9.6 16.9 2.8 6.1 6.4 10.8 9.7 16.2 2.2 3.7 5 7 6.9 10.7q1 1.6 2 3.1 1 1.4 2 2.9 1.1 1.4 2.2 2.8 1.1 1.4 2.3 2.8 0.8 0.9 1.5 1.9 0.7 1 1.4 2 0.7 1.1 1.3 2.1 0.6 1.1 1.2 2.2 0.4 0.7 0.7 1.5 0.3 0.9 0.4 1.7 0.2 0.9 0.2 1.7 0 0.9-0.1 1.7c-0.7 1.3-1.7 2.3-2.3 3.6-4.4 7.9-9 15.6-13.4 23.5h67.6c1.4-5 2-10 3.2-14.9 0.4-2 2.2-3.1 3.8-4 2.4-1.6 4.6-3.5 6.5-5.6 1.9-2.2 3.5-4.6 4.7-7.2 1.2-2.6 2.1-5.4 2.6-8.2 0.5-2.8 0.5-5.7 0.2-8.6q-0.3-1.4-0.6-2.8-0.4-1.3-0.8-2.7-0.5-1.4-1-2.7-0.5-1.3-1.1-2.6-1-1.7-1.9-3.4-1-1.7-2-3.4-1-1.7-2.1-3.4-1-1.6-2.1-3.3c-2.6-4-5.9-7.6-8.3-11.7-2.3-3.3-4.7-6.4-7.2-9.6q-1.2-1.6-2.4-3.3-1.2-1.6-2.3-3.4-1.2-1.7-2.2-3.4-1-1.8-2-3.6-0.8-1.8-1.7-3.5-1-1.7-2.1-3.4-1.1-1.6-2.3-3.1-1.3-1.5-2.6-3-0.3-0.3-0.6-0.6-0.3-0.4-0.5-0.7-0.3-0.4-0.5-0.8-0.2-0.4-0.3-0.8c-0.8-3.7-1.5-7.3-2.5-10.8-0.9-3.6-3.6-6.1-5.3-9.3q-0.4-0.5-0.7-1.1-0.4-0.6-0.6-1.2-0.3-0.6-0.5-1.2-0.2-0.6-0.3-1.3 0.2-1.5 0.4-3 0.3-1.4 0.6-2.9 0.2-1.5 0.6-3 0.3-1.5 0.7-2.9 0.3-2.8 0.5-5.6 0.1-2.8 0.1-5.5 0-2.8-0.1-5.6-0.2-2.8-0.5-5.6-0.1-0.8-0.1-1.6-0.1-0.9 0-1.7 0-0.9 0.2-1.7 0.1-0.8 0.3-1.6c1.3-3.7 3-7.2 4.5-10.8q0.6-1.5 1.2-3.1 0.5-1.5 1-3 0.5-1.6 0.9-3.1 0.4-1.6 0.8-3.2 0.6-2.4 1-4.9 0.4-2.4 0.5-4.9 0.2-2.5 0-5-0.1-2.5-0.4-4.9-0.2-1.2-0.6-2.4-0.5-1.1-1.2-2.1-0.7-1.1-1.6-1.9-0.9-0.8-2-1.3-0.7-0.1-1.4 0-0.8 0.1-1.4 0.4-0.7 0.3-1.2 0.8-0.6 0.4-1 1-0.6 0.9-1.1 1.9-0.5 1-0.9 2-0.3 1.1-0.5 2.1-0.2 1.1-0.3 2.2c-3 12.8-8.1 24.8-12.2 37.2-1.1 3.6-1.8 7.3-3.2 10.8q-0.9 2.7-1.6 5.4-0.7 2.7-1.2 5.5-0.6 2.8-1 5.6-0.4 2.8-0.6 5.6-0.2 1.3-0.4 2.6-0.1 1.2-0.2 2.5-0.2 1.3-0.2 2.6-0.1 1.3-0.1 2.6c0 2.9 0.8 5.8 1 8.7q-0.2 0.3-0.6 0.4-0.4 0.2-0.7 0.1-0.4 0-0.7-0.3-0.3-0.2-0.5-0.5-0.9-2.9-1.4-5.8-0.5-2.9-0.7-5.9-0.3-3-0.1-5.9 0.1-3 0.6-6 0.5-3.2 1-6.4 0.6-3.2 1.3-6.3 0.8-3.2 1.6-6.3 0.8-3.2 1.8-6.3c1.6-3.6 2.8-7.3 4.2-10.7 1.8-7.4 4.8-14.4 7.1-21.6q0.5-1.2 0.9-2.4 0.4-1.2 0.7-2.4 0.3-1.2 0.5-2.4 0.2-1.2 0.4-2.5 0.2-1.5 0.4-3 0.3-1.5 0.6-3 0.3-1.5 0.6-3 0.4-1.4 0.8-2.9 0.1-0.5 0.2-0.9 0.2-0.4 0.5-0.8 0.2-0.4 0.6-0.7 0.3-0.3 0.7-0.5c1.4 0 3.5 0.6 4.1-1.1q0.1-0.9 0.2-1.9 0-1-0.1-1.9-0.1-1-0.2-1.9-0.2-1-0.5-1.9-0.7-1.6-1.8-3.1-1-1.5-2.3-2.7-1.4-1.2-2.9-2.2-1.5-0.9-3.2-1.6c-1.3-0.4-3.7-0.7-4 1.2-0.4 3.3-1.3 6.5-1.4 9.7q-0.1 1.4-0.2 2.8-0.2 1.3-0.4 2.7-0.2 1.3-0.5 2.7-0.3 1.3-0.6 2.6c-4.1 15.2-12.6 28.8-18.1 43.5q-0.6 1.4-1.2 2.9-0.6 1.4-1.2 2.9-0.5 1.5-1 3-0.5 1.5-1 3-0.8 2.1-1.5 4.3-0.7 2.2-1.3 4.4-0.6 2.2-1 4.5-0.4 2.2-0.7 4.5c-0.3 4.4 0 8.9-0.3 13.2 0 5.4 2.3 10.8 0.3 16.2-1.7 0-2.1-1.6-2.5-3q-0.8-2.9-1.3-5.9-0.5-3-0.7-6.1-0.3-3-0.2-6 0-3.1 0.3-6.1 0.5-3.6 1.2-7.2 0.7-3.6 1.6-7.2 0.8-3.5 1.8-7 1-3.5 2.2-7 0.3-0.5 0.6-1 0.2-0.5 0.5-1 0.3-0.5 0.5-1 0.3-0.6 0.5-1.1c1.5-4 3.3-7.9 5-11.9q0.5-1.5 1.1-2.9 0.6-1.4 1.2-2.8 0.7-1.4 1.5-2.8 0.7-1.4 1.6-2.7 1.6-3.3 3.1-6.7 1.4-3.5 2.6-7 1.1-3.5 2-7.2 0.9-3.6 1.6-7.2c0.3-2 0.1-4-0.5-5.9-0.6-1.9-1.6-3.6-2.9-5.1-1.4-1.4-3.1-2.5-4.9-3.2-1.9-0.7-3.9-1-5.8-0.8q-0.4 0.1-0.7 0.4-0.2 0.3-0.4 0.6-0.2 0.3-0.3 0.7 0 0.4 0 0.8zm179.4-1.8q-1.2 0.6-2.3 1.4-1.1 0.8-2.1 1.7-0.9 1-1.7 2.1-0.8 1.2-1.3 2.4-0.4 1.1-0.6 2.3-0.3 1.1-0.3 2.3 0 1.2 0.3 2.3 0.2 1.2 0.6 2.3c0.9 4.4 2.2 8.6 3.1 13q0.6 1.8 1.3 3.6 0.7 1.8 1.4 3.6 0.8 1.8 1.7 3.5 0.8 1.7 1.8 3.4 1.1 1.9 2.2 3.9 1 2 2 4 1 2.1 1.9 4.1 1 2.1 1.8 4.2 1.7 3.9 3.3 8 1.5 4.1 2.7 8.3 1.3 4.1 2.3 8.3 1 4.3 1.8 8.5 0.6 3.8 0.8 7.6 0.2 3.8 0 7.6-0.3 3.8-0.9 7.5-0.7 3.8-1.8 7.4c0 1-1 1.5-1.6 2q-0.5-1-0.9-2.2-0.3-1.1-0.4-2.3-0.1-1.1 0-2.3 0.1-1.2 0.4-2.3 0.3-2.5 0.4-5 0.2-2.4 0.3-4.9 0-2.5 0-5-0.1-2.5-0.2-4.9-0.8-4.9-1.9-9.6-1-4.8-2.5-9.5-1.4-4.6-3.2-9.2-1.8-4.5-4-8.9c-2-4-3.7-8.2-5.4-12.2-2.4-5.1-4.1-10.5-6.3-15.6q-1.2-2.5-2.1-5-0.9-2.6-1.5-5.2-0.7-2.6-1.2-5.3-0.4-2.7-0.6-5.4c0-3-1.1-5.9-1.2-9 0-1.1-1.6-1.2-2.5-1q-1.3 0.3-2.5 0.8-1.2 0.5-2.3 1.2-1.2 0.7-2.2 1.5-1 0.9-1.8 1.9-1.1 1.1-1.9 2.4-0.8 1.4-1.3 2.9-0.4 1.5-0.5 3.1-0.2 1.5 0.1 3.1c0.6 1.8 3 1.5 4.5 1.5q0.4 0.3 0.8 0.6 0.4 0.4 0.7 0.9 0.3 0.4 0.5 0.9 0.2 0.5 0.3 1.1 0 0.8 0.1 1.7 0.1 0.9 0.3 1.8 0.1 0.8 0.3 1.7 0.1 0.9 0.4 1.7c1.1 3.8 0.8 7.9 2.2 11.6 3.7 10.3 7.2 20.7 10.8 31q0.6 1.4 1.2 2.8 0.5 1.5 0.9 3 0.5 1.4 0.8 3 0.4 1.5 0.6 3 0.8 3 1.5 6 0.6 3 1.2 6.1 0.5 3.1 0.9 6.1 0.4 3.1 0.7 6.2 0.1 1.6 0 3.1 0 1.6-0.2 3.2-0.1 1.6-0.4 3.1-0.2 1.6-0.6 3.1c-0.4 1.8-0.3 4.3-2.3 5.1l-1.2-0.6c0-2.9 0.6-5.8 0.6-8.7q0-4.2-0.3-8.3-0.3-4.2-0.9-8.3-0.7-4.2-1.6-8.2-1-4.1-2.2-8.1c-2.9-9.2-5.9-18.5-9.5-27.5-1.2-3.1-2.1-6.3-3.1-9.5-0.7-4.7-2.8-9.1-3.4-13.8q-0.1-1.4-0.7-2.7-0.5-1.2-1.5-2.2-1-1-2.2-1.6-1.2-0.6-2.6-0.8-1 0.4-1.9 1-0.9 0.6-1.6 1.4-0.7 0.8-1.2 1.8-0.4 0.9-0.7 2-0.5 1.8-0.8 3.7-0.2 1.9-0.3 3.8-0.1 2 0.1 3.9 0.2 1.9 0.6 3.7 0.3 2.4 0.7 4.8 0.5 2.3 1 4.7 0.6 2.3 1.3 4.6 0.7 2.3 1.5 4.6c1.5 3.8 3.5 7.5 4.9 11.3q0.2 0.4 0.2 0.8 0.1 0.3 0.2 0.7 0 0.4 0 0.7 0 0.4 0 0.8-0.3 1.9-0.4 3.8-0.2 1.8-0.3 3.7-0.1 1.9-0.2 3.8 0 1.9 0 3.8 0 2 0.1 4 0 1.9 0.3 3.9 0.3 1.9 0.7 3.9 0.4 1.9 0.9 3.8 0.4 0.9 0.6 1.8 0.2 1 0.3 1.9 0.2 1 0.2 1.9 0 1-0.1 1.9c-1.7 4.7-5.4 8.4-7.2 12.9-0.7 2.5-1.1 5-1.6 7.5q0 0.7-0.2 1.4-0.1 0.7-0.3 1.4-0.3 0.7-0.6 1.3-0.3 0.7-0.7 1.3-0.8 0.9-1.6 1.9-0.8 1-1.6 2-0.8 1-1.5 2-0.8 1-1.5 2c-2.9 4.7-5.4 9.5-8.4 14.2-1.8 3.2-4.5 5.7-6.3 8.8-3.8 5.1-7.4 10.3-11.3 15.3q-0.9 1.2-1.8 2.5-0.9 1.3-1.6 2.7-0.8 1.3-1.5 2.7-0.7 1.4-1.4 2.8-1 1.8-2 3.6-0.9 1.8-1.7 3.7-0.8 1.9-1.5 3.8-0.7 2-1.2 3.9-0.7 3.1-0.7 6.3 0.1 3.1 0.7 6.2 0.7 3 2.1 5.9 1.3 2.8 3.3 5.3 0.6 0.9 1.3 1.8 0.6 0.9 1.4 1.7 0.7 0.8 1.6 1.6 0.8 0.7 1.6 1.4c2.1 1.5 5 2.4 5.9 5.1 1.1 5 2.3 10.1 3.5 15.1h67.8c-3-5.4-6.4-10.8-9.4-16.2q-0.6-1.2-1.2-2.4-0.7-1.3-1.3-2.5-0.7-1.2-1.4-2.4-0.7-1.1-1.5-2.3c-2-2.2-0.8-5.4 0-7.8q0.7-1.3 1.4-2.7 0.8-1.3 1.6-2.5 0.9-1.3 1.8-2.5 0.9-1.2 1.9-2.4c4.7-5.8 8.5-12.4 12.8-18.5 3.3-6.2 7-12.1 10.8-18 7-12.2 14.1-24.4 21.5-36.5q0.8-1.4 1.5-3 0.6-1.5 1-3.1 0.5-1.7 0.7-3.3 0.3-1.7 0.4-3.3c0.5-4.2 0.4-8.5 0.6-12.7 0.6-12.4 0-24.9 0-37.3 0-2.5-0.3-5.1-0.5-7.6q-0.4-2.6-1-5.2-0.5-2.6-1.3-5.2-0.7-2.6-1.7-5.1-0.9-2.5-2-4.9c-4.1-10.8-8.9-21.6-12.9-32.4-0.9-3.7-1.5-7.5-2.4-11.2-0.7-2.5 0.6-5.4-0.8-7.6q-0.3-0.3-0.7-0.6-0.4-0.2-0.8-0.3-0.4 0-0.9 0-0.4 0.1-0.8 0.3-1.5 0.4-2.9 1.3-1.3 0.8-2.5 1.9-1.1 1.1-1.8 2.5-0.8 1.4-1.2 3 0.1 1.8 0.3 3.6 0.3 1.8 0.8 3.5 0.4 1.8 1.1 3.5 0.6 1.7 1.4 3.3c2.1 5.1 3.8 10.4 6.2 15.3 2.3 5 4.2 10.8 6.1 16.7 0.7 3.3 2.3 6.3 3.3 9.6q1.2 3.9 2 7.9 0.8 4 1.1 8.1 0.4 4.1 0.3 8.2-0.1 4.1-0.6 8.1c-0.5 4.6-0.9 9.2-1.5 13.8-0.7 1.1-1.8 0-2.2-1q-0.1-1.2-0.2-2.5-0.1-1.3-0.1-2.5 0-1.3 0.1-2.6 0.1-1.2 0.2-2.5 0.1-2.5 0.1-5.1 0-2.5-0.1-5.1-0.1-2.6-0.2-5.1-0.2-2.6-0.4-5.1c-0.6-4.2-1.2-8.4-1.9-12.5-0.7-4.1-3.2-6.7-4.2-10.3q-1.2-3.6-2.5-7.2-1.3-3.5-2.8-7-1.4-3.5-3-6.9-1.5-3.5-3.2-6.9-1.7-3.5-3-7.2-1.3-3.7-2.1-7.5-0.9-3.8-1.3-7.7-0.5-3.8-0.5-7.7c0.3-1.7 1.1-4-0.8-5.1q-0.8-0.1-1.6-0.2-0.8 0-1.6 0-0.8 0.1-1.5 0.3-0.8 0.2-1.6 0.5zm-91.6 16q-0.3 2.3-0.8 4.5-0.4 2.2-0.9 4.4-0.6 2.2-1.3 4.4-0.6 2.1-1.4 4.2-0.8 2-1.6 3.8-0.7 1.9-1.6 3.8-0.9 1.8-1.8 3.7-0.9 1.8-1.9 3.6-0.8 1.2-1.4 2.5-0.7 1.2-1.3 2.5-0.6 1.3-1.2 2.6-0.6 1.3-1.1 2.6-0.7 2.2-1 4.4-0.3 2.3-0.2 4.5 0.2 2.3 0.8 4.5 0.6 2.1 1.6 4.2 0.8 1.6 1.6 3.2 0.8 1.6 1.7 3.2 0.9 1.6 1.9 3.1 0.9 1.6 2 3.1c-2.3 0-4.4 0.5-6.6 0.9q-3.4 0.4-6.7 1.2-3.3 0.8-6.6 1.9-3.2 1.1-6.3 2.5-3.1 1.5-6 3.2c-2.8 2.1-6.1 4.7-6.1 8.5q0.2 2.6 0.8 5.2 0.6 2.5 1.6 5 1 2.4 2.3 4.7 1.3 2.3 2.9 4.3 1 1.5 2 3 1.1 1.4 2.2 2.7 1.2 1.4 2.4 2.7 1.3 1.2 2.6 2.4 1.6 1.4 3.2 2.8 1.7 1.3 3.4 2.5 1.7 1.3 3.5 2.4 1.8 1.2 3.6 2.2 1.9 1 3.9 1.8 2 0.9 4 1.6 2 0.6 4.1 1.1 2.1 0.6 4.2 0.9 3.9 0.4 7.8 0.1 3.9-0.3 7.7-1.2 3.8-1 7.4-2.5 3.5-1.6 6.8-3.8 1.4-0.9 2.8-1.9 1.4-1 2.8-2.1 1.3-1.1 2.6-2.3 1.3-1.1 2.6-2.3 1.8-1.6 3.4-3.4 1.7-1.8 3.1-3.7 1.5-1.9 2.8-4 1.3-2 2.4-4.2 1-1.5 1.8-3.2 0.8-1.7 1.4-3.4 0.5-1.8 0.9-3.6 0.4-1.8 0.5-3.6 0-1.1-0.3-2.1-0.2-1-0.7-2-0.5-0.9-1.2-1.7-0.7-0.8-1.5-1.4-1.1-1-2.3-1.9-1.1-0.9-2.4-1.6-1.2-0.8-2.5-1.4-1.4-0.6-2.7-1.1-4.3-1.5-8.7-2.6-4.4-1.2-8.9-1.9-4.4-0.8-9-1.1-4.5-0.4-9-0.3c1.9-5.4 3.6-10.8 5.4-16.2q0.4-1.4 0.7-2.7 0.3-1.4 0.4-2.8 0.2-1.4 0.3-2.8 0.1-1.4 0.1-2.8-0.3-4-1.1-7.8-0.7-3.9-1.8-7.7-1.2-3.8-2.7-7.4-1.6-3.6-3.5-7.1c-2-4.9-4.4-9.7-5.9-14.8zm124.5 257.3q-3.9 2.5-7.8 4.9-4 2.4-8.1 4.7-4 2.2-8.1 4.4-4.1 2.1-8.3 4.2c-3.2 0.9-6.1 2.6-9.2 3.7-3.1 1.2-6.3 2.7-9.6 3.9q-6.5 2.1-13.2 3.9-6.7 1.7-13.4 3-6.8 1.3-13.6 2.1-6.8 0.9-13.7 1.4c-7.5 0.7-15.1 0.9-22.6 1.4 0 1.4 0 2.8 0.3 4.3 3.9 0 7.8-0.5 11.6-0.4v3.1q-1.1 0-2.2 0.2-1.1 0.1-2.3 0.3-1.1 0.3-2.1 0.6-1.1 0.4-2.1 0.9-1.3 0.6-2.4 1.6-1 1-1.8 2.2-0.8 1.2-1.2 2.6-0.4 1.4-0.5 2.8 0.1 1.6 0.7 3 0.5 1.5 1.5 2.8 0.9 1.3 2.1 2.2 1.3 1 2.7 1.6 1.2 0.5 2.4 0.7 1.3 0.2 2.5 0.2 1.3 0 2.5-0.2 1.2-0.2 2.4-0.7c0 1.8 0 3.6 0.4 5.4 2.2 0 4.5-0.3 6.8-0.4-1-9.9-1-19.8-2-29.6 5.4-0.6 11.2-1 16.8-1.8l0.8 2.6q-0.9 0.1-1.9 0.2-1 0.1-1.9 0.3-1 0.2-2 0.3-0.9 0.2-1.9 0.5-0.9 0.4-1.7 1-0.8 0.6-1.4 1.5-0.7 0.8-1.1 1.7-0.4 1-0.5 2c0 2.8 2 4.9 3.7 7.1q-1 1.4-1.5 3.1-0.5 1.7-0.5 3.4 0 1.8 0.5 3.5 0.5 1.6 1.5 3.1 1.1 1 2.3 1.8 1.3 0.9 2.7 1.5 1.3 0.6 2.8 1 1.4 0.5 2.9 0.7c0-1.7 0.6-3.3 1-5-2.6-0.7-5.4-1.8-6.4-4.5q-0.1-1.1 0.1-2.3 0.2-1.1 0.8-2 0.5-1 1.4-1.7 0.8-0.8 1.8-1.2 0.8-0.5 1.7-0.6 0.9 0 1.7 0.3 0.9 0.3 1.5 1 0.6 0.6 0.9 1.5-0.1 0.6-0.2 1.2-0.2 0.6-0.4 1.1-0.2 0.6-0.5 1.1-0.3 0.5-0.7 1c1.2 1.2 2.4 2.5 3.5 3.7q1.1-0.6 2.1-1.5 0.9-0.9 1.6-2 0.7-1.2 1-2.4 0.3-1.3 0.3-2.6 0-0.9-0.2-1.8-0.2-0.9-0.6-1.7-0.5-0.9-1.1-1.5-0.6-0.7-1.4-1.1-0.7-0.6-1.3-1-0.7-0.4-1.5-0.8-0.7-0.3-1.5-0.6-0.8-0.2-1.6-0.3c-2.8-0.5-5.4 1.8-8.1 0.6 0.4-0.8 0.9-1.8 1.9-2 3.2-0.7 6.5-1.5 9.7-2.1-0.3-2.9-0.8-5.8-1.3-8.8l4.5-0.8c2.4 9.7 5.4 19.2 7.6 28.9l6.9-1.3c-2.3-9.6-5.4-19.2-7.1-28.9 1.9 0 3.9-0.6 5.8-1.1 1.4 3.7 2.6 7.4 4 10.8-1.3 1-3.1 1.5-3.4 3.2q-0.2 0.5-0.1 1.1 0 0.5 0.3 1 0.2 0.5 0.6 0.9 0.4 0.4 0.9 0.6 1 0.6 1.9 1.1 1 0.5 2 0.9 1 0.4 2 0.8 1 0.3 2.1 0.6c1.9-0.5 2.2-2.8 2.6-4.5l4.3-1.7c-1.5-2.2-2.9-4.4-4.5-6.6l-2.3 0.9c-1-3.7-2.3-7.4-3.4-11.1 2.4-0.7 4.8-1.3 7.2-2.2q0.6 0.2 1.2 0.5 0.6 0.4 1.1 0.8 0.5 0.5 0.8 1.1 0.4 0.5 0.7 1.1 0.1 0.8-0.1 1.6-0.1 0.7-0.5 1.4-0.4 0.6-1 1.1-0.6 0.5-1.4 0.7c-1.2 0-1.9 1.4-2.6 2.4q0.8 1.3 1.7 2.4 1 1.2 2.1 2.3 1.1 1 2.4 1.8 1.2 0.9 2.6 1.6 0.7 0.2 1.4 0.4 0.7 0.1 1.5 0.3 0.7 0.1 1.5 0.2 0.7 0.1 1.4 0.1 1.5 0.2 3 0 1.5-0.3 2.9-0.9 1.4-0.6 2.6-1.6 1.1-1 2-2.2c1.3 2.4 2.4 4.9 3.9 7.2q0.7-0.2 1.5-0.5 0.7-0.3 1.4-0.6 0.7-0.3 1.5-0.6 0.7-0.3 1.4-0.7-0.6-1.6-1.3-3.2-0.6-1.6-1.3-3.1-0.7-1.6-1.4-3.1-0.7-1.5-1.4-3.1c-2.3-4.8-4.6-10.2-6.9-15.6 3.5-1.4 6.7-3.3 10.2-4.7 1.4-0.5 2.6-1.4 3.9-2.1q0.1 0.2 0.2 0.4 0.1 0.2 0.2 0.3 0.1 0.2 0.3 0.4 0.1 0.1 0.2 0.3-0.9 0.5-1.7 1.1-0.9 0.6-1.7 1.2-0.8 0.6-1.6 1.3-0.8 0.6-1.5 1.4-0.6 0.7-1 1.5-0.3 0.9-0.5 1.8-0.2 0.9-0.1 1.8 0 1 0.3 1.9 0.5 0.8 1 1.6 0.6 0.8 1.3 1.5 0.7 0.6 1.5 1.2 0.7 0.6 1.6 1.1-0.2 1.4-0.2 2.8 0.1 1.5 0.5 2.9 0.4 1.4 1 2.6 0.7 1.3 1.6 2.5 1.4 1 3.1 1.7 1.6 0.7 3.4 1 1.7 0.3 3.5 0.2 1.8-0.1 3.5-0.7-0.1-0.7-0.2-1.3-0.1-0.7-0.3-1.4-0.1-0.7-0.3-1.3-0.1-0.7-0.3-1.4-0.7 0.3-1.3 0.4-0.7 0.1-1.4 0.1-0.7 0-1.4-0.1-0.7-0.1-1.3-0.4-0.8-0.4-1.4-1.1-0.6-0.6-1-1.4-0.3-0.8-0.4-1.7-0.1-0.9 0.1-1.8 0.2-0.7 0.6-1.4 0.3-0.7 0.8-1.3 0.5-0.6 1.2-1.1 0.6-0.5 1.3-0.9 0.6-0.2 1.2-0.2 0.6 0 1.2 0.1 0.6 0.2 1.1 0.5 0.5 0.4 0.9 0.9 0.2 0.5 0.3 1.1 0.1 0.6 0.1 1.1 0 0.6-0.1 1.2-0.1 0.6-0.3 1.1 1.9 1.1 4.1 2.1c1-1.3 2.4-2.7 2.2-4.5q0.1-1.1 0-2.2-0.1-1.1-0.5-2.2-0.3-1-0.9-2-0.5-0.9-1.3-1.8-0.8-0.5-1.6-1-0.8-0.4-1.7-0.7-0.9-0.3-1.9-0.5-0.9-0.2-1.8-0.3-1 0-2 0.1-0.9 0.2-1.8 0.6-1 0.3-1.8 0.8-0.8 0.5-1.5 1.2c-0.8 0.6-2.6 1.6-2.9 0-0.3-1.6 1.4-1.7 2.2-2.3l7.6-5.4q-0.5-0.9-1-1.8-0.5-0.9-1-1.9-0.5-0.9-0.9-1.8-0.5-1-0.9-1.9 0.7-0.3 1.4-0.7 0.7-0.3 1.4-0.7 0.6-0.4 1.3-0.8 0.7-0.4 1.3-0.8 0.8 1.1 1.6 2.1 0.7 1.1 1.5 2.2 0.7 1.1 1.4 2.2 0.7 1.1 1.3 2.2-0.2 0.3-0.4 0.7-0.2 0.4-0.4 0.8-0.1 0.4-0.1 0.8 0 0.4 0 0.8 0.4 0.7 0.9 1.3 0.5 0.5 1.2 0.9 0.6 0.4 1.4 0.6 0.7 0.2 1.5 0.2 0.7 0 1.4 0.1 0.7 0 1.5 0 0.7 0 1.4 0 0.7-0.1 1.4-0.1c1.7-0.9 1.7-3 1.6-4.6q0.7-0.4 1.3-0.9 0.7-0.4 1.3-0.9 0.6-0.4 1.2-0.9 0.6-0.5 1.2-1.1c2.5 3.2 5.4 6.1 7.8 9.4 1.6-1.4 3.2-2.9 4.8-4.4-6.2-7.5-11.7-15.6-17.7-23.4q1.7-1.4 3.6-2.6l-2.7-2.6c-3.9 2.9-8 5.6-12.1 8.3zm-253.3 1.5c1.4 0.8 2.6 1.7 3.9 2.5 0 2 0 4.4-2.2 5.4q-0.9 0.2-1.7 0.3-0.9 0-1.8 0-0.9 0-1.8 0-0.8-0.1-1.7-0.3-1.1 1.9-1.6 4-0.5 2-0.4 4.2 0.1 2.1 0.7 4.2 0.7 2 1.9 3.8 1.1 1 2.3 1.7 1.3 0.8 2.7 1.2 1.4 0.4 2.9 0.5 1.4 0.2 2.9-0.1c-1.7 2.5-3 5.2-4.8 7.5 1.8 1.3 3.9 2.3 5.8 3.5 5-8.4 9.8-16.8 14.8-25.1q1.9 1 3.6 2.1c-2.3 5.1-5 9.9-7.6 14.9-1.9 3.8-4.3 7.4-5.9 11.4 2.1 0.9 4 2 6 2.9 1.9-3.8 3.9-7.6 6.1-11.3 2.2-5.4 5-10 7.6-15q0.7 0.3 1.4 0.6 0.6 0.3 1.3 0.6 0.7 0.3 1.4 0.7 0.6 0.3 1.3 0.7 0.6 1.4 0.9 2.8 0.2 1.5 0.1 3-0.2 1.5-0.7 2.9-0.6 1.3-1.5 2.5-0.4-0.7-1.1-1.3-0.7-0.5-1.5-0.8-0.9-0.2-1.8-0.2-0.8 0-1.7 0.4-0.6 0.3-1.1 0.8-0.5 0.5-0.8 1.1-0.4 0.6-0.5 1.3-0.1 0.7 0 1.4 0.1 1.1 0.4 2.1 0.4 1 1 1.9 0.7 0.9 1.6 1.6 0.8 0.6 1.9 1 1 0.1 2-0.1 1.1-0.1 2-0.5 1-0.5 1.8-1.1 0.8-0.6 1.5-1.5 1.1-1.5 2-3.2 0.9-1.7 1.5-3.5 0.7-1.8 1-3.7 0.3-1.9 0.3-3.9l4.3 1.8c-2.3 6.5-5.4 12.7-7.1 19.4-1.1 2.7-2 5.4-3.2 8 2.2 0.8 4.2 1.7 6.3 2.6 3.4-9.1 6.7-18.3 10.1-27.4l2.5 0.8c0.7-1.5 1.2-3.1 1.8-4.7-8.7-3.4-17.4-6.9-25.9-10.8-0.8-3.3-1.4-6.5-2.2-9.7l-6.1-3c0.6 3.2 1.2 6.4 1.8 9.7-3.1-2.1-6.4-3.8-9.5-5.8-3.1-1.9-5.8-3.6-8.9-5.4q-0.6-0.4-1.1-0.9-0.6-0.4-1.2-0.8-0.6-0.5-1.2-0.9-0.5-0.4-1.2-0.8-1.6 2-3.4 3.8zm287.4 19c-2 1.3-4 2.6-6 3.7-1.2 0.6-0.6 2.1-0.5 3.1q0.4 0.1 0.9 0.1 0.4-0.1 0.8-0.2 0.5 0 0.9-0.2 0.4-0.2 0.8-0.4c2-1.5 3.6-3.4 5.4-5q0-0.4-0.3-0.7-0.2-0.3-0.6-0.5-0.3-0.2-0.7-0.2-0.4 0.1-0.8 0.3zm-211.6 3.2q0.3 0.1 0.6 0.2-0.1-0.1-0.1-0.3zm1.4 1.9q0.5 1 1 1.9 0.5 0.9 1 1.9 0.5 0.9 1.1 1.8l-2.5-0.6q-0.3 0.6-0.5 1.3-0.1 0.7-0.3 1.3-0.1 0.7-0.2 1.4-0.1 0.7-0.1 1.4h1.8c0 1.4-0.5 2.8-0.8 4.1l-6.2-1.1q0.4-0.4 0.8-0.8 0.4-0.5 0.8-0.9 0.3-0.5 0.7-0.9 0.3-0.5 0.6-1 0.4-1.3 0.5-2.6 0-1.3-0.4-2.6-0.4-1.2-1.2-2.3-0.8-1.1-1.9-1.8c-1.1-0.6-2.2-1.1-3.4-1.2-1.2-0.2-2.5-0.1-3.6 0.3-1.2 0.4-2.3 1-3.1 1.9-0.9 0.8-1.6 1.8-2.1 3 0 2.3-0.7 5.3 1.3 7.1q-1.1 0.4-2 1.1-1 0.6-1.8 1.4-0.9 0.7-1.6 1.6-0.7 0.9-1.3 1.9-0.6 1.1-1 2.4-0.3 1.2-0.3 2.5 0 1.3 0.3 2.5 0.4 1.2 1 2.3 0.8 1.1 1.6 2 0.9 0.9 2 1.7 1 0.8 2.1 1.4 1.2 0.6 2.4 1v3.2q0.7 0.2 1.5 0.4 0.8 0.2 1.5 0.4 0.8 0.1 1.6 0.3 0.8 0.1 1.6 0.2c0-1.7 0-3.3 0-5 0-1.6 2.8-2.8 3.8-4.5-1.2-1.2-2.2-2.6-3.3-3.9-2.1 0.7-4.2 2.2-6.5 1.3q-0.5-0.1-0.9-0.4-0.5-0.2-0.8-0.5-0.4-0.4-0.7-0.8-0.3-0.4-0.5-0.8c0-0.9 0.2-1.7 0.5-2.5 0.4-0.7 0.9-1.4 1.6-1.9 0.6-0.6 1.4-0.9 2.2-1.1 0.9-0.2 1.7-0.1 2.5 0.1 3.4 1.2 6.8 2.1 10.2 3.1-1.2 6.3-2.7 12.6-3.9 18.9q3.4 0.6 6.7 1.3c2-9.6 4.2-19.3 6.1-28.9q0.8 0.2 1.6 0.3 0.8 0.2 1.6 0.3 0.8 0.1 1.7 0.3 0.8 0.1 1.6 0.2c-0.4 3.4-0.8 6.8-1.3 10.3q-0.8-0.2-1.6 0.1-0.9 0.2-1.5 0.8-0.7 0.6-1 1.4-0.3 0.8-0.3 1.6 0.3 1 0.7 1.9 0.4 1 1 1.8 0.5 0.9 1.2 1.6 0.7 0.8 1.4 1.4c0.9 0.9 1.8 2 3.1 2.2q0.6-0.3 1.1-0.8 0.5-0.4 0.9-1 0.4-0.6 0.6-1.2 0.3-0.6 0.4-1.3 0.9 0.1 1.7 0.2 0.9 0.1 1.8 0.2 0.8 0.1 1.7 0.2 0.8 0.2 1.7 0.4c0 3.6-0.4 7.2-0.5 10.7 2.1 0.4 4.3 0.7 6.5 0.9 1-9.4 1.8-18.9 2.4-28.4h2.5q0.1-0.7 0.2-1.4 0.1-0.6 0.2-1.3 0-0.7 0.1-1.4 0-0.6 0-1.3-3.5-0.1-6.9-0.3-3.5-0.3-6.9-0.8-3.4-0.4-6.8-1.1-3.4-0.7-6.8-1.6c-1.6-2.4-2.8-4.9-4.4-7.3-2.1-0.5-4.3-1-6.4-1.6q0.4 0.9 0.8 1.7zm29.8 0.9c-0.8 0.6-1.3 1.5-1.2 2.5 0.1 1 0.7 1.9 1.6 2.4 0.9 0.4 1.9 0.4 2.8-0.1 0.8-0.6 1.3-1.5 1.3-2.5 0-0.5-0.1-1-0.4-1.5-0.2-0.4-0.6-0.8-1.1-1q-0.7-0.4-1.5-0.3c-0.5 0.1-1 0.3-1.4 0.6z"/>
		<path id="Layer" class="s1" d="m1312.9 74.3q5.6-2.9 11.5-5.1 6-2.2 12.1-3.8 6.1-1.6 12.4-2.4 6.2-0.9 12.5-1.1 6.2-0.4 12.4-0.4 6.2 0 12.4 0.4 6.2 0.4 12.3 1.2 6.2 0.8 12.3 2 3.6 0.8 7.2 1.8 3.5 1 7 2.3 3.5 1.4 6.9 2.9 3.3 1.6 6.6 3.5 3.2 1.7 6.3 3.8 3.1 2 6 4.3 2.9 2.4 5.6 4.9 2.7 2.6 5.2 5.3 1.5 1.7 3 3.4 1.4 1.6 2.8 3.4 1.3 1.8 2.6 3.7 1.2 1.8 2.3 3.7 2.1 3.2 3.9 6.5 1.8 3.2 3.4 6.6 1.6 3.4 3 6.9 1.4 3.5 2.6 7c1.4 6.2 3.5 12.3 4.8 18.6q1.4 7 2.4 14.1 1 7.1 1.7 14.2 0.7 7.2 1 14.3 0.3 7.2 0.3 14.4-25.8 0-51.5 0c-8 0-16.2 0-23.9 0q0.1-5.7-0.1-11.4-0.2-5.7-0.7-11.4-0.4-5.7-1.2-11.4-0.7-5.6-1.7-11.2-0.4-2-0.8-4-0.4-1.9-0.9-3.8-0.6-1.9-1.2-3.8-0.7-1.9-1.4-3.8-1.2-2.9-2.8-5.6-1.7-2.6-3.8-4.9-2.2-2.3-4.7-4.2-2.6-1.8-5.4-3.1-2.5-1-5.1-1.6-2.6-0.7-5.2-1-2.7-0.3-5.4-0.3-2.6 0-5.3 0.3-4.4 0.2-8.6 1.2-4.3 1.1-8.2 2.9-4 1.8-7.6 4.3-3.6 2.5-6.6 5.6-2.1 2.1-4 4.4-1.9 2.3-3.5 4.7-1.6 2.5-3 5.1-1.4 2.7-2.4 5.4-0.4 0.7-0.6 1.4-0.3 0.8-0.6 1.5-0.2 0.7-0.4 1.5-0.3 0.7-0.4 1.5-1.9 6-3.2 12.2-1.4 6.2-2.3 12.5-0.9 6.2-1.3 12.5-0.5 6.4-0.4 12.7 0 52.9 0 105.8v50.2q0 6.1 0.5 12.1 0.4 6.1 1.4 12.1 0.9 6 2.2 12 1.4 5.9 3.2 11.7 0.6 2.1 1.4 4.1 0.8 2.1 1.8 4.1 0.9 1.9 2 3.8 1.1 1.9 2.4 3.7 1.3 1.7 2.7 3.3 1.5 1.6 3 3.1 1.5 1.5 3.1 3 1.7 1.4 3.4 2.7 2 1.4 4.1 2.6 2.1 1.1 4.4 2.1 2.2 0.9 4.6 1.6 2.3 0.7 4.7 1.2 3.7 0.9 7.4 1.3 3.8 0.3 7.6 0.1 3.7-0.2 7.4-1 3.7-0.8 7.3-2.1 3.2-1.9 6-4.3 2.9-2.5 5.3-5.3 2.4-2.9 4.2-6.2 1.8-3.3 3.1-6.8 0.3-0.7 0.6-1.5 0.2-0.8 0.5-1.6 0.2-0.8 0.4-1.6 0.2-0.7 0.4-1.6 1.4-5.3 2.5-10.8 1.1-5.5 1.9-11 0.7-5.5 1.2-11.1 0.5-5.5 0.7-11.1c0.5-7.8 0.6-15.7 0.6-23.6h73.3q0.2 10-0.3 19.9-0.6 9.9-1.8 19.8-1.2 9.9-3 19.7-1.9 9.8-4.4 19.4c-1.2 3.5-1.8 7.2-3.1 10.8q-1.4 4.1-3 8.1-1.7 4-3.5 8-1.8 3.9-3.9 7.7-2.1 3.8-4.3 7.5-2.1 3.4-4.3 6.8-2.3 3.3-4.7 6.4-2.5 3.2-5.2 6.1-2.6 3-5.5 5.8-1.1 1-2.3 2-1.2 1-2.4 2-1.2 0.9-2.4 1.8-1.2 0.9-2.5 1.8-5.7 3.5-11.8 6.2-6.1 2.7-12.6 4.4-6.4 1.8-13 2.7-6.7 0.8-13.4 0.7c-7.1 0.3-14.3 0-21.5 0q-2.7 0-5.4-0.2-2.8-0.1-5.4-0.3-2.7-0.3-5.4-0.7-2.7-0.3-5.4-0.8-5.2-0.7-10.3-2-5.1-1.2-10.1-3-4.9-1.8-9.7-4-4.8-2.3-9.3-5-1.5-0.9-3-1.9-1.6-1-3-2.2-1.5-1.1-2.9-2.2-1.3-1.2-2.6-2.5-2.4-2.2-4.7-4.4-2.3-2.3-4.4-4.7-2.2-2.4-4.2-4.9-2-2.5-3.9-5c-1.2-1.9-2.4-3.8-3.6-5.4q-2-3.3-3.8-6.6-1.8-3.3-3.5-6.7-1.6-3.5-3-7-1.5-3.5-2.7-7.1c-1.4-3.6-1.9-7.4-3.2-10.8q-1.7-6.3-3.1-12.7-1.5-6.4-2.6-12.9-1.1-6.4-2-12.9-0.8-6.5-1.3-13.1c-2.1-21.5-2-43.1-1.9-64.7 0-27 0-54.4 0-81.6q-0.1-10.7 0.5-21.5 0.5-10.8 1.7-21.5 1.2-10.7 2.9-21.4 1.8-10.6 4.1-21.1 0.7-3 1.5-6 0.8-2.9 1.6-5.9 0.9-2.9 1.9-5.8 1-2.9 2.1-5.8 1-2.7 2.2-5.3 1.1-2.6 2.4-5.2 1.3-2.6 2.7-5.1 1.4-2.5 2.9-4.9c2.2-2.9 3.8-6.2 6.1-9q1.1-1.3 2.1-2.5 1-1.3 2.1-2.5 1.1-1.2 2.2-2.3 1.2-1.2 2.3-2.3c2.3-2.3 4.6-4.5 6.8-6.8q1.2-1.1 2.4-2.2 1.3-1 2.6-2 1.3-1 2.6-2 1.3-1 2.7-1.9c2.2-2.3 4.9-3.3 7.3-4.9z"/>
		<path id="Layer" class="s1" d="m746.4 71.4h73.5q0 179.2 0 358.3v22.9h154v65.4h-227.4v-362.1c-0.1-28.2 0-56.3-0.1-84.5z"/>
		<path id="Layer" class="s1" d="m1073.6 71.1h73.7q0 223.4 0 446.6h-73.7z"/>
		<path id="Layer" class="s1" d="m307.6 234.6q0-1.6 0.1-3.2 0.1-1.5 0.4-3.1 0.2-1.5 0.6-3.1 0.3-1.5 0.8-3 3.8 0 7.7 0.3 3.9 0.2 7.7 0.8 3.8 0.6 7.6 1.4 3.8 0.9 7.5 2 1.7 0.4 3.4 1 1.7 0.7 3.4 1.4 1.6 0.8 3.1 1.8 1.6 1 3 2.1 0.4 0.3 0.6 0.7 0.3 0.5 0.4 1 0 0.5-0.1 1-0.1 0.5-0.3 0.9-0.7 0.8-1.5 1.4-0.8 0.7-1.7 1.3-0.9 0.5-1.9 0.9-0.9 0.5-1.9 0.7-3.6 1.4-7.4 2.2-3.7 0.8-7.5 1.1-3.9 0.2-7.7-0.1-3.8-0.3-7.5-1.2-1.6-0.3-3-1-1.5-0.7-2.6-1.8-1.2-1.2-2-2.6-0.8-1.3-1.2-2.9z"/>
		<path id="Layer" class="s1" d="m278.1 225.4q2.3-0.6 4.5-1.1 2.2-0.5 4.5-0.9 2.2-0.4 4.5-0.7 2.3-0.3 4.6-0.5 0.8 0.9 1.5 1.8 0.8 1 1.4 2 0.7 1 1.3 2.1 0.6 1 1.1 2.1 0.5 1.1 0.8 2.2 0.2 1.1 0.3 2.2 0.2 1.1 0.1 2.3 0 1.1-0.2 2.2-0.7 1-1.5 1.8-0.9 0.8-1.9 1.4-1 0.6-2.1 0.9-1.1 0.4-2.3 0.4-2.2 0.3-4.5 0.4-2.2 0.1-4.5 0-2.2-0.1-4.4-0.4-2.3-0.3-4.5-0.8-1.7-0.2-3.4-0.7-1.8-0.4-3.4-1-1.7-0.6-3.3-1.4-1.6-0.8-3.1-1.7c-1.1-0.8-2.3-2.1-2-3.5 0.4-1.5 2-2.8 3.3-3.7q1.5-1 3.1-1.8 1.6-0.8 3.3-1.5 1.7-0.7 3.4-1.2 1.7-0.5 3.4-0.9z"/>
		<path id="Layer" class="s1" d="m427 408.9c1.6-0.9 3.2-2 4.8-3 2.3 2.4 4.4 5.4 6.5 7.8l-4.9 4c-2-2.8-4-5.9-6.4-8.8z"/>
		<path id="Layer" class="s1" d="m183.1 412.4q0.7 0.4 1.4 0.8 0.7 0.4 1.3 0.9 0.7 0.4 1.4 0.9 0.6 0.4 1.3 0.9c-2.2 3.4-4.2 7.1-6.7 10.4q-1 0.7-2.3 0.8-1.3 0.2-2.5-0.2-1.3-0.4-2.2-1.3-0.9-0.8-1.4-2c-0.5-1 0-2 0.3-2.9 2.4 0 5.4 0 6.7-2.4q0.6-0.7 1-1.3 0.4-0.7 0.8-1.5 0.3-0.7 0.5-1.5 0.3-0.8 0.4-1.6z"/>
		<path id="Layer" class="s1" d="m384.1 432.6q0.5-0.3 1.1-0.5 0.5-0.3 1-0.5 0.5-0.2 1.1-0.4 0.5-0.1 1.1-0.3 0.4 1.3 0.9 2.6 0.6 1.3 1.1 2.5 0.6 1.3 1.2 2.5 0.5 1.2 1.2 2.4 0.2 1 0.1 1.9-0.1 1-0.4 1.9-0.4 0.9-1 1.6-0.7 0.8-1.5 1.3c-1 0.5-2.1 1.4-3.3 1q-0.6-0.2-1.1-0.4-0.6-0.3-1-0.7-0.5-0.3-0.9-0.8-0.4-0.4-0.7-0.9 0.8-0.7 1.4-1.5 0.7-0.9 1-1.9 0.4-1 0.5-2.1 0.1-1 0-2.1c-0.2-2.1-1.6-3.8-1.8-5.6z"/>
		<path id="Layer" class="s1" d="m239.1 437.6c-0.7-1.6 1.7-3.3 2.8-1.9 1.1 1.3 0 2.3 0 3.2-1.2-0.1-2.5-0.2-2.8-1.3z"/>
		<path id="Layer" class="s1" d="m272.3 444.8c2 0 3.9 0.4 5.8 0.7 0 3.2 0 6.4-0.4 9.6q-0.9 0-1.7 0-0.9 0-1.8-0.1-0.9 0-1.8-0.1-0.8-0.1-1.7-0.3c0.5-3.3 1.2-6.5 1.6-9.8z"/>
		<path id="Layer" class="s1" d="m303.8 458.4q0.8-0.9 1.8-1.4 0.9-0.6 2-0.9 1.1-0.2 2.2-0.2 1.1 0 2.2 0.3c0 2.5 0.4 5 0.5 7.4q-0.8 0.4-1.6 0.6-0.9 0.2-1.8 0.2-0.9 0-1.7-0.2-0.9-0.2-1.7-0.6-0.7-0.3-1.3-0.8-0.5-0.6-0.8-1.4-0.3-0.7-0.2-1.5 0-0.8 0.4-1.5z"/>
		<path id="Layer" fill-rule="evenodd" class="s1" d="m1303.1 612.5q2.9-0.3 5.8-0.3 2.8 0 5.7 0.3 2.8 0.2 5.7 0.6 2.8 0.5 5.6 1.2 4 1.1 7.9 2.4 3.8 1.4 7.6 3 3.8 1.7 7.5 3.5 3.7 1.9 7.2 4.1c4.2 2.6 8.8 4.6 12.9 7.6 2.5 1.8 5 3.5 7.6 5.4 1.2 1 2.9 0.5 4.5 0.7q106.7 0 213.3 0 0 4.3 0 8.7h-13.6v60.8h-13.1q0-16.1 0-32.3-14.8 0-29.8 0v9.1q-0.7 1-1.7 1.7-1 0.8-2.2 1.1-1.2 0.4-2.4 0.4-1.2-0.1-2.4-0.5-1.4-0.6-2.8-1.4-1.3-0.7-2.6-1.6-1.3-0.8-2.5-1.8-1.2-0.9-2.3-2-1.1-0.7-2.2-1.5-1-0.8-1.9-1.8-0.9-0.9-1.7-2-0.8-1.1-1.4-2.2c-0.7-1.5 0-2.9 0.4-4.4q1.4-0.8 2.9-1.4 1.5-0.6 3.1-1 1.6-0.3 3.2-0.3 1.6-0.1 3.2 0.2v-19.2h-41.2v60.9h-13.6v-60.9h-25.3v34.2q0 0.8-0.2 1.5-0.3 0.7-0.8 1.3-0.5 0.6-1.1 1-0.7 0.4-1.4 0.5-1.9 0.2-3.8 0-1.9-0.2-3.7-0.8-1.8-0.5-3.4-1.5-1.7-0.9-3.1-2.1-1.3-0.7-2.4-1.6-1.2-0.8-2.3-1.7-1.1-1-2.2-2-1-1-1.9-2.2-0.8-0.7-1.3-1.7-0.6-1-0.8-2.1-0.2-1-0.1-2.1 0.1-1.1 0.6-2.2c1.4-1.5 3.5-1.2 5.4-1.4h9.5c0-5.4 0-11.3 0-17h-42.1q0 30.4 0 60.8h-13.5v-37.7h-30.5q0 1.4 0 2.8 0 1.4 0 2.8-0.1 1.4-0.1 2.8-0.1 1.5-0.3 2.9-0.2 0.7-0.6 1.3-0.5 0.7-1.1 1.1-0.6 0.5-1.4 0.7-0.7 0.2-1.5 0.2-0.7 0-1.4-0.1-0.7-0.1-1.4-0.3-0.7-0.2-1.4-0.5-0.6-0.3-1.2-0.7-1.7-1-3.4-2.2-1.6-1.2-3.2-2.4-1.6-1.3-3-2.7-1.5-1.3-2.9-2.8-0.5-0.5-1-1.1-0.5-0.5-0.9-1.1-0.4-0.6-0.8-1.2-0.4-0.6-0.7-1.2-0.2-0.6-0.3-1.2 0-0.6 0.1-1.2 0.1-0.6 0.4-1.1 0.3-0.5 0.7-1 0.7-0.7 1.7-1.2 0.9-0.5 1.9-0.9 0.9-0.3 2-0.4 1-0.2 2.1-0.1h48.5c0-4.7 0-9.4 0-14.1q-40.8 0-81.6 0v60.7h-13.4c0-20.2 0-40.5 0-60.7q-8.1 0-16.2 0v-8.8h15.7q-0.5-1-0.9-2.1-0.3-1.1-0.6-2.3-0.3-1.1-0.4-2.3-0.1-1.1-0.1-2.3 0.2-2.7 1.1-5.2 1-2.5 2.6-4.6 1.6-2.2 3.8-3.8 2.1-1.6 4.6-2.6 1.5-0.7 3-1.3 1.5-0.5 3.1-0.9 1.6-0.5 3.2-0.8 1.6-0.2 3.3-0.4m-3 10q-1.4 0.3-2.7 1-1.2 0.7-2.3 1.7-1.1 0.9-1.9 2.1-0.8 1.2-1.4 2.5-0.4 1.4-0.6 2.9-0.1 1.5 0.1 2.9 0.2 1.5 0.7 2.8 0.5 1.4 1.4 2.6h65q-1.7-1.3-3.5-2.5-1.7-1.2-3.6-2.3-1.8-1.1-3.6-2.1-1.9-1.1-3.8-2-2.5-1.2-5.1-2.3-2.5-1.1-5.1-2.2-2.6-1-5.2-2-2.6-1-5.2-1.9-2.8-1-5.7-1.6-2.9-0.6-5.8-0.7-3-0.1-5.9 0.2-3 0.3-5.8 1zm237.6 46.6h29.8c0-6.4 0-12.8 0-19.2h-30.1v19z"/>
		<path id="Layer" fill-rule="evenodd" class="s1" d="m270.6 619.6q1.4-1.3 3-2.4 1.6-1.1 3.4-1.8 1.8-0.8 3.7-1.2 1.9-0.5 3.8-0.5 2.1-0.3 4.1-0.3 2.1 0 4.1 0.3 2.1 0.2 4.1 0.8 2 0.5 3.9 1.3 2.8 1.2 5.5 2.7 2.6 1.5 5.1 3.3 2.4 1.8 4.7 3.9 2.2 2 4.2 4.4 1.3 1.2 2.5 2.5 1.2 1.3 2.4 2.7 1.2 1.3 2.3 2.7 1.2 1.4 2.2 2.8h112.7v8.9h-12.9v60.8h-13.2c0-6.3 0-12.6 0-18.9q-4.2 2.1-8.7 3.3-4.5 1.2-9.2 1.5-4.6 0.4-9.2-0.2-4.7-0.5-9.1-1.9-1.9-0.6-3.6-1.3-1.8-0.8-3.5-1.7-1.7-0.9-3.3-2.1-1.6-1.1-3.1-2.3-1-0.9-1.9-1.8-0.9-0.9-1.7-2-0.8-1-1.5-2.2-0.6-1.1-1.1-2.3-0.5-1.2-0.8-2.4-0.3-1.2-0.5-2.5-0.2-1.2-0.2-2.5 0-1.3 0.1-2.5 0.9 0.3 1.9 0.6 1 0.2 2 0.4 1 0.2 2 0.3 1 0.2 2 0.2 1.6 0.2 3.2 0 1.6-0.2 3.2-0.6 1.5-0.4 3-1.1 1.5-0.7 2.8-1.6 0.9-0.9 1.5-2 0.7-1 0.9-2.3 0.2-1.2-0.1-2.5-0.2-1.2-0.9-2.3-0.7-1.1-1.4-2.2-0.8-1.1-1.7-2.2-1-1-2-1.9-1-0.9-2-1.8c-13.5 0-27 0-40.2 0v60.9h-13.4q0-30.4 0-60.9h-29.9v60.9h-13.3c0-14.2 0-28.4 0-42.6h-27q-1.7-0.2-3.5-0.2-1.7 0-3.4 0.3-1.8 0.2-3.5 0.6-1.6 0.4-3.3 1-0.9 0.7-1.5 1.6-0.6 0.9-1 1.9-0.3 1-0.4 2.1 0 1.1 0.3 2.2 0.7 2.5 1.7 4.9 1 2.4 2.4 4.5 1.3 2.2 3 4.2 1.7 2 3.7 3.6 1 1.2 2.2 2.2 1.1 1 2.3 1.8 1.2 0.9 2.6 1.6 1.3 0.8 2.7 1.3c2.2 0.7 4.6 1 6.9 1.6-3.5 2.4-6.8 5-10.3 7.3-2.3 0-4-1.6-5.8-2.7-3.9-2.3-7.2-5.3-10.8-8q-1.3-1.3-2.6-2.7-1.2-1.3-2.4-2.7-1.1-1.4-2.2-2.9-1.1-1.4-2.1-3-0.9-1.4-1.7-2.9-0.8-1.5-1.3-3.1-0.6-1.6-0.9-3.2-0.4-1.7-0.5-3.4-0.2-1.4 0-2.9 0.1-1.5 0.6-2.9 0.5-1.4 1.2-2.6 0.7-1.3 1.7-2.4 1.5-1.4 3.1-2.6 1.7-1.1 3.6-1.9 1.9-0.8 3.9-1.1 2-0.4 4-0.4h38.3c0-3 0-6.2 0-9.2h-78.3v16.1q-0.2 1.5-0.7 2.9-0.5 1.4-1.4 2.7-0.8 1.2-2 2.1-1.1 1-2.5 1.6-1.9 1-3.9 1.8-2 0.7-4.1 1.2-2.2 0.5-4.3 0.7-2.1 0.2-4.3 0.1c1.6 1.7 3.3 3.2 5 4.7q1 1.2 2.2 2.4 1.1 1.1 2.3 2.2 1.2 1.2 2.4 2.2 1.2 1.1 2.5 2.1c4.7 3.7 9.3 7.4 14.2 10.8 0.4 0.4 1.4 0.5 1.1 1.2-2.2 1.5-4.5 2.7-6.6 4.3q-0.4 0.2-0.7 0.5-0.4 0.2-0.7 0.4-0.4 0.3-0.7 0.5-0.4 0.2-0.8 0.4-1.2-0.5-2.3-1.1-1.2-0.5-2.3-1.2-1.1-0.7-2.1-1.5-1.1-0.8-2-1.6-3.2-2.5-6.3-5.1-3.1-2.6-6-5.3-3-2.8-5.9-5.6-2.8-2.9-5.5-5.8c-6.5-6.2-11.6-13.4-17.5-20 3.5-2.1 7.3-3.8 10.8-5.7 3 3.4 5.8 7 8.8 10.5q1.5 0.8 3.1 1.3 1.7 0.5 3.4 0.8 1.6 0.2 3.4 0.1 1.7-0.1 3.3-0.5 1.3-0.1 2.5-0.6 1.1-0.6 2-1.5 0.9-1 1.4-2.2 0.5-1.2 0.5-2.5 0-6.8 0-13.7h-60q0 30.4 0 60.8h-13.6v-60.8h-31.3v60.8h-13.3v-32h-25.1v11.7q-0.8 0.8-1.8 1.2-1.1 0.5-2.2 0.7-1.1 0.2-2.2 0.1-1.1-0.2-2.2-0.6-1.4-0.6-2.7-1.3-1.4-0.7-2.7-1.6-1.3-0.8-2.5-1.7-1.2-0.9-2.3-1.9c-3.6-3-8.2-5.4-10.4-9.8-1-1.6 0.6-3.4 1.8-4.2 4.1-2.8 9.3-1.3 13.9-1.7q0-8.1 0-16.2c-0.5-2.1-2.9-2.9-4.7-3.4q-0.9 0-1.8 0-0.9 0-1.8 0.2-0.9 0.1-1.8 0.4-0.8 0.3-1.6 0.6-0.7 0.3-1.3 0.8-0.5 0.5-0.8 1.2-0.3 0.6-0.3 1.4 0 0.7 0.2 1.4 0.4 0.8 0.9 1.6 0.4 0.8 1 1.6 0.5 0.8 1.1 1.5 0.6 0.7 1.3 1.4c-4.7 0-9.4 0-14 0q-1.1-1.3-1.8-2.9-0.7-1.5-0.9-3.2-0.2-1.7 0.1-3.4 0.3-1.7 1-3.2 0.7-1 1.4-1.9 0.8-0.9 1.7-1.7 1-0.8 2-1.4 1-0.7 2.1-1.1 2.6-1.1 5.2-1.7 2.7-0.5 5.5-0.7 2.7-0.1 5.5 0.2 2.7 0.4 5.4 1.1 2 0.5 3.8 1.6 1.7 1.1 3.1 2.7 1.3 1.6 2 3.5 0.8 2 0.8 4v15.7h25.1v-19.7h-18q0-4.3 0-8.7h220q-0.9-1.3-1.5-2.8-0.7-1.4-1-2.9-0.4-1.6-0.4-3.1-0.1-1.6 0.2-3.2 0.4-1.3 0.9-2.5 0.6-1.3 1.3-2.4 0.6-1.2 1.5-2.3 0.8-1.1 1.7-2m8.4 13.1q0.4 1.1 0.9 2.2 0.5 1.1 1.2 2.1 0.6 1 1.3 1.9 0.7 1 1.5 1.9h33q-1.9-2-3.8-3.9-2-1.8-4-3.6-2-1.8-4.1-3.5-2.1-1.7-4.3-3.3-1.4-1.2-3-2-1.6-0.9-3.3-1.5-1.8-0.6-3.6-0.9-1.8-0.2-3.6-0.2c-1.3 0.1-2.6 0.5-3.7 1.1-1.1 0.6-2.1 1.4-2.9 2.4-0.8 1.1-1.3 2.3-1.6 3.5-0.3 1.3-0.3 2.6 0 3.8zm110.3 16.9q1.1 1.3 2 2.8 1 1.4 1.6 3 0.7 1.6 1.2 3.3 0.4 1.6 0.6 3.4-0.1 1.3-0.4 2.7-0.4 1.3-1 2.5-0.6 1.2-1.5 2.3-0.8 1.1-1.9 2-1.6 1.4-3.5 2.5-1.8 1.1-3.8 2-2 0.8-4.2 1.3-2.1 0.6-4.2 0.7c1.2 1.8 2.6 3.4 4.3 4.8 1.7 1.4 3.5 2.5 5.5 3.4 2 0.9 4.1 1.4 6.2 1.7 2.2 0.3 4.3 0.3 6.5 0q1.8-0.2 3.6-0.5 1.8-0.4 3.6-1 1.7-0.5 3.4-1.3 1.6-0.8 3.2-1.8 0.8-0.4 1.5-0.9 0.7-0.5 1.4-1.1 0.7-0.5 1.3-1.2 0.6-0.6 1.2-1.3 0-14.6 0-29.4z"/>
		<path id="Layer" fill-rule="evenodd" class="s1" d="m608.6 616q2-0.9 4.1-1.4 2.1-0.6 4.3-0.9 2.2-0.3 4.3-0.2 2.2 0 4.4 0.3 1.3 0.2 2.7 0.4 1.3 0.3 2.5 0.7 1.3 0.4 2.6 1 1.2 0.5 2.3 1.2 1.9 0.9 3.8 1.9 1.8 1.1 3.5 2.3 1.7 1.1 3.4 2.5 1.6 1.3 3.1 2.7 0.6 0.7 1.2 1.4 0.6 0.7 1.2 1.4 0.6 0.7 1.3 1.3 0.6 0.7 1.3 1.3c2.8 2.9 5.3 6.1 7.8 9.1h197.7v8.8h-14.9v60.9h-13.4c0-12.7 0-25.3 0-37.8q-15.3 0-30.6 0 0.1 1.6 0.1 3.1 0 1.6-0.1 3.1 0 1.6-0.2 3.2-0.2 1.5-0.4 3.1-0.5 0.5-1.1 1-0.7 0.4-1.4 0.7-0.7 0.3-1.4 0.4-0.8 0.1-1.5 0.1-1-0.2-1.9-0.6-0.9-0.3-1.8-0.7-0.9-0.5-1.7-1.1-0.8-0.5-1.5-1.2-1.5-0.9-2.9-1.9-1.5-1-2.8-2.1-1.4-1.1-2.6-2.3-1.3-1.2-2.5-2.5-0.5-0.5-1-1.1-0.4-0.6-0.8-1.2-0.4-0.7-0.7-1.4-0.3-0.6-0.6-1.4 0-0.6 0.2-1.3 0.1-0.7 0.5-1.3 0.3-0.6 0.8-1 0.5-0.5 1.1-0.8 0.8-0.5 1.6-0.8 0.8-0.3 1.6-0.5 0.9-0.2 1.7-0.3 0.9-0.1 1.8 0h48.1q0-7.1 0-14.1h-80.9v60.8h-13.5v-19.3q-3.3 1.8-6.8 3-3.6 1.1-7.3 1.5-3.7 0.4-7.4 0.1-3.7-0.3-7.3-1.3-1.7-0.5-3.4-1.1-1.6-0.6-3.1-1.4-1.6-0.9-3.1-1.8-1.4-1-2.8-2.1-1.1-0.9-2.1-1.9-1-1.1-1.8-2.3-0.7-1.3-1.2-2.6-0.6-1.4-0.8-2.8-0.2-1.7-0.1-3.3 0.2-1.7 0.6-3.3 0.5-1.6 1.3-3.1 0.8-1.5 1.9-2.7 1-1.2 2.2-2.3 1.2-1.1 2.5-2 1.3-1 2.6-1.8 1.4-0.8 2.8-1.5 2.1-0.9 4.2-1.4 2.1-0.6 4.3-0.8 2.2-0.3 4.5-0.3 2.2 0 4.4 0.2c3.1 0.4 6.2 1 9.3 1.1 1.2 3.8 2.4 7.5 3.5 11.3q-1.1-0.5-2.2-0.9-1.1-0.4-2.2-0.8-1.1-0.3-2.2-0.7-1.1-0.3-2.2-0.6-1-0.1-2-0.3-0.9-0.1-1.9-0.2-1 0-2-0.1-0.9 0-1.9 0-1.1-0.1-2.2 0-1.1 0-2.2 0.2-1.1 0.2-2.1 0.6-1.1 0.3-2.1 0.8-1.1 0.6-2 1.5-0.9 0.9-1.5 1.9-0.7 1.1-1.1 2.3-0.4 1.2-0.5 2.4-0.1 1.2 0.1 2.4 0.2 1.2 0.6 2.3 0.5 1.1 1.2 2.1 0.7 1 1.7 1.7 1.3 1 2.8 1.7 1.4 0.7 3 1.2 1.6 0.4 3.2 0.6 1.6 0.2 3.2 0.1 2-0.2 4-0.5 1.9-0.4 3.8-0.9 1.9-0.6 3.8-1.4 1.8-0.7 3.5-1.7c1.1-0.6 2.6-1.3 2.5-2.7v-30.5h-72.1v60.9h-13.3v-60.7h-29.7v60.8h-13.4c0-13.2 0-26.4 0-39.7h-22.6q1.1 1.6 2.1 3.4 1 1.8 1.8 3.6 0.7 1.9 1.3 3.8 0.6 1.9 0.9 3.9 0 1.6-0.4 3.2-0.3 1.6-1 3.1-0.7 1.5-1.7 2.8-1 1.3-2.3 2.3-1.2 1-2.6 1.9-1.4 0.8-2.9 1.4-1.6 0.6-3.1 1-1.6 0.4-3.2 0.5-4 0.6-8 0.4-4-0.3-7.9-1.4-3.9-1.1-7.5-3-3.5-1.9-6.6-4.5-2.8-2.3-5.3-5-2.5-2.6-4.6-5.6-2.2-2.9-4-6.1-1.8-3.1-3.2-6.5-0.4-0.7-0.7-1.5-0.3-0.7-0.6-1.5-0.2-0.8-0.4-1.6-0.2-0.8-0.4-1.6 5.8-3.2 11.6-6.2-0.1 0.8-0.1 1.6 0 0.7 0.1 1.5 0.1 0.8 0.3 1.5 0.2 0.7 0.5 1.5 0.7 1.6 1.5 3.3 0.8 1.7 1.7 3.3 0.8 1.6 1.8 3.2 0.9 1.6 1.9 3.2 0.8 1.4 1.7 2.7 0.9 1.2 2 2.4 1 1.2 2.2 2.3 1.1 1.2 2.3 2.2 2 2.2 4.5 3.8 2.5 1.5 5.4 2.4 2.9 0.8 5.8 0.9 3 0 5.9-0.8 0.9-0.4 1.7-1 0.9-0.6 1.5-1.4 0.6-0.8 1-1.8 0.4-1 0.5-2 0-1.3-0.2-2.7-0.2-1.3-0.6-2.6-0.4-1.3-1.1-2.5-0.6-1.2-1.4-2.3-0.8-1-1.6-2-0.8-1.1-1.6-2-0.9-1-1.8-1.9-0.9-1-1.8-1.8c-2.2-2.5-5.4-3.9-7.6-6.3h46.9q0-6.4 0-12.8h-93.7v-8.6h85.5q-1.2-1.5-1.9-3.2-0.7-1.7-1-3.5-0.3-1.8-0.1-3.7 0.1-1.8 0.8-3.6 0.7-1.7 1.7-3.3 1-1.6 2.3-3 1.2-1.4 2.8-2.5 1.5-1.1 3.2-2zm5.7 8.4q-0.8 0.7-1.4 1.5-0.6 0.9-1 1.8-0.4 0.9-0.6 2-0.1 1 0 2 0.3 1.2 0.8 2.4 0.5 1.3 1.1 2.4 0.6 1.2 1.3 2.3 0.7 1.1 1.6 2.1h33.3q-1.4-1.6-2.8-3-1.5-1.5-3-2.9-1.6-1.4-3.2-2.7-1.6-1.3-3.3-2.5-1.5-1.4-3.1-2.7-1.6-1.2-3.4-2.2-1.8-0.9-3.7-1.7-2-0.7-3.9-1.1-1.2-0.2-2.3-0.2-1.2 0.1-2.3 0.3-1.1 0.3-2.2 0.8-1 0.6-1.9 1.3z"/>
		<path id="Layer" fill-rule="evenodd" class="s1" d="m980.3 624q1.2-2.4 3.1-4.3 1.8-1.9 4-3.2 2.3-1.4 4.8-2.1 2.6-0.7 5.2-0.7 2.1-0.3 4.2-0.3 2.2 0 4.3 0.3 2.1 0.3 4.1 0.9 2 0.5 4 1.4 2 0.9 4 2 2 1.1 3.9 2.3 1.8 1.2 3.6 2.6 1.8 1.4 3.5 2.8 1.8 1.8 3.5 3.6 1.8 1.9 3.5 3.8 1.6 1.8 3.2 3.8 1.6 1.9 3.2 3.9h153.8q0 4.4 0 8.7h-17.8v60.9h-13.3q0-30.4 0-60.9h-27v60.9h-13.1v-32.3q-14.9 0-29.9 0v8.7q-0.7 1.1-1.7 2-1 0.8-2.2 1.2-1.2 0.4-2.5 0.3-1.3 0-2.5-0.6-1.4-0.7-2.7-1.5-1.3-0.7-2.6-1.6-1.3-0.9-2.6-1.8-1.2-1-2.4-2-1.1-0.7-2.1-1.5-1-0.8-1.8-1.8-0.9-0.9-1.7-2-0.7-1-1.3-2.2-0.2-0.5-0.2-1 0-0.6 0-1.1 0.1-0.5 0.2-1 0.2-0.6 0.4-1 0.5-0.4 1.1-0.8 0.6-0.3 1.2-0.6 0.6-0.3 1.2-0.5 0.7-0.2 1.3-0.4 1-0.1 2-0.1 1 0 2 0 1 0 2 0 1 0 2 0.1v-19.2h-36.8v60.9h-13q0-30.4 0-60.9-14.9 0-29.7 0v60.8c-4.5 0-8.9 0-13.4 0 0.3-5.9 0-11.9 0-17.8q-1.4 0.8-2.9 1.5-1.5 0.6-3.1 1.2-1.6 0.5-3.1 0.9-1.6 0.4-3.3 0.6-1.9 0.2-3.8 0.3-1.9 0-3.7-0.1-1.9-0.1-3.8-0.3-1.9-0.3-3.8-0.7-1.9-0.4-3.8-1.1-1.9-0.8-3.7-1.7-1.8-0.9-3.4-2-1.7-1.1-3.2-2.4-1.3-1.1-2.3-2.4-1-1.3-1.7-2.7-0.6-1.5-1-3.1-0.4-1.6-0.4-3.2-0.1-1.6 0.2-3.1 0.2-1.5 0.8-3 0.5-1.5 1.4-2.8 0.8-1.3 1.8-2.5 1.5-1.3 3.1-2.6 1.7-1.2 3.5-2.2 1.8-1 3.6-1.7 1.9-0.8 3.9-1.3 2.7-0.6 5.4-0.9 2.8-0.3 5.5-0.2 2.8 0 5.5 0.4 2.8 0.4 5.4 1.1c0.9 4 2 8 2.8 12.1-2.2-1.6-3.8-4.4-6.8-4.5q-1.9-0.3-3.8-0.4-1.9-0.1-3.8 0.1-1.9 0.2-3.8 0.6-1.8 0.4-3.7 1.1c8.6 4.1 17.1 8.2 25.6 12.4q0.1-1.3 0.2-2.6 0-1.2 0-2.5 0-1.3 0-2.5-0.1-1.3-0.2-2.6c0-6.7 0-13.4 0-20.2h-58.3v-8.9h50.5q-0.9-1.1-1.6-2.3-0.7-1.2-1.1-2.6-0.4-1.3-0.6-2.7-0.1-1.4 0-2.8 0.2-0.9 0.4-1.7 0.3-0.8 0.6-1.6 0.3-0.8 0.7-1.6 0.3-0.8 0.8-1.5zm14.2 0q-1 0.7-1.7 1.8-0.7 1-1.1 2.2-0.4 1.2-0.4 2.5 0 1.2 0.4 2.4 0.4 1.1 0.9 2.1 0.5 1 1.1 1.9 0.6 1 1.3 1.9 0.7 0.9 1.5 1.7c10.7 0.3 22 0 33 0q-1.8-1.9-3.7-3.7-1.9-1.8-3.8-3.6-2-1.7-4-3.4-2.1-1.6-4.2-3.2-1.1-0.8-2.2-1.5-1.2-0.7-2.4-1.3-1.2-0.6-2.5-1.1-1.2-0.5-2.5-0.8-1.3-0.3-2.6-0.3-1.2-0.1-2.5 0.2-1.2 0.3-2.4 0.8-1.2 0.5-2.2 1.3zm100.7 44.5h29.8v-19.1h-29.8zm-138.7 4.2q-0.6 1.1-0.9 2.3-0.3 1.2-0.3 2.4 0.1 1.2 0.5 2.4 0.4 1.1 1.1 2.2 1.1 1.1 2.5 2.1 1.3 0.9 2.7 1.6 1.5 0.8 3 1.3 1.6 0.5 3.2 0.7 1.7 0.4 3.5 0.4 1.8 0 3.5-0.3 1.8-0.3 3.4-1 1.7-0.6 3.2-1.5c-3.3-2.1-7-3.1-10.4-5-5-2.2-9.9-5-15-7.4z"/>
		<path id="Layer" class="s1" d="m280.9 736.7q1.9-0.8 3.9-1.3 2-0.6 4.1-0.8 2-0.2 4.1-0.1 2 0.1 4.1 0.4 2.1 0.5 4.1 1.5 2.1 0.9 3.8 2.3 1.8 1.4 3.2 3.1 1.4 1.7 2.5 3.6c-3.1 1.3-6.3 2.5-9.3 3.9q-0.6-0.9-1.3-1.7-0.7-0.8-1.5-1.5-0.8-0.7-1.6-1.4-0.9-0.6-1.8-1.1-1.2-0.5-2.4-0.7-1.2-0.3-2.5-0.2-1.2 0.1-2.4 0.5-1.2 0.4-2.3 1-0.8 0.7-1.4 1.5-0.6 0.8-0.9 1.8-0.3 0.9-0.4 1.9-0.1 1 0.1 2 0.3 0.7 0.6 1.3 0.4 0.6 0.9 1.1 0.5 0.5 1.1 0.9 0.5 0.3 1.2 0.6 2.2 0.6 4.5 1.3 2.2 0.7 4.4 1.5 2.2 0.8 4.3 1.6 2.2 0.9 4.3 1.9c1.7 1.1 3.1 2.4 4.4 4 1.2 1.5 2.1 3.3 2.7 5.2 0.6 1.8 0.9 3.8 0.9 5.8-0.1 2-0.5 3.9-1.2 5.7q-0.7 1.7-1.7 3.2-1 1.5-2.3 2.8-1.2 1.3-2.8 2.3-1.5 1-3.1 1.6-1.9 0.7-3.7 1.1-1.9 0.4-3.9 0.5-1.9 0.1-3.8 0-1.9-0.1-3.8-0.5-2.6-0.6-4.9-1.8-2.3-1.2-4.3-2.9-2-1.6-3.6-3.7-1.5-2.1-2.6-4.4l10.1-4c2.2 2.9 4.4 6.4 8.2 7.4q1.5 0.5 3.2 0.6 1.7 0.1 3.3-0.3 1.6-0.4 3.1-1.3 1.4-0.9 2.5-2.1 0.8-1.1 1.1-2.3 0.3-1.3 0.1-2.6-0.2-1.2-0.8-2.4-0.7-1.1-1.7-1.9-1.2-0.6-2.4-1.2-1.2-0.5-2.5-1-1.3-0.4-2.6-0.8-1.3-0.3-2.6-0.5-2.1-0.5-4.1-1.3-2-0.8-3.8-1.9-1.9-1.1-3.5-2.5-1.7-1.3-3.1-3-0.9-1.3-1.5-2.9-0.6-1.5-0.9-3.1-0.3-1.7-0.2-3.3 0.1-1.7 0.5-3.2 0.4-1.7 1.1-3.2 0.7-1.5 1.8-2.8 1-1.3 2.3-2.4 1.2-1.1 2.7-1.8z"/>
		<path id="Layer" class="s1" d="m557.6 736.5q1.7-0.7 3.6-1.1 1.8-0.5 3.7-0.7 1.9-0.2 3.8-0.2 2 0.1 3.8 0.4 2.9 0.6 5.5 1.9 2.5 1.4 4.6 3.4 2.1 2 3.6 4.5 1.4 2.6 2.1 5.4c-3.4 0.9-6.8 2-10.3 2.7q-0.2-1.2-0.7-2.3-0.5-1.1-1.2-2.1-0.7-1-1.6-1.8-0.8-0.9-1.9-1.5-1.3-0.8-2.8-1.2-1.5-0.4-3.1-0.3-1.5 0.1-3 0.7-1.5 0.5-2.7 1.5-1.2 1.1-2.3 2.5-1 1.4-1.7 2.9-0.8 1.5-1.3 3.1-0.5 1.7-0.7 3.3-0.5 2.5-0.6 5-0.1 2.5 0.2 5.1 0.3 2.5 0.9 4.9 0.7 2.4 1.7 4.7 0.5 1.1 1.2 2.1 0.7 0.9 1.7 1.7 0.9 0.7 1.9 1.3 1.1 0.5 2.2 0.9 1.5 0.2 3 0 1.5-0.1 2.9-0.6 1.4-0.5 2.7-1.4 1.2-0.8 2.2-1.9 0.6-0.7 1.1-1.4 0.6-0.8 1-1.6 0.5-0.8 0.8-1.6 0.4-0.8 0.7-1.7c3.3 1.2 6.8 2.1 10.2 3q-0.3 1.4-0.7 2.7-0.5 1.4-1.1 2.6-0.6 1.3-1.4 2.5-0.7 1.2-1.6 2.3-0.7 0.7-1.4 1.4-0.7 0.6-1.5 1.2-0.7 0.7-1.5 1.2-0.8 0.6-1.7 1.1c-2.6 1.2-5.3 2-8.2 2.3-2.9 0.3-5.8 0.1-8.5-0.6-2.8-0.7-5.5-1.8-7.9-3.4-2.4-1.6-4.5-3.7-6.2-6q-1.5-3.1-2.6-6.4-1-3.3-1.5-6.7-0.4-3.5-0.3-7 0.1-3.4 0.8-6.8 0.2-1.2 0.5-2.3 0.3-1.1 0.7-2.2 0.3-1.1 0.7-2.2 0.4-1.1 0.9-2.2 0.8-1.8 2-3.5 1.2-1.6 2.6-3 1.5-1.5 3.1-2.6 1.7-1.1 3.6-2z"/>
		<path id="Layer" class="s1" d="m686.6 735q2.2-0.4 4.4-0.5 2.3-0.1 4.5 0.3 2.2 0.3 4.4 1 2.1 0.8 4 1.9 1.8 1 3.2 2.3 1.5 1.4 2.6 3 1.2 1.6 2 3.4 0.8 1.8 1.2 3.7c-3.4 0.9-6.7 2-10.2 2.6q-0.3-1.1-0.7-2.1-0.5-1-1.1-1.9-0.6-1-1.4-1.8-0.8-0.8-1.7-1.5-1.3-0.8-2.8-1.2-1.5-0.5-3-0.5-1.6 0-3.1 0.5-1.5 0.4-2.8 1.2-1.4 1.3-2.5 2.7-1.1 1.4-1.9 3.1-0.9 1.6-1.4 3.3-0.5 1.8-0.7 3.6-0.4 2.3-0.5 4.6-0.1 2.3 0.1 4.7 0.2 2.3 0.7 4.5 0.5 2.3 1.3 4.5 0.4 1.3 1.2 2.4 0.7 1.2 1.7 2.1 1 0.9 2.2 1.6 1.2 0.6 2.5 1c1.6 0.2 3.2 0.1 4.8-0.3 1.5-0.4 3-1.1 4.3-2 1.3-0.9 2.4-2.1 3.2-3.4 0.9-1.4 1.5-2.8 1.8-4.4l10.5 2.9q-0.3 1.8-0.9 3.5-0.6 1.7-1.5 3.2-0.9 1.6-2 3-1.2 1.3-2.6 2.5c-2.8 2.3-6.1 3.8-9.7 4.6-3.5 0.8-7.2 0.8-10.8-0.1-3.5-0.8-6.8-2.5-9.6-4.8-2.8-2.3-5-5.2-6.5-8.5q-0.8-1.9-1.3-3.9-0.5-2-0.8-4.1-0.2-2-0.3-4.1-0.1-2 0-4.1 0-1.5 0.1-2.9 0.1-1.5 0.4-3 0.2-1.4 0.5-2.9 0.4-1.4 0.8-2.8 0.4-1.1 0.8-2.2 0.5-1 1-2.1 0.5-1 1.2-1.9 0.6-1 1.3-1.9 1.2-1.6 2.6-3 1.5-1.4 3.2-2.5 1.6-1.1 3.5-2 1.8-0.8 3.8-1.3z"/>
		<path id="Layer" fill-rule="evenodd" class="s1" d="m738.2 735q1.2-0.1 2.3-0.2 1.2-0.1 2.4-0.1 1.2 0 2.4 0.1 1.1 0.1 2.3 0.2 2.9 0.1 5.7 1 2.8 0.8 5.2 2.4 2.5 1.6 4.4 3.8 2 2.1 3.3 4.8 1.1 2.2 1.9 4.6 0.8 2.4 1.2 4.9 0.5 2.5 0.6 5 0.2 2.6 0 5.1 0 2.2-0.3 4.4-0.3 2.1-0.9 4.2-0.6 2.2-1.4 4.2-0.8 2-1.9 3.9-0.6 1-1.4 2-0.8 0.9-1.6 1.7-0.9 0.9-1.8 1.6-1 0.8-2 1.4-2.1 1.3-4.3 2.1-2.3 0.9-4.7 1.3-2.4 0.5-4.8 0.5-2.4 0-4.8-0.5-2-0.4-3.9-1.1-2-0.7-3.8-1.7-1.8-1-3.4-2.2-1.6-1.3-3-2.8-1.5-1.9-2.6-4-1.2-2.2-1.9-4.5-0.8-2.2-1.2-4.6-0.3-2.4-0.3-4.8-0.2-2.2-0.2-4.3 0-2.1 0.2-4.3 0.3-2.1 0.7-4.2 0.4-2.1 1-4.1 0.9-2.9 2.5-5.4 1.5-2.6 3.7-4.6 2.2-2.1 4.8-3.5 2.7-1.4 5.6-2.1m3.2 9.7q-1.9 0.7-3.6 1.9-1.7 1.3-2.9 3-1.3 1.6-2 3.6-0.7 1.9-0.9 4-0.3 2.1-0.4 4.3-0.2 2.1-0.1 4.3 0.1 2.1 0.5 4.3 0.3 2.1 0.8 4.2 0.4 1.1 0.9 2.2 0.5 1.1 1.2 2.1 0.7 1 1.5 1.9 0.9 0.8 1.8 1.5 1.5 1 3.2 1.5 1.7 0.4 3.4 0.4 1.8 0 3.5-0.4 1.7-0.5 3.1-1.5 1.3-0.9 2.3-2 1-1.2 1.7-2.5 0.8-1.3 1.3-2.8 0.4-1.4 0.6-3 0.4-2.2 0.6-4.4 0.1-2.2 0-4.4-0.1-2.2-0.4-4.4-0.3-2.2-0.9-4.4-0.3-1.1-0.7-2.1-0.5-1.1-1.1-2-0.6-1-1.4-1.8-0.8-0.8-1.7-1.5-1.1-0.9-2.3-1.4-1.3-0.6-2.6-0.9-1.3-0.2-2.7-0.2-1.4 0-2.7 0.2z"/>
		<path id="Layer" fill-rule="evenodd" class="s1" d="m901.4 735q1.7-0.2 3.4-0.4 1.8-0.1 3.5-0.1 1.7 0 3.4 0.1 1.7 0.2 3.4 0.4 1.9 0.5 3.6 1.2 1.8 0.8 3.4 1.9 1.6 1.1 3 2.4 1.4 1.3 2.6 2.9 1.1 1.6 1.9 3.4 0.9 1.8 1.5 3.6 0.7 1.8 1.1 3.8 0.4 1.9 0.6 3.8 0.4 3.2 0.4 6.4 0 3.2-0.5 6.4-0.5 3.2-1.5 6.3-1 3-2.5 5.9-0.5 0.9-1.1 1.6-0.6 0.8-1.2 1.6-0.7 0.7-1.5 1.3-0.7 0.7-1.6 1.2-1.6 1.2-3.3 2-1.7 0.9-3.6 1.5-1.9 0.6-3.8 0.9-1.9 0.3-3.9 0.3-1.9 0-3.7-0.2-1.9-0.2-3.7-0.7-1.8-0.5-3.5-1.2-1.8-0.7-3.4-1.7-0.9-0.7-1.8-1.4-0.9-0.7-1.7-1.5-0.8-0.8-1.5-1.7-0.8-0.9-1.4-1.8-1.2-2.1-2.1-4.3-0.9-2.2-1.5-4.5-0.6-2.3-0.9-4.7-0.2-2.4-0.2-4.8-0.1-2.6 0.1-5.2 0.3-2.5 0.9-5.1 0.6-2.5 1.5-4.9 1-2.4 2.3-4.7 1.1-1.8 2.6-3.4 1.4-1.6 3.2-2.9 1.7-1.3 3.7-2.2 2-0.9 4.1-1.4m3.7 9.6q-1.7 0.5-3.2 1.4-1.5 1-2.7 2.2-1.2 1.3-2.1 2.8-0.9 1.6-1.3 3.3-0.4 1.8-0.6 3.6-0.3 1.7-0.4 3.5-0.1 1.8-0.1 3.7 0 1.8 0.2 3.6 0 1.6 0.4 3.1 0.3 1.6 0.9 3.1 0.6 1.5 1.5 2.8 0.8 1.4 1.9 2.6 1.3 1.3 3 2.2 1.7 0.9 3.6 1.2 1.8 0.3 3.7 0 1.9-0.2 3.6-1 1.1-0.6 2.2-1.4 1-0.8 1.8-1.8 0.9-1 1.5-2.1 0.7-1.1 1.1-2.4 0.5-1.9 0.9-4 0.3-2 0.5-4 0.1-2.1 0.1-4.1-0.1-2-0.3-4.1-0.1-1.7-0.5-3.5-0.5-1.7-1.3-3.3-0.7-1.6-1.9-3-1.1-1.4-2.4-2.5-1.1-0.8-2.3-1.3-1.2-0.5-2.5-0.8-1.3-0.3-2.7-0.2-1.3 0-2.6 0.3z"/>
		<path id="Layer" fill-rule="evenodd" class="s1" d="m1132.1 735q1.5-0.2 3.1-0.3 1.6-0.1 3.2-0.1 1.6 0 3.2 0.1 1.6 0.1 3.2 0.3 2.7 0.6 5.2 1.8 2.5 1.2 4.6 3 2.1 1.8 3.7 4.1 1.6 2.3 2.7 4.8 0.8 2.4 1.4 4.8 0.6 2.4 0.9 4.9 0.4 2.5 0.4 5 0 2.5-0.2 5-0.1 2.6-0.6 5.1-0.5 2.5-1.5 4.9-1 2.4-2.4 4.6-1.4 2.1-3.2 4-2.1 2-4.7 3.4-2.5 1.4-5.3 2.2-2.8 0.8-5.7 0.9-3 0.1-5.8-0.4-2-0.3-3.9-0.9-2-0.6-3.7-1.6-1.8-0.9-3.4-2.2-1.6-1.2-2.9-2.7-1.8-2.4-3.1-5-1.4-2.6-2.2-5.5-0.9-2.8-1.2-5.7-0.4-3-0.2-5.9-0.1-2.8 0.2-5.5 0.4-2.7 1.2-5.3 0.7-2.6 1.9-5.1 1.2-2.4 2.7-4.7 1.1-1.6 2.5-2.9 1.4-1.4 3-2.4 1.7-1.1 3.5-1.8 1.8-0.7 3.7-1m3.2 9.6q-1.2 0.4-2.4 1-1.1 0.6-2.1 1.4-1 0.8-1.8 1.8-0.8 1-1.4 2.1-0.6 1.2-1 2.4-0.5 1.3-0.8 2.5-0.3 1.3-0.4 2.6-0.2 1.3-0.2 2.6-0.2 1.8-0.2 3.7 0.1 1.8 0.3 3.6 0.2 1.8 0.6 3.6 0.4 1.8 1 3.6 0.5 1.5 1.4 2.8 0.9 1.3 2.1 2.4 1.2 1 2.6 1.7 1.5 0.7 3 1.1 1.5 0.3 3 0.3 1.6-0.1 3-0.5 1.5-0.4 2.8-1.2 1.3-0.8 2.4-1.9 0.9-0.9 1.6-1.9 0.7-1.1 1.2-2.3 0.6-1.1 0.9-2.3 0.4-1.3 0.5-2.5 0.3-1.9 0.5-3.7 0.1-1.9 0.1-3.7 0-1.9-0.1-3.7-0.2-1.9-0.5-3.7-0.2-1.6-0.7-3-0.5-1.5-1.3-2.8-0.9-1.4-1.9-2.5-1.1-1.2-2.4-2.1-1.1-0.6-2.4-1.1-1.2-0.4-2.5-0.6-1.3-0.1-2.6 0-1.3 0.1-2.6 0.4z"/>
		<path id="Layer" fill-rule="evenodd" class="s1" d="m1272.4 735q1.5-0.2 3.1-0.3 1.6-0.1 3.2-0.1 1.6 0 3.2 0.1 1.6 0.1 3.2 0.3 2.1 0.4 4.1 1.3 2 0.8 3.7 2 1.8 1.2 3.3 2.7 1.5 1.6 2.7 3.4 1 1.6 1.9 3.3 0.8 1.7 1.4 3.6 0.7 1.8 1 3.7 0.4 1.9 0.5 3.8 0.3 2.1 0.3 4.2 0.1 2.2-0.1 4.3-0.1 2.1-0.4 4.2-0.3 2.1-0.8 4.2-0.4 1.7-1.1 3.4-0.7 1.6-1.6 3.1-0.9 1.5-2 2.9-1.1 1.4-2.5 2.5-1.6 1.5-3.5 2.7-1.9 1.1-4 1.9-2.1 0.7-4.2 1.1-2.2 0.3-4.4 0.2-2.4 0.1-4.7-0.2-2.4-0.4-4.6-1.2-2.2-0.8-4.2-1.9-2.1-1.2-3.8-2.8-0.8-0.6-1.5-1.3-0.7-0.7-1.3-1.5-0.6-0.7-1.1-1.6-0.4-0.8-0.8-1.7-1.1-2.1-1.8-4.4-0.8-2.2-1.2-4.5-0.5-2.3-0.7-4.6-0.1-2.4 0-4.7 0-2.4 0.2-4.7 0.3-2.3 0.9-4.6 0.5-2.2 1.4-4.4 0.9-2.2 2-4.2 1.1-2 2.6-3.7 1.4-1.6 3.2-3 1.8-1.3 3.9-2.2 2-0.9 4.2-1.4m3.7 9.6q-2 0.7-3.8 1.9-1.7 1.2-3.1 2.9-1.3 1.6-2.1 3.6-0.8 2-0.9 4.1-0.4 2.2-0.5 4.4-0.1 2.3 0 4.5 0.1 2.2 0.5 4.4 0.4 2.1 1 4.3 0.4 1.6 1.3 3 0.9 1.4 2.1 2.6 1.2 1.2 2.7 2 1.4 0.8 3.1 1.2 1.8 0.4 3.6 0.3 1.8-0.1 3.5-0.8 1.7-0.6 3.2-1.7 1.4-1.2 2.5-2.7 1-1.7 1.7-3.6 0.7-1.9 1.1-3.8 0.4-2 0.6-4 0.1-2-0.1-4 0.1-2-0.1-4.1-0.2-2-0.8-4-0.6-1.9-1.5-3.7-1-1.8-2.2-3.4-1.1-1.1-2.5-1.9-1.3-0.8-2.9-1.3-1.5-0.4-3-0.4-1.6-0.1-3.1 0.3z"/>
		<path id="Layer" class="s1" d="m1 735.4h11.1v47.4h23.6v9.7h-34.7q0-28.6 0-57.1z"/>
		<path id="Layer" class="s1" d="m45.6 735.4h11.4v57.1h-11.4z"/>
		<path id="Layer" class="s1" d="m71.1 735.4h35.1v9.8h-23.8v15.1h13.7v9.7h-13.7v22.5h-11.3q0-28.6 0-57.1z"/>
		<path id="Layer" class="s1" d="m115.5 792.5v-57.1h38.3v10h-27v12.7h16.5v8.7h-16.4v16.1h27v9.8z"/>
		<path id="Layer" class="s1" d="m188.5 735.4h11.2v57.1h-11.2z"/>
		<path id="Layer" class="s1" d="m214 735.4h11.9c2.7 4.5 5.4 9 8 13.7 5.4 8.1 10 16.5 15.3 24.6q0-19.1 0-38.3h11.1v57.1h-11.3c-3.8-6.3-7.7-12.5-11.5-18.9-1.6-3-3.8-5.7-5.3-8.8-2.4-4.1-4.8-8.1-7.2-12.2v39.9h-11z"/>
		<path id="Layer" class="s1" d="m323.1 735.4h11.4v35.3q-0.1 1.3 0.1 2.7 0.2 1.3 0.6 2.6 0.5 1.2 1.1 2.4 0.7 1.2 1.5 2.2 1.2 0.9 2.4 1.5 1.3 0.7 2.7 1 1.5 0.3 2.9 0.2 1.4 0 2.8-0.4 1-0.1 1.9-0.5 1-0.4 1.8-1 0.8-0.5 1.4-1.3 0.7-0.7 1.2-1.6 0.6-1.2 1-2.5 0.4-1.3 0.7-2.6 0.3-1.4 0.3-2.7 0.1-1.4 0-2.7c0-10.8 0-21.6 0-32.6h11.4v36.4q0.1 1.7-0.1 3.5-0.2 1.7-0.6 3.4-0.4 1.7-1.1 3.4-0.7 1.6-1.6 3.1-1.3 1.7-2.8 3-1.6 1.4-3.4 2.4-1.8 1.1-3.7 1.7-2 0.7-4.1 0.9-2 0.3-4 0.4-2 0.1-4-0.1-2-0.2-3.9-0.6-2-0.4-3.9-1-2-0.7-3.8-1.8-1.7-1.1-3.2-2.5-1.4-1.5-2.5-3.3-1.1-1.8-1.7-3.8-0.3-1.3-0.5-2.6-0.2-1.4-0.4-2.7-0.1-1.4-0.1-2.8 0-1.3 0-2.7c0.2-11.5 0.2-22.9 0.2-34.3z"/>
		<path id="Layer" fill-rule="evenodd" class="s1" d="m381.6 735.4h21.5q1.5 0 3.1 0.1 1.5 0.2 3 0.4 1.5 0.3 2.9 0.8 1.5 0.4 2.9 0.9 1.9 1 3.4 2.4 1.6 1.4 2.8 3.2 1.1 1.8 1.8 3.8 0.7 2 0.8 4.1 0.1 1.1 0.1 2.2 0 1.1-0.1 2.2-0.2 1.1-0.5 2.2-0.2 1.1-0.7 2.1-0.7 1.4-1.7 2.6-1 1.1-2.2 2.1-1.2 1-2.5 1.8-1.4 0.7-2.9 1.2c3.3 8.3 6.9 16.6 10.3 24.9h-11.3c-2.1-5.1-4.6-10.1-6.3-15.4-1-2.6-2-5.1-3.2-7.6h-10.1v23h-11.1v-57.2m11.1 10.2v15.4h10.2q1 0 2-0.2 1-0.3 2-0.6 0.9-0.4 1.8-1 0.9-0.6 1.7-1.3 0.8-0.8 1.3-1.9 0.6-1.1 0.7-2.3 0.1-1.2-0.3-2.3-0.3-1.2-1-2.2-0.7-0.8-1.6-1.5-0.8-0.6-1.8-1.1-1-0.4-2.1-0.6-1-0.3-2.1-0.2c-3.5-0.2-7.2-0.2-10.8-0.2z"/>
		<path id="Layer" fill-rule="evenodd" class="s1" d="m440.9 756.9c1.9-7.2 4.5-14.3 6.7-21.5h12c6.1 19.1 12.7 37.7 18.4 57.1h-10.8c-1.3-4.4-3-8.8-4.3-13.3q-9.1 0-18.1 0c-1.6 4.4-2.9 8.9-4.2 13.3h-11.4c4-11.8 7.8-23.6 11.7-35.6zm6.3 14h12.8c-2-6.6-3.8-13.2-6.2-19.6-2.5 6.4-4.2 13.1-6.6 19.6z"/>
		<path id="Layer" class="s1" d="m486.3 792.5v-57.1h11.8c4 6.4 7.8 13 11.9 19.4 4.2 6.3 7.5 12.7 11.3 18.9 0-12.8 0-25.6 0-38.3h11.2v57.1c-3.8 0-7.5 0-11.3 0-3.1-5.4-6.8-10.7-9.8-16.1-1.8-3.7-4.3-6.9-6.3-10.5-2.1-3.6-5.4-8.5-7.7-12.8-0.3 5 0 10.1 0 15.2v24.5z"/>
		<path id="Layer" class="s1" d="m598.3 735.4h37.7v9.9c-9 0-18 0-27 0v12.6h16.6v8.6h-16.4v16.2h26.9v9.7h-38.1q0.4-28.5 0.3-57z"/>
		<path id="Layer" fill-rule="evenodd" class="s1" d="m780.1 735.4h22q1.8-0.1 3.5 0.1 1.8 0.2 3.5 0.6 1.7 0.4 3.4 1.1 1.6 0.6 3.2 1.5 1.6 1.2 3 2.7 1.3 1.6 2.2 3.4 0.9 1.9 1.4 3.9 0.5 2 0.5 4 0.1 1.4 0 2.7-0.2 1.4-0.6 2.6-0.4 1.3-1.1 2.5-0.6 1.2-1.5 2.2-0.8 0.8-1.7 1.5-0.9 0.7-1.9 1.3-0.9 0.7-1.9 1.2-1 0.5-2.1 0.9c1.9 3.9 3.3 7.8 5 11.8 1.7 3.9 3.7 8.6 5.4 13h-11.3c-1.2-2.8-2.3-5.4-3.5-8.1-1.6-5.1-4-9.9-6-14.9h-10.5v23h-11c0-19.1 0-38.2 0-57.2m11.1 25.4h11.6q1.5-0.1 3-0.7 1.4-0.6 2.5-1.7 1.2-1 1.9-2.4 0.7-1.4 0.8-3-0.1-1.4-0.6-2.7-0.6-1.2-1.6-2.2-1-1-2.3-1.6-1.2-0.6-2.6-0.7c-4.3-0.2-8.5-0.2-12.7-0.2z"/>
		<path id="Layer" fill-rule="evenodd" class="s1" d="m833.1 735.4h22.5q1.6 0 3.3 0.1 1.7 0.2 3.3 0.6 1.6 0.3 3.2 0.8 1.6 0.6 3.1 1.3 1.6 0.8 2.9 2.1 1.3 1.2 2.3 2.6 1 1.5 1.6 3.2 0.6 1.7 0.9 3.4 0.2 1.9 0.1 3.9-0.1 1.9-0.7 3.7-0.5 1.9-1.4 3.5-1 1.7-2.2 3.1-1 1-2 1.8-1.1 0.8-2.3 1.5-1.1 0.7-2.3 1.2-1.3 0.6-2.6 0.9-2.2 0.4-4.6 0.6-2.3 0.2-4.6 0.3-2.3 0.1-4.6 0.1-2.3 0-4.6-0.2v22.6h-11.3c0 0 0-57.2 0-57.1zm11.3 25.4h10.8q1-0.1 2-0.3 1.1-0.2 2-0.6 1-0.4 1.9-1 0.9-0.6 1.6-1.3 0.9-0.9 1.4-2.2 0.5-1.2 0.5-2.6 0-1.3-0.5-2.6-0.5-1.2-1.4-2.2-0.7-0.7-1.6-1.2-0.9-0.5-1.9-0.9-1-0.3-2-0.5-1-0.1-2.1-0.1c-3.6 0.1-7.1 0.1-10.7 0.1z"/>
		<path id="Layer" fill-rule="evenodd" class="s1" d="m943.9 735.4h21.2q1.9-0.1 3.8 0.1 1.9 0.2 3.8 0.6 1.9 0.5 3.7 1.2 1.8 0.8 3.4 1.7 2.1 1.8 3.6 4.2 1.4 2.3 2.2 5 0.7 2.6 0.6 5.4-0.1 2.7-1 5.3-0.6 1.5-1.6 2.9-1 1.3-2.2 2.4-1.2 1.1-2.7 2-1.4 0.8-3 1.3c1.7 4 3.4 8 5 12.1 1.6 4.1 3.5 8.5 5.1 12.8h-11.1c-3.2-7.7-6.4-15.3-9.6-22.9h-10.2v22.9h-11.1v-57.1m11.1 10v15.4h10.8q1.3-0.1 2.5-0.5 1.3-0.4 2.4-1.1 1.1-0.7 2-1.7 0.9-0.9 1.5-2.1 0.5-1.3 0.5-2.8-0.1-1.4-0.7-2.7-0.6-1.3-1.7-2.3-1.1-0.9-2.4-1.4-1.9-0.3-3.7-0.5-1.9-0.2-3.7-0.3-1.9-0.1-3.7 0-1.9 0-3.7 0.1z"/>
		<path id="Layer" fill-rule="evenodd" class="s1" d="m1009.9 735.4h12.1c2.1 6.4 4 12.8 6.2 19.1 4.2 12.7 7.7 25.5 12.1 38.1h-10.7c-1.4-4.5-3.1-8.8-4.4-13.3q-9 0-18.1 0c-1.5 4.5-3 8.9-4.4 13.4h-10.8c2.5-7.9 5.4-15.6 7.5-23.6 3.6-11.2 7.3-22.4 10.7-33.6m-0.3 35.5h12.9c-2.4-6.4-4.2-12.9-6.4-19.2-2.9 6.1-4.4 12.7-7 19.1z"/>
		<path id="Layer" class="s1" d="m1037.7 735.4h43.5v10h-16.2v47.3h-11.4v-47.3h-16.2c0.3-3.4 0.4-6.7 0.3-10z"/>
		<path id="Layer" class="s1" d="m1091.1 735.4h11.4v57.1h-11.4c0-19 0-38.1 0-57.1z"/>
		<path id="Layer" class="s1" d="m1173.5 735.4h12.2c3.1 4.8 5.3 10 8.7 14.9 3.3 4.8 6 9.7 9 14.6q0.7 1.1 1.4 2.2 0.7 1.1 1.4 2.2 0.7 1.1 1.3 2.2 0.7 1.1 1.3 2.3 0-19.3 0-38.4h11.4v57.1q-5.7 0-11.4 0c-2.7-5.4-6.1-10-9-15.2-2.9-5.1-7.5-11.5-10.8-17.6-1.4-2.3-2.8-4.6-4.2-7q0 19.8 0 39.8h-11.3c0-19 0-38.1 0-57.1z"/>
		<path id="Layer" class="s1" d="m1314.1 735.4h34.9v9.9q-11.8 0-23.5 0v15h13.6v9.7h-13.6v22.5h-11.6c0.2-19.1 0.2-38.1 0.2-57.1z"/>
		<path id="Layer" class="s1" d="m1383.2 735.4h11.4v57.1h-11.4c0.1-19.1 0-38.1 0-57.1z"/>
		<path id="Layer" class="s1" d="m1408.7 735.4h11.8c4 6.3 7.7 12.9 11.8 19.1 4.2 6.3 7.5 12.9 11.5 19.2 0-12.8 0-25.6 0-38.3h11.1v57.1h-11.2c-3.2-5.4-6.8-10.7-9.8-16.1-1.8-3.9-4.4-7.3-6.5-10.8-2-3.6-5.1-8.5-7.6-12.8v40h-11.1z"/>
		<path id="Layer" fill-rule="evenodd" class="s1" d="m1468.3 735.4h20.9q2.2-0.1 4.4 0.2 2.1 0.4 4.2 1.2 2.1 0.7 4 1.8 1.9 1.2 3.5 2.6 2.7 2.6 4.6 5.8 2 3.1 3.1 6.7 1.2 3.5 1.5 7.2 0.3 3.7-0.3 7.3-0.2 2-0.7 3.9-0.5 1.9-1.1 3.8-0.7 1.8-1.6 3.6-0.9 1.7-2 3.4-1.1 1.6-2.5 2.9-1.4 1.4-3 2.5-1.6 1.1-3.3 1.9-1.8 0.8-3.7 1.3-2 0.4-4 0.7-2 0.4-4 0.5-2 0.2-4.1 0.2-2 0-4-0.1h-11.6v-57.2m11 9.8q0.2 0 0.3 0zm0.4 37.4q1.3 0 2.6 0 1.3 0 2.6 0 1.3 0 2.7-0.1 1.3-0.1 2.6-0.2 1.5-0.4 3-1.1 1.4-0.8 2.7-1.8 1.2-1 2.2-2.3 1-1.3 1.7-2.7 1-2 1.6-4.2 0.6-2.1 0.8-4.3 0.2-2.2 0.1-4.5-0.2-2.2-0.7-4.3-0.5-1.5-1.2-2.9-0.7-1.3-1.6-2.6-0.9-1.2-2.1-2.2-1.1-1-2.4-1.8-1.8-0.9-3.6-1.4-1.8-0.6-3.7-0.9-1.9-0.3-3.8-0.3-1.8-0.1-3.5 0.2z"/>
		<path id="Layer" class="s1" d="m1525.4 735.4h11.4v57.1h-11.4z"/>
		<path id="Layer" fill-rule="evenodd" class="s1" d="m1556 759.9c2.6-8.2 5.4-16.2 7.9-24.5h12.1c3.3 10.8 6.8 20.9 10.2 31.5 1.6 4.9 3.4 9.7 4.5 14.6 1.1 3.8 2.5 7.4 3.7 10.8h-10.8c-1.3-4.4-3-8.8-4.3-13.2q-9.1 0-18.2 0c-1.5 4.4-3 8.8-4.4 13.3h-10.8c1.9-5.8 3.9-11.6 5.7-17.4 1.6-5.1 3.6-10 4.7-15.2m13.7-8.6q0.1 0.2 0.2 0.4 0.1-0.3 0.2-0.5zm-6.1 19.5h12.8c-2.8-6.1-4-12.8-6.5-19.1-2.2 6.4-4.1 12.8-6.3 19.1z"/>
	</g>
	<path id="Layer" fill-rule="evenodd" class="s2" d="m649.1 1h920.9q2-0.1 3.9 0.1 1.9 0.2 3.8 0.7 1.9 0.5 3.6 1.4 1.8 0.8 3.4 1.9 0.9 0.5 1.7 1.2 0.9 0.7 1.6 1.4 0.8 0.8 1.4 1.6 0.7 0.9 1.2 1.8 0.9 1.4 1.7 3 0.7 1.6 1.1 3.2 0.5 1.6 0.8 3.3 0.2 1.7 0.3 3.4v540.5q0 1.8-0.2 3.6-0.3 1.9-0.8 3.6-0.5 1.8-1.3 3.5-0.8 1.6-1.8 3.2-1.3 1.8-3 3.4-1.6 1.6-3.5 2.8-2 1.3-4.1 2.1-2.1 0.8-4.4 1.2-1.8 0.2-3.6 0.3-1.8 0.1-3.6 0.2-1.9 0-3.7 0-1.8 0-3.6 0h-238.9c-4.1 0-8.2-0.5-12.4 0h-660.8q0-293.5 0-587.1m664.1 73c-2.4 1.6-5.1 2.6-7.4 4.3q-1.3 0.9-2.7 1.9-1.3 1-2.6 2-1.3 1-2.5 2.1-1.3 1-2.5 2.1c-2.2 2.3-4.5 4.5-6.7 6.8q-1.2 1.1-2.3 2.3-1.1 1.1-2.2 2.3-1.1 1.3-2.2 2.5-1 1.2-2 2.5c-2.4 2.8-3.9 6.1-6.2 9q-1.5 2.4-2.9 4.9-1.4 2.5-2.6 5.1-1.3 2.6-2.5 5.2-1.1 2.6-2.2 5.3-1.1 2.9-2.1 5.8-0.9 2.9-1.8 5.8-0.9 3-1.7 5.9-0.8 3-1.5 6-2.3 10.5-4.1 21.2-1.7 10.6-2.9 21.3-1.1 10.7-1.7 21.5-0.5 10.8-0.5 21.6v81.5c0 21.6 0 43.2 1.9 64.8q0.5 6.5 1.4 13 0.8 6.5 1.9 12.9 1.2 6.5 2.6 12.9 1.4 6.4 3.2 12.7c1.3 3.6 1.7 7.5 3.1 10.8q1.3 3.6 2.7 7.1 1.4 3.5 3.1 7 1.6 3.4 3.4 6.7 1.9 3.3 3.9 6.6c1.2 1.9 2.4 3.7 3.5 5.4q1.9 2.6 3.9 5.2 2.1 2.6 4.2 5 2.2 2.5 4.5 4.8 2.3 2.4 4.7 4.6 1.3 1.2 2.7 2.3 1.4 1.2 2.8 2.2 1.5 1.1 3 2 1.5 1 3.1 1.9 4.5 2.7 9.3 4.9 4.7 2.3 9.7 4.1 4.9 1.7 10 3 5.1 1.3 10.4 2 2.6 0.5 5.3 0.8 2.7 0.4 5.4 0.6 2.7 0.3 5.4 0.4 2.7 0.1 5.4 0.2c7.2 0 14.4 0.4 21.6 0q6.7 0.1 13.3-0.8 6.6-0.8 13.1-2.6 6.4-1.8 12.5-4.4 6.2-2.7 11.8-6.2 1.4-0.9 2.6-1.7 1.3-0.9 2.6-1.8 1.2-0.9 2.4-1.9 1.2-1 2.4-2 2.8-2.8 5.5-5.8 2.7-3 5.2-6.1 2.4-3.2 4.7-6.5 2.2-3.3 4.2-6.7 2.3-3.7 4.4-7.5 2-3.8 3.9-7.8 1.8-3.9 3.4-7.9 1.7-4 3.1-8.1c1.3-3.5 1.8-7.2 3.1-10.8q2.5-9.6 4.4-19.4 1.8-9.8 3-19.7 1.2-9.9 1.7-19.8 0.6-10 0.4-19.9h-73.4c0 7.9 0 15.7-0.6 23.6q-0.2 5.6-0.7 11.1-0.4 5.6-1.2 11.1-0.8 5.5-1.9 11-1.1 5.4-2.5 10.8-0.2 0.8-0.4 1.6-0.2 0.8-0.4 1.6-0.2 0.8-0.5 1.6-0.3 0.7-0.6 1.5-1.2 3.5-3.1 6.8-1.8 3.2-4.2 6.1-2.4 2.9-5.2 5.4-2.9 2.4-6.1 4.3-3.5 1.3-7.2 2.1-3.7 0.8-7.5 1-3.8 0.2-7.5-0.1-3.8-0.4-7.5-1.3-2.4-0.5-4.7-1.2-2.3-0.7-4.6-1.6-2.2-1-4.4-2.1-2.1-1.2-4.1-2.6-1.7-1.3-3.3-2.8-1.7-1.4-3.2-2.9-1.5-1.5-2.9-3.1-1.5-1.6-2.8-3.3-1.2-1.8-2.4-3.7-1.1-1.9-2-3.9-1-1.9-1.8-4-0.8-2-1.4-4.1-1.8-5.8-3.1-11.8-1.4-5.9-2.3-11.9-0.9-6-1.4-12.1-0.5-6-0.5-12.1c0-16.7 0-33.5 0-50.2q0-52.9 0-105.8 0-6.4 0.4-12.7 0.4-6.3 1.3-12.6 0.9-6.2 2.3-12.4 1.4-6.2 3.2-12.2 0.2-0.8 0.4-1.5 0.2-0.8 0.4-1.5 0.3-0.8 0.6-1.5 0.3-0.7 0.6-1.4 1.1-2.7 2.4-5.3 1.4-2.6 3-5 1.7-2.4 3.5-4.7 1.9-2.2 4-4.3 3-3.1 6.6-5.6 3.6-2.5 7.6-4.3 4-1.8 8.2-2.9 4.3-1 8.6-1.2 2.7-0.3 5.4-0.3 2.6 0 5.3 0.3 2.6 0.3 5.2 1 2.6 0.6 5.1 1.6 2.9 1.3 5.4 3.2 2.5 1.8 4.7 4.1 2.1 2.3 3.8 5 1.7 2.6 2.8 5.6 0.7 1.8 1.4 3.7 0.6 1.9 1.2 3.8 0.5 1.9 0.9 3.9 0.5 1.9 0.8 3.9 1 5.6 1.8 11.2 0.7 5.7 1.2 11.4 0.4 5.7 0.6 11.4 0.2 5.7 0.1 11.4h75.4q0-7.2-0.3-14.3-0.3-7.2-1-14.4-0.6-7.1-1.7-14.2-1-7.1-2.4-14.1c-1.2-6.3-3.3-12.4-4.8-18.6q-1.2-3.5-2.6-7-1.4-3.5-3-6.9-1.6-3.4-3.4-6.6-1.8-3.3-3.8-6.5-1.2-1.9-2.4-3.7-1.3-1.9-2.6-3.7-1.4-1.7-2.8-3.4-1.5-1.7-3-3.3-2.5-2.8-5.2-5.4-2.7-2.5-5.6-4.8-2.9-2.4-6-4.4-3-2.1-6.3-3.8-3.2-1.9-6.6-3.5-3.4-1.5-6.9-2.8-3.4-1.4-7-2.4-3.6-1-7.2-1.8-6.1-1.2-12.2-2-6.2-0.8-12.4-1.2-6.2-0.4-12.4-0.4-6.2 0-12.3 0.4-6.4 0.2-12.6 1.1-6.3 0.8-12.4 2.4-6.1 1.6-12 3.8-5.9 2.2-11.6 5.1zm-566.1-2.8v446.4h227.4c0-21.6 0-43.5 0-65.3h-154.3q0-11.5 0-23 0-179.1 0-358.2c-24.4 0-49 0-73.4 0zm326.8-0.2v446.6h73.7q0-223.4 0-446.7z"/>
</svg>