<svg version="1.2" xmlns="http://www.w3.org/2000/svg" viewBox="0 0 1551 288" width="1551" height="288">
	<title>LT</title>
	<style>
		.s0 { fill: #024d87 } 
	</style>
	<g id="Group_6">
		<path id="Path_1" fill-rule="evenodd" class="s0" d="m143.4 1c58 0 110.3 34.9 132.5 88.6 22.2 53.6 9.9 115.4-31.1 156.4-41 41-102.8 53.3-156.4 31-53.5-22.2-88.5-74.6-88.4-132.7 0.1-18.8 3.8-37.4 11-54.8 7.3-17.3 17.8-33.1 31.1-46.4 13.3-13.3 29.1-23.9 46.5-31.1 17.4-7.2 36-11 54.8-11zm-19.8 267.5l61.1-106.3h-41.3l20.5-35.6h97.2l-20.6 35.7-35.1-0.1-62 107.9c33.3 0 65.2-13.2 88.7-36.8 23.5-23.5 36.8-55.4 36.8-88.7 0-33.3-13.3-65.3-36.8-88.8-23.5-23.6-55.4-36.8-88.7-36.8q-1.9 0-3.7 0-1.9 0.1-3.7 0.2-1.9 0.1-3.7 0.3-1.9 0.2-3.7 0.4l-61.7 106.7h76.5l-20.8 35.6h-97l79.2-137.1c-26.9 8.7-50 26.1-65.7 49.5-15.7 23.5-23 51.5-20.9 79.6 2.2 28.1 13.8 54.7 32.9 75.4 19.1 20.8 44.6 34.4 72.5 38.9z"/>
		<path id="Path_2" class="s0" d="m1451.7 144.2c-6.4 29.3 6 49.7 37.9 49.7 31.5 0 53.3-20.8 59.6-49.7 6.2-28.9-6.9-49.2-38.1-49.2-31.6 0-53 19.9-59.4 49.2zm20.8 0c3.6-16.8 15.5-34.1 35.3-34.1 19.8 0 24.2 17.2 20.6 34.1-3.8 17.3-15.1 34.7-35.5 34.7-20.4 0-24.1-17.4-20.4-34.7zm-106.6 48.1h19.9l8.7-39.7h6.4c8.4 0 10.3 2.7 11.7 9.8l5.4 29.9h22.3l-7.9-37.4c-1.1-4.3-3-9.5-8.4-9.9l0.1-0.3c3-0.3 5.9-1.1 8.6-2.3 2.8-1.2 5.3-2.8 7.6-4.7q3.3-3 5.7-6.9c1.6-2.6 2.7-5.3 3.4-8.3 5.8-26.5-19.9-25.8-41.3-25.8h-21.5zm37.4-80.6h6.6c9.9 0 20.9 1 18.4 12.5-2.6 11.9-14.2 13.3-24 13.3h-6.6zm-119.9 80.5h34.8c12.5 0 35.8-3.6 41.1-27.7 2.5-11.8-4.8-20.5-18.1-21.8v-0.2c2.9-0.4 5.7-1.1 8.3-2.3 2.7-1.1 5.1-2.7 7.3-4.6 2.2-1.9 4-4.1 5.5-6.6 1.5-2.4 2.7-5.1 3.4-7.9 4.5-20.9-13.9-24.5-26.8-24.5h-34.7zm37.4-80.6h7.6c9.2 0 19.1 0.9 16.7 12-2.1 9.8-12.9 11.6-21.3 11.6h-8.2zm-8.2 37.8h9.4c10 0 20.1 1.9 17.5 14.4-2.4 11.1-14.2 13.3-23.4 13.3h-9.4zm-118.3 8.2c-5.5 25.6 7.3 36.2 32.8 36.2 25.5 0 42.9-10.6 48.5-36.2l13.2-61.1h-20l-11.9 55.2c-3.5 16.3-11.3 27-26.5 27-15.2 0-18.3-10.7-14.8-27l12-55.2h-20zm-104.9-13.6c-6.4 29.4 6 49.8 37.9 49.8 31.5 0 53.3-20.9 59.5-49.8 6.3-28.9-6.8-49.1-38-49.1-31.7 0-53.1 19.8-59.4 49.1zm20.7 0c3.7-16.8 15.6-34.1 35.4-34.1 19.8 0 24.2 17.3 20.5 34.1-3.7 17.3-15 34.7-35.4 34.7-20.4 0-24.2-17.4-20.5-34.7zm-73.2 48.1h20l17.4-80.5h28.5l3.3-15.1h-77l-3.2 15.1h28.5zm-96-50.3c12.1-6 21.9-12.2 24.7-25.3 3.4-15.5-10-21.7-23.9-21.7-14 0-31.8 7.3-35 21.8-2.3 11 2.7 16 8.9 23-17.2 6.5-24.2 14.8-26.7 26.3-3.9 18 9.8 27.9 29.5 27.9q3.9 0 7.8-0.7 3.9-0.7 7.7-2 3.7-1.3 7.2-3.2 3.5-1.9 6.6-4.3l4.8 8.5h24.5l-13.6-19.2q3.6-3.3 6.6-7 3.1-3.8 5.6-7.9 2.5-4.2 4.4-8.6 1.9-4.5 3.1-9.2h-17.3q-0.6 2.9-1.6 5.7-0.9 2.8-2.3 5.5-1.4 2.6-3.1 5.1-1.7 2.4-3.8 4.5zm-9-9.8c-3-3.7-7.6-8.2-6.5-13.6 0.4-1.5 1-2.9 1.9-4.2 0.8-1.3 1.9-2.4 3.1-3.3 1.3-0.9 2.6-1.6 4.1-2.1 1.5-0.4 3-0.6 4.5-0.5 5.7 0 10.3 3.1 8.9 9.8-1.2 5.7-10.5 11.4-16 13.9zm8.6 41.8q-2 1.4-4.2 2.5-2.2 1.1-4.6 1.9-2.4 0.7-4.9 1-2.4 0.4-4.9 0.3c-9.3 0-15.6-5.7-13.8-14.1 1.7-7.5 8.2-12.1 15.5-15.3zm-194.7 18.3h19.1l15.5-71.5h0.3l22.6 71.5h24.3l20.8-95.6h-19.1l-15.6 71.5h-0.2l-22.4-71.5h-24.6zm-73.9 0h59l3.2-15.1h-39l5.8-26.8h35.5l3.3-15.1h-35.5l5.1-23.6h38.8l3.2-15.1h-58.7zm3.5-93.8q-2.8-0.9-5.6-1.5-2.9-0.7-5.8-1.1-2.9-0.5-5.8-0.7-2.9-0.1-5.8-0.1c-17.6 0-36.5 7.8-41.1 29.2-6.9 31.6 38.4 24.1 34.4 42.3-1.9 8.6-12.8 12.3-20.3 12.3q-2.8 0-5.6-0.4-2.8-0.4-5.4-1.1-2.7-0.8-5.3-1.8-2.6-1.1-5-2.6l-5.6 17.3q3 0.9 6.1 1.6 3 0.7 6.1 1.2 3.1 0.5 6.3 0.7 3.1 0.2 6.2 0.2c20.1 0 39.1-7.9 43.6-28.9 7-32.1-38.1-25.1-34.5-41.7 0.5-2 1.3-3.9 2.5-5.6 1.2-1.7 2.6-3.2 4.3-4.4 1.7-1.2 3.6-2.1 5.6-2.7 2-0.5 4-0.7 6.1-0.5q2.5 0 5 0.2 2.5 0.3 4.9 0.8 2.4 0.5 4.8 1.3 2.4 0.7 4.7 1.8zm-155.9 93.8h19.9l8.6-39.8h6.5c8.4 0 10.3 2.8 11.6 9.9l5.5 29.9h22.3l-7.9-37.4c-1.1-4.3-3.1-9.5-8.4-9.9l0.1-0.3c2.9-0.3 5.9-1.1 8.6-2.3 2.7-1.2 5.3-2.8 7.5-4.8 2.3-1.9 4.2-4.2 5.8-6.8 1.5-2.6 2.7-5.4 3.4-8.3 5.8-26.5-19.9-25.8-41.3-25.8h-21.5zm37.4-80.6h6.6c9.9 0 20.8 1 18.4 12.5-2.6 11.9-14.2 13.3-24 13.3h-6.6zm-138.8 80.5h20.6l13.5-21.9h40.3l3.8 21.9h22.1l-18.3-95.6h-22.6zm72.2-37h-29.1l23-39.5h0.2zm-131.7 37h58.6l3.3-15h-38.6l17.4-80.6h-19.9z"/>
	</g>
</svg>