<svg version="1.2" xmlns="http://www.w3.org/2000/svg" viewBox="0 0 1416 163" width="1416" height="163"><defs><clipPath clipPathUnits="userSpaceOnUse" id="cp1"><path d="m-452-716h5011v6556h-5011z"/></clipPath></defs><style>.a{fill:#2f2a85}.b{fill:#9d9d9c}</style><g clip-path="url(#cp1)"><path fill-rule="evenodd" class="a" d="m219.2 40.3h44.5l13.1 46.5h0.2l13.2-46.5h44.5v80h-28.7v-57.2h-0.3l-16.8 57.2h-24l-16.8-57.2h-0.2v57.2h-28.7zm153.6 0h38.8l34 80h-33.6l-3.3-9.2h-33l-3.4 9.2h-33.6zm19.5 24.2h-0.2l-9.4 27.1h19zm162.4-24.2h31.6v48.5c0 10.3 6 13.5 16.3 13.5 10.3 0 16.2-3.2 16.2-13.5v-48.5h31.6v49.7c0 25.4-15.3 33.2-47.8 33.2-32.5 0-47.9-7.8-47.9-33.2zm131.4 20.2h-29.3v-20.2h90.2v20.2h-29.3v59.8h-31.6zm99.1-20.2v80.1h-31.6v-80.1zm-272.7 80l-26.5-24.6h-5.5v24.6h-31.6v-80h66.6c9.1 0 14.6 0.8 18.9 2.9 6 3 10.9 10.7 10.9 19.4 0 7.5 2.9 29.2-19.3 32.7l26.9 25zm-32-44.8h22.5c6.1 0 8.7-2.4 8.7-7.5 0-6-3.9-7.5-9.2-7.5h-22z"/><path class="b" d="m81.1 0.1c-23.8 21.1-50.9 36.8-79.9 49.5l103.3 74-5.9 2.8-42.7-28.5c-13.9-9.2-48.4-2.8-55.4 8.9l79.4 55.7c22-21.2 48.9-38 80.3-50.7l-104.4-72.8 5.5-4.3 33.8 24.2c16.9 12.1 30.3 15.3 66.6-2.6z"/><path fill-rule="evenodd" class="a" d="m872.3 87.3c-15.4-2.3-21.8-11.3-21.8-22.5 0-20.7 20.3-26.3 46.3-26.3 35.6 0 50.3 9.3 51.4 26.2h-36.7c0-3.3-1.9-5.3-4.9-6.4-2.8-1.2-6.4-1.7-9.8-1.7-9.5 0-12.7 2.4-12.7 5.7 0 2.3 1 3.7 4.1 4.2l37.8 5.6c15.9 2.3 25.8 9.7 25.8 23.3 0 19.5-15.9 28.7-51.4 28.7-24.4 0-50.9-3.4-51-26.9h38.1c0.1 2.7 1.1 4.5 3.3 5.7 2.4 1.1 5.9 1.7 10.8 1.7 9.9 0 12.5-2.7 12.5-6.5 0-2.4-1.4-4.7-5.7-5.4zm88.3-46h31.6v48.4c0 10.3 5.9 13.5 16.2 13.5 10.3 0 16.3-3.2 16.3-13.5v-48.4h31.6v49.6c0 25.5-15.4 33.2-47.9 33.2-32.5 0-47.8-7.7-47.8-33.2zm104.2 63.1l48-42.9h-44.7v-20.2h87.3v17.5l-46.9 42.4h45.7v20.1h-89.4zm99.1-63.1h31.6v48.5c0 10.3 6 13.5 16.3 13.5 10.3 0 16.2-3.2 16.2-13.5v-48.5h31.6v49.7c0 25.4-15.3 33.2-47.8 33.2-32.5 0-47.9-7.8-47.9-33.2zm251.5 0v80h-31.6v-80zm-142 0h30.8v27.7l34.5-27.7h38.4l-46.3 39.2 44 40.8h-40.5l-30.7-28.7 0.6 28.7h-30.8z"/></g></svg>