<svg version="1.2" baseProfile="tiny-ps" xmlns="http://www.w3.org/2000/svg" viewBox="0 0 1600 1106" width="1600" height="1106">
	<title>Reliance_Industries_Logo-svg</title>
	<style>
		tspan { white-space:pre }
		.shp0 { fill: #bfa161 } 
		.shp1 { fill: #1f1917 } 
	</style>
	<g id="layer1">
		<g id="g3475">
			<path id="path262" fill-rule="evenodd" class="shp0" d="M898.13 470.12C879.41 483.35 854.81 485.33 835.76 476.74C835.76 476.74 830.56 474.75 825.71 469.46C821.55 464.49 716.21 351.08 716.21 351.08L715.87 350.74C748.45 356.37 784.13 341.49 802.5 314.37C820.85 288.58 820.17 251.88 802.85 226.08C782.06 197.98 741.51 188.72 707.56 193.01C648.65 200.95 606.38 250.89 593.22 303.14C579.7 362.65 589.41 418.86 610.55 471.77C615.39 483.02 621.98 494.59 629.95 504.5C567.92 478.72 513.18 431.1 484.43 367.28C452.55 298.5 453.24 211.53 491.01 141.76C520.8 87.87 573.47 37.93 638.61 16.77C706.86 -10.01 798.69 -4.39 865.22 31.32C945.94 69.68 1006.92 165.25 1007.27 250.56C1010.04 338.85 969.15 418.86 898.13 470.12" />
			<path id="path264" fill-rule="evenodd" class="shp0" d="M671.52 503.52C641.38 472.43 617.12 432.09 635.49 390.1C651.77 358.02 666.32 325.28 673.26 288.24C676.03 326.94 700.64 361.33 712.4 398.37C716.91 416.22 717.26 434.74 709.99 453.26C702.02 473.42 689.19 490.61 673.95 506.16L671.52 503.52L671.52 503.52Z" />
			<path id="path266" fill-rule="evenodd" class="shp1" d="M211.11 852.95C193.33 826.33 177.27 803.33 162.85 783.97C148.5 764.6 132.95 744.62 116.16 724.03L85.69 724.03L85.69 814.29C85.69 818.95 86.48 823.05 87.99 826.61C89.49 830.09 92.79 832.84 97.88 834.68C100.39 835.64 104.77 836.53 111.08 837.29C117.38 838.1 122.7 838.59 127.07 838.72L127.07 852.95L1 852.95L1 838.72C4.37 838.44 9.26 837.97 15.63 837.29C22.01 836.67 26.46 835.77 28.97 834.68C33.14 832.97 36.21 830.44 38.08 827.09C40 823.73 40.95 819.49 40.95 814.29L40.95 608.57C40.95 603.85 40.23 599.75 38.79 596.12C37.44 592.49 34.13 589.75 28.97 587.9C25.46 586.67 20.88 585.58 15.28 584.61C9.67 583.59 4.95 582.98 1 582.7L1 568.46L138.61 568.46C151.23 568.46 163.06 569.7 174.11 572.16C185.14 574.63 195.19 578.59 204.16 584.06C212.83 589.41 219.79 596.4 224.95 605.01C230.12 613.64 232.76 624.04 232.76 636.22C232.76 647.17 230.98 656.89 227.46 665.3C223.94 673.72 218.78 680.98 211.97 687.13C205.66 692.88 198.05 697.89 189.24 702.05C180.42 706.3 170.66 709.86 160.06 712.79C174.75 731.41 186.94 747.02 196.7 759.75C206.45 772.4 218.34 787.87 232.54 806C238.71 814.08 244.23 819.96 249.27 823.79C254.21 827.56 259.15 830.72 264.03 833.1C267.69 834.82 272.2 836.19 277.72 837.14C283.17 838.04 287.7 838.59 291.35 838.72L291.35 852.95L211.11 852.95ZM165.29 599.81C154.96 589.75 140.26 584.69 121.4 584.69L85.69 584.69L85.69 706.78L113.23 706.78C132.51 706.78 148.66 700.89 161.48 689.04C174.4 677.22 180.85 661.13 180.85 640.8C180.85 623.56 175.68 609.94 165.29 599.81ZM446.61 844.13C432.04 853.5 415.27 858.15 396.4 858.15C379.69 858.15 365.14 855.35 352.59 849.73C340.04 844.13 329.71 836.53 321.62 826.88C313.51 817.29 307.41 806 303.4 793.21C299.45 780.34 297.46 766.79 297.46 752.49C297.46 739.69 299.6 727.1 303.83 714.71C308.13 702.33 314.38 691.24 322.7 681.32C330.65 671.87 340.54 664.2 352.37 658.39C364.21 652.57 377.48 649.64 392.18 649.64C407.3 649.64 420.28 651.89 431.04 656.48C441.87 660.99 450.63 667.22 457.3 675.09C463.73 682.62 468.54 691.44 471.7 701.57C474.86 711.77 476.43 722.79 476.43 734.63L476.43 747.91L339.26 747.91C339.26 760.84 340.54 772.61 343.12 783.14C345.69 793.75 349.8 802.99 355.45 811.08C360.91 818.8 368.01 824.9 376.83 829.41C385.65 833.86 396.2 836.12 408.39 836.12C420.85 836.12 431.62 833.31 440.64 827.77C449.62 822.23 458.36 812.24 466.75 797.79L481.45 806.42C472.78 822.23 461.15 834.75 446.61 844.13ZM433.05 706.98C431.68 698.43 429.6 691.31 426.67 685.56C423.43 679.4 419 674.41 413.39 670.5C407.82 666.61 400.56 664.69 391.74 664.69C377.04 664.69 364.85 670.5 355.1 682.21C345.35 693.91 340.11 710.2 339.26 731.07L435.06 731.07C435.06 723.54 434.41 715.54 433.05 706.98ZM501 852.95L501 840.2C504.12 839.93 507.44 839.61 510.98 839.28C514.51 839.01 517.41 838.47 519.7 837.83C523.51 836.7 526.34 834.64 528.21 831.75C530.08 828.84 531.12 825.06 531.05 820.45L527.87 609.33C527.84 606.94 526.75 600.05 525.43 595.3C524.83 593.15 524.19 591.42 523.58 590.76C522.93 590.05 522.71 589.33 521.8 588.55C518.3 585.56 522.65 589.71 519.38 586.94C517.22 585.1 520.27 586.25 513.79 584.97C507.36 583.7 496.6 586.54 492.65 586.27L492.3 572.36L565.04 568.58L568.51 571.4L568.79 818.13C568.79 822.63 569.65 826.31 571.42 829.23C573.17 832.12 575.99 834.39 579.94 835.91C582.9 837.23 585.81 838.16 588.72 838.81C591.64 839.48 594.95 839.93 598.55 840.2L598.55 852.95L501 852.95ZM624.58 852.95L624.58 839.85C627.79 839.59 631.04 839.31 634.46 839.04C637.88 838.77 640.79 838.23 643.28 837.41C647.19 836.26 650.11 834.15 651.95 831.17C653.8 828.19 654.81 824.31 654.81 819.56L654.81 698.5C654.81 694.23 653.74 690.36 651.74 686.83C649.75 683.3 646.9 680.38 643.28 678.01C640.65 676.38 636.88 675.03 631.84 673.94C626.85 672.79 622.31 672.11 618.11 671.83L618.11 658.95L690.64 654.53L693.55 657.32L693.55 817.19C693.55 821.81 694.47 825.67 696.32 828.73C698.17 831.72 701.16 834.01 705.21 835.45C708.26 836.67 711.26 837.61 714.17 838.36C717.08 839.04 720.28 839.59 723.91 839.85L723.91 852.95L624.58 852.95ZM689.85 596.99C684.66 602.61 678.27 605.47 670.58 605.47C663.54 605.47 657.36 602.76 652.16 597.39C646.98 592.03 644.34 585.85 644.34 579C644.34 571.67 646.98 565.36 652.16 559.93C657.36 554.5 663.54 551.79 670.58 551.79C678.55 551.79 685.02 554.3 690.06 559.4C695.11 564.55 697.67 570.45 697.67 577.24C697.67 584.77 695.11 591.35 689.85 596.99ZM945.47 849.32C938.88 851.58 933.14 853.43 928.2 854.86C923.18 856.24 917.59 856.99 911.28 856.99C900.3 856.99 891.63 854.52 885.1 849.67C878.57 844.74 874.42 837.62 872.62 828.32L871.33 828.32C862.23 837.89 852.47 845.28 842 850.35C831.6 855.41 819.05 857.95 804.36 857.95C788.8 857.95 776.03 853.43 765.99 844.33C755.95 835.23 750.93 823.33 750.93 808.68C750.93 801.01 752.08 794.24 754.3 788.21C756.59 782.2 759.9 776.78 764.42 771.93C767.93 767.96 772.51 764.4 778.26 761.24C783.99 758.11 789.44 755.57 794.46 753.72C800.77 751.47 813.53 747.22 832.76 741.06C852.05 734.9 865.03 730.12 871.76 726.62L871.76 706.78C871.76 705.06 871.4 701.71 870.61 696.79C869.82 691.86 868.18 687.13 865.67 682.75C862.87 677.76 858.92 673.45 853.76 669.82C848.67 666.12 841.43 664.28 832.03 664.28C825.58 664.28 819.63 665.3 814.1 667.42C808.58 669.48 804.64 671.66 802.42 673.93C802.42 676.6 803.07 680.49 804.44 685.76C805.78 690.96 806.44 695.76 806.44 700.21C806.44 704.86 804.21 709.1 799.84 713C795.39 716.91 789.3 718.82 781.41 718.82C774.45 718.82 769.29 716.43 765.99 711.71C762.69 706.98 761.05 701.64 761.05 695.76C761.05 689.59 763.34 683.72 767.86 678.1C772.45 672.5 778.32 667.49 785.65 663.11C791.95 659.35 799.55 656.2 808.51 653.53C817.47 650.93 826.22 649.64 834.77 649.64C846.52 649.64 856.78 650.46 865.6 651.95C874.34 653.47 882.24 656.81 889.4 661.89C896.57 666.81 901.95 673.51 905.68 681.99C909.4 690.5 911.28 701.44 911.28 714.78C911.28 733.94 911.06 750.86 910.62 765.62C910.2 780.41 909.99 796.56 909.99 814.08C909.99 819.28 910.91 823.39 912.85 826.46C914.72 829.55 917.65 832.15 921.53 834.34C923.68 835.5 926.99 836.19 931.49 836.32C936.08 836.45 940.75 836.53 945.47 836.53L945.47 849.32ZM840.85 753.31C831.89 756.53 823.57 760.49 815.9 765.35C808.87 769.88 803.35 775.28 799.25 781.5C795.24 787.67 793.16 795.06 793.16 803.61C793.16 814.69 796.25 822.9 802.34 828.11C808.45 833.31 816.19 835.91 825.5 835.91C835.48 835.91 844.22 833.59 851.82 829C859.36 824.41 865.73 818.95 870.89 812.65L872.19 743.45C860.29 746.81 849.82 750.09 840.85 753.31ZM1093.35 852.95L1093.35 839.74C1096.57 839.48 1100.15 839.2 1103.95 838.93C1107.83 838.65 1110.97 838.1 1113.56 837.29C1117.43 836.12 1120.37 834 1122.24 830.99C1124.17 827.97 1125.11 824.08 1125.11 819.28L1125.11 717.59C1125.11 703.56 1121.6 692.75 1114.7 685.15C1107.75 677.55 1099.29 673.72 1089.4 673.72C1081.94 673.72 1075.13 674.82 1068.95 677C1062.86 679.19 1057.34 681.93 1052.61 685.15C1048.02 688.23 1044.29 691.52 1041.56 695.08C1038.84 698.63 1036.84 701.44 1035.62 703.56L1035.62 817.29C1035.62 821.81 1036.54 825.58 1038.56 828.52C1040.5 831.45 1043.43 833.73 1047.38 835.3C1050.32 836.67 1053.46 837.62 1056.91 838.31C1060.35 838.99 1063.87 839.48 1067.53 839.74L1067.53 852.95L966.06 852.95L966.06 839.74C969.28 839.48 972.58 839.2 976.02 838.93C979.47 838.65 982.42 838.1 984.98 837.29C988.86 836.12 991.79 834 993.67 830.99C995.61 827.97 996.54 824.08 996.54 819.28L996.54 697.19C996.54 692.61 995.53 688.43 993.45 684.67C991.44 680.84 988.58 677.7 984.98 675.3C982.33 673.72 979.17 672.56 975.52 671.8C971.87 671.05 967.93 670.58 963.76 670.3L963.76 657.3L1032.67 652.85L1035.62 655.65L1035.62 683.51L1036.62 683.51C1039.99 680.36 1044.22 676.46 1049.23 672.01C1054.26 667.56 1059.07 663.86 1063.51 661.07C1068.75 657.85 1074.92 655.17 1082.01 653.05C1089.19 650.93 1097.21 649.84 1106.19 649.84C1126.04 649.84 1140.81 655.78 1150.42 667.56C1160.03 679.4 1164.75 695.14 1164.75 714.78L1164.75 817.64C1164.75 822.36 1165.63 826.13 1167.35 829C1168.99 831.88 1171.86 834.13 1175.95 835.71C1179.31 837.07 1182.18 837.97 1184.63 838.51C1187.07 839.05 1190.51 839.48 1194.81 839.74L1194.81 852.95L1093.35 852.95ZM1245.65 829.68C1228.72 810.73 1220.27 785.27 1220.27 753.31C1220.27 739.42 1222.57 726.42 1227.08 714.31C1231.68 702.19 1238.26 691.24 1246.95 681.32C1255.19 671.87 1265.58 664.2 1278.06 658.39C1290.47 652.57 1304.09 649.64 1318.79 649.64C1339.09 649.64 1355.66 654.29 1368.34 663.59C1381.11 672.89 1387.5 685.56 1387.5 701.57C1387.5 708.28 1385.84 714.16 1382.47 719.3C1379.1 724.49 1373.57 727.04 1365.83 727.04C1357.58 727.04 1351.2 725.04 1346.61 721C1342.09 717.04 1339.8 712.52 1339.8 707.59C1339.8 701.57 1340.67 695.41 1342.31 689.04C1344.04 682.69 1344.96 678.04 1345.24 675.09C1342.75 670.98 1339.01 668.18 1334 666.81C1329.05 665.37 1323.67 664.69 1317.92 664.69C1311.27 664.69 1304.82 666.06 1298.72 668.79C1292.62 671.53 1286.74 676.6 1281 683.91C1275.77 690.63 1271.62 699.66 1268.37 711.02C1265.16 722.38 1263.5 735.93 1263.5 751.67C1263.5 776.58 1269.31 796.83 1280.86 812.57C1292.4 828.25 1307.61 836.12 1326.32 836.12C1339.94 836.12 1351.34 832.97 1360.53 826.68C1369.64 820.38 1378.16 811 1385.99 798.41L1399.47 806.83C1390.22 822.63 1378.03 835.1 1362.9 844.33C1347.76 853.57 1332.13 858.15 1316.07 858.15C1286.09 858.15 1262.65 848.64 1245.65 829.68ZM1564.83 844.13C1550.27 853.5 1533.49 858.15 1514.63 858.15C1497.92 858.15 1483.37 855.35 1470.82 849.73C1458.26 844.13 1447.94 836.53 1439.83 826.88C1431.74 817.29 1425.65 806 1421.63 793.21C1417.68 780.34 1415.66 766.79 1415.66 752.49C1415.66 739.69 1417.82 727.1 1422.06 714.71C1426.35 702.33 1432.6 691.24 1440.91 681.32C1448.88 671.87 1458.76 664.2 1470.6 658.39C1482.43 652.57 1495.7 649.64 1510.4 649.64C1525.53 649.64 1538.5 651.89 1549.25 656.48C1560.1 660.99 1568.84 667.22 1575.51 675.09C1581.96 682.62 1586.76 691.44 1589.92 701.57C1593.08 711.77 1594.66 722.79 1594.66 734.63L1594.66 747.91L1457.47 747.91C1457.47 760.84 1458.76 772.61 1461.35 783.14C1463.92 793.75 1468.02 802.99 1473.69 811.08C1479.14 818.8 1486.24 824.9 1495.04 829.41C1503.86 833.86 1514.41 836.12 1526.6 836.12C1539.09 836.12 1549.84 833.31 1558.87 827.77C1567.83 822.23 1576.59 812.24 1584.98 797.79L1599.67 806.42C1591 822.23 1579.39 834.75 1564.83 844.13ZM1551.27 706.98C1549.9 698.43 1547.83 691.31 1544.9 685.56C1541.66 679.4 1537.22 674.41 1531.63 670.5C1526.03 666.61 1518.8 664.69 1509.97 664.69C1495.26 664.69 1483.08 670.5 1473.32 682.21C1463.56 693.91 1458.34 710.2 1457.47 731.07L1553.28 731.07C1553.28 723.54 1552.64 715.54 1551.27 706.98Z" />
			<path id="path268" class="shp1" d="M59.44 1103.62L1.08 1103.62L1.08 1097.75C2.74 1097.62 5.09 1097.46 8.22 1097.24C11.33 1097.03 13.51 1096.7 14.79 1096.25C16.77 1095.55 18.24 1094.56 19.18 1093.32C20.08 1092.08 20.53 1090.35 20.53 1088.16L20.53 1003.21C20.53 1001.3 20.21 999.68 19.52 998.39C18.87 997.09 17.28 996.01 14.79 995.12C12.95 994.47 10.68 993.84 7.91 993.26C5.13 992.69 2.86 992.35 1.08 992.23L1.08 986.37L59.44 986.37L59.44 992.23C57.54 992.28 55.3 992.5 52.67 992.86C50.06 993.2 47.78 993.68 45.82 994.22C43.52 994.89 41.95 995.96 41.18 997.43C40.37 998.92 40 1000.59 40 1002.39L40 1087.26C40 1089.05 40.42 1090.67 41.31 1092.08C42.17 1093.49 43.71 1094.62 45.82 1095.43C47.09 1095.89 49.19 1096.36 52.09 1096.88C54.95 1097.41 57.41 1097.69 59.44 1097.75L59.44 1103.62L59.44 1103.62Z" />
			<path id="path270" class="shp1" d="M177.19 1103.62L133.11 1103.62L133.11 1098.17C134.51 1098.06 136.07 1097.94 137.72 1097.83C139.4 1097.72 140.77 1097.49 141.89 1097.15C143.59 1096.67 144.86 1095.8 145.67 1094.56C146.51 1093.32 146.92 1091.71 146.92 1089.74L146.92 1047.82C146.92 1042.04 145.39 1037.59 142.4 1034.46C139.37 1031.33 135.7 1029.75 131.4 1029.75C128.15 1029.75 125.19 1030.2 122.52 1031.1C119.87 1032 117.47 1033.13 115.41 1034.46C113.43 1035.73 111.8 1037.08 110.62 1038.55C109.44 1040.01 108.56 1041.17 108.04 1042.04L108.04 1088.92C108.04 1090.78 108.43 1092.34 109.31 1093.55C110.15 1094.76 111.43 1095.69 113.14 1096.34C114.42 1096.9 115.78 1097.3 117.28 1097.58C118.78 1097.85 120.31 1098.06 121.9 1098.17L121.9 1103.62L77.82 1103.62L77.82 1098.17C79.22 1098.06 80.65 1097.94 82.14 1097.83C83.64 1097.72 84.92 1097.49 86.04 1097.15C87.72 1096.67 89 1095.8 89.8 1094.56C90.65 1093.32 91.06 1091.71 91.06 1089.74L91.06 1039.42C91.06 1037.53 90.62 1035.81 89.71 1034.26C88.84 1032.68 87.59 1031.39 86.04 1030.4C84.89 1029.75 83.52 1029.27 81.92 1028.96C80.33 1028.65 78.62 1028.45 76.82 1028.34L76.82 1022.97L106.75 1021.15L108.04 1022.3L108.04 1033.78L108.46 1033.78C109.93 1032.48 111.77 1030.88 113.96 1029.05C116.14 1027.21 118.22 1025.69 120.15 1024.53C122.42 1023.21 125.1 1022.1 128.19 1021.23C131.31 1020.36 134.8 1019.91 138.69 1019.91C147.31 1019.91 153.74 1022.36 157.91 1027.21C162.09 1032.09 164.15 1038.58 164.15 1046.67L164.15 1089.05C164.15 1091.01 164.52 1092.56 165.26 1093.74C165.99 1094.93 167.23 1095.86 169 1096.5C170.47 1097.07 171.71 1097.43 172.78 1097.66C173.83 1097.89 175.33 1098.06 177.19 1098.17L177.19 1103.62L177.19 1103.62Z" />
			<path id="path272" fill-rule="evenodd" class="shp1" d="M291.35 1102.12L259.95 1103.95L258.57 1102.79L258.57 1095.18L257.85 1095.02C254.68 1098.24 250.79 1100.84 246.11 1102.89C241.46 1104.93 236.67 1105.94 231.74 1105.94C226.63 1105.94 221.68 1104.89 216.91 1102.83C212.15 1100.78 207.98 1097.87 204.45 1094.12C200.88 1090.31 198 1085.75 195.92 1080.41C193.83 1075.06 192.77 1069.16 192.77 1062.73C192.77 1056.84 193.89 1051.26 196.13 1045.95C198.41 1040.67 201.49 1036.06 205.45 1032.07C209.16 1028.37 213.71 1025.44 219.1 1023.22C224.49 1021.02 229.97 1019.92 235.58 1019.92C239.79 1019.92 243.9 1020.4 247.95 1021.36C252 1022.35 255.49 1023.56 258.38 1025.05L258.38 996.71C258.38 994.39 257.97 992.27 257.11 990.39C256.27 988.47 255.08 987.03 253.55 986.04C251.84 985 249.57 984.25 246.67 983.76C243.78 983.31 240.66 982.98 237.32 982.75L237.32 977.61L274.09 975.73L275.46 976.97L275.46 1086.84C275.46 1088.79 275.86 1090.42 276.7 1091.78C277.51 1093.11 278.73 1094.26 280.32 1095.19C281.47 1095.88 283.12 1096.26 285.33 1096.43C287.52 1096.58 289.51 1096.72 291.35 1096.77L291.35 1102.12ZM258.38 1040.16C257.92 1038.72 257.11 1037.19 256.02 1035.53C254.92 1033.87 253.55 1032.37 251.9 1030.99C250.16 1029.61 248.07 1028.45 245.7 1027.55C243.33 1026.65 240.56 1026.2 237.41 1026.2C233.74 1026.2 230.37 1027.04 227.33 1028.76C224.24 1030.45 221.53 1032.91 219.17 1036.1C216.88 1039.2 215.11 1043.11 213.8 1047.88C212.5 1052.65 211.84 1057.92 211.84 1063.7C211.84 1068.33 212.34 1072.53 213.3 1076.32C214.27 1080.09 215.92 1083.6 218.23 1086.83C220.38 1089.94 223.09 1092.41 226.42 1094.28C229.72 1096.14 233.65 1097.1 238.23 1097.1C243.09 1097.1 247.14 1096.12 250.32 1094.19C253.53 1092.28 256.21 1090.13 258.38 1087.81L258.38 1040.16Z" />
			<path id="path274" class="shp1" d="M401.1 1102.12L371.78 1103.95L370.42 1102.79L370.42 1092.44L369.88 1092.44C368.42 1093.83 366.78 1095.32 364.93 1096.88C363.13 1098.45 361.01 1099.87 358.64 1101.14C355.9 1102.63 353.25 1103.76 350.7 1104.52C348.13 1105.3 344.52 1105.67 339.85 1105.67C331.87 1105.67 325.81 1103.33 321.63 1098.63C317.48 1093.91 315.39 1087.06 315.39 1078.09L315.39 1039.08C315.39 1037.1 314.97 1035.45 314.15 1034.09C313.34 1032.74 312.13 1031.56 310.54 1030.56C309.44 1029.92 308.08 1029.44 306.46 1029.13C304.8 1028.82 303.05 1028.62 301.25 1028.51L301.25 1023.12L331.26 1021.15L332.63 1022.3L332.63 1078.91C332.63 1084.81 334.09 1089.23 337.02 1092.22C339.95 1095.18 343.44 1096.67 347.52 1096.67C350.85 1096.67 353.84 1096.19 356.45 1095.26C359.07 1094.34 361.26 1093.24 363.03 1091.97C364.68 1090.81 366.11 1089.57 367.37 1088.3C368.61 1087 369.58 1085.79 370.23 1084.69L370.23 1038.5C370.23 1036.69 369.83 1035.08 368.95 1033.67C368.12 1032.26 366.93 1031.07 365.4 1030.09C364.31 1029.41 362.69 1029.02 360.51 1028.88C358.36 1028.75 355.94 1028.62 353.25 1028.51L353.25 1023.12L385.94 1021.15L387.31 1022.3L387.31 1087C387.31 1088.89 387.75 1090.47 388.58 1091.8C389.45 1093.12 390.64 1094.25 392.16 1095.18C393.26 1095.8 394.56 1096.19 396.06 1096.39C397.58 1096.55 399.26 1096.7 401.1 1096.76L401.1 1102.12Z" />
			<path id="path276" class="shp1" d="M476.06 1063.7C478.55 1065.68 480.49 1067.96 481.83 1070.56C483.16 1073.15 483.81 1076.32 483.81 1080.07C483.81 1087.62 480.71 1093.77 474.47 1098.57C468.25 1103.36 460.14 1105.76 450.24 1105.76C445 1105.76 440.17 1104.92 435.77 1103.19C431.35 1101.5 428.2 1099.92 426.3 1098.48L424.5 1103.87L417.65 1103.87L416.74 1075.52L423.04 1075.52C423.53 1077.66 424.56 1080.17 426.15 1083.02C427.71 1085.9 429.64 1088.5 431.88 1090.81C434.25 1093.24 437.11 1095.26 440.42 1096.93C443.76 1098.57 447.47 1099.41 451.6 1099.41C457.46 1099.41 461.94 1098.2 465.12 1095.8C468.27 1093.4 469.85 1089.99 469.85 1085.5C469.85 1083.2 469.36 1081.22 468.37 1079.53C467.33 1077.83 465.87 1076.37 463.94 1075.1C461.91 1073.83 459.45 1072.7 456.52 1071.68C453.6 1070.67 450.36 1069.66 446.77 1068.68C443.9 1067.87 440.73 1066.83 437.23 1065.48C433.72 1064.13 430.73 1062.55 428.24 1060.71C425.56 1058.8 423.37 1056.43 421.66 1053.64C419.95 1050.81 419.12 1047.52 419.12 1043.71C419.12 1037.05 421.85 1031.39 427.34 1026.76C432.81 1022.13 440.14 1019.82 449.33 1019.82C452.85 1019.82 456.46 1020.25 460.14 1021.06C463.82 1021.91 466.81 1022.9 469.14 1024.06L471.22 1019.74L477.81 1019.74L479.18 1045.94L472.88 1045.94C471.6 1040.1 468.83 1035.36 464.6 1031.7C460.39 1028.02 455.22 1026.2 449.14 1026.2C444.15 1026.2 440.23 1027.32 437.36 1029.58C434.49 1031.83 433.06 1034.57 433.06 1037.76C433.06 1040.24 433.53 1042.3 434.49 1043.97C435.44 1045.6 436.84 1047.01 438.73 1048.16C440.58 1049.26 442.84 1050.3 445.62 1051.27C448.39 1052.23 451.82 1053.32 455.91 1054.53C459.92 1055.69 463.69 1057.05 467.24 1058.58C470.83 1060.12 473.76 1061.84 476.06 1063.7" />
			<path id="path278" class="shp1" d="M557.53 1100.06C553.56 1101.55 549.83 1102.79 546.31 1103.81C542.75 1104.83 538.46 1105.35 533.35 1105.35C525.81 1105.35 520.49 1103.62 517.43 1100.17C514.34 1096.73 512.82 1091.88 512.82 1085.59L512.82 1030.4L496.56 1030.4L496.56 1022.47L513.16 1022.47L513.16 997.11L529.8 997.11L529.8 1022.47L555.63 1022.47L555.63 1030.4L529.96 1030.4L529.96 1075.95C529.96 1079.36 530.11 1082.21 530.39 1084.49C530.64 1086.77 531.3 1088.78 532.35 1090.47C533.32 1092.08 534.78 1093.29 536.72 1094.1C538.67 1094.93 541.29 1095.34 544.57 1095.34C546.1 1095.34 548.33 1095.24 551.26 1094.98C554.23 1094.72 556.31 1094.42 557.53 1094.02L557.53 1100.06L557.53 1100.06Z" />
			<path id="path280" class="shp1" d="M639.9 1032.63C639.9 1035.45 639.12 1037.92 637.63 1040.13C636.09 1042.3 633.76 1043.37 630.58 1043.37C627.18 1043.37 624.57 1042.58 622.79 1040.97C620.98 1039.39 620.09 1037.62 620.09 1035.7C620.09 1034.49 620.21 1033.38 620.4 1032.4C620.61 1031.39 620.83 1030.4 620.98 1029.41C618.14 1029.41 614.79 1030.45 610.96 1032.54C607.12 1034.65 603.87 1037.62 601.2 1041.48L601.2 1088.92C601.2 1090.84 601.61 1092.41 602.42 1093.61C603.26 1094.82 604.54 1095.75 606.31 1096.34C607.84 1096.9 609.79 1097.3 612.2 1097.58C614.6 1097.85 616.68 1098.06 618.43 1098.17L618.43 1103.62L570.98 1103.62L570.98 1098.17C572.38 1098.06 573.81 1097.94 575.31 1097.83C576.8 1097.72 578.09 1097.49 579.2 1097.15C580.89 1096.67 582.16 1095.8 582.98 1094.56C583.82 1093.32 584.23 1091.71 584.23 1089.74L584.23 1039.42C584.23 1037.7 583.78 1036.04 582.89 1034.37C582.01 1032.71 580.76 1031.39 579.2 1030.4C578.05 1029.75 576.68 1029.27 575.09 1028.96C573.51 1028.65 571.8 1028.45 569.99 1028.34L569.99 1022.97L599.93 1021.15L601.2 1022.3L601.2 1033.78L601.63 1033.78C605.41 1029.32 609.61 1025.94 614.25 1023.63C618.87 1021.32 623.11 1020.16 626.94 1020.16C630.77 1020.16 633.89 1021.29 636.29 1023.54C638.68 1025.8 639.9 1028.85 639.9 1032.63" />
			<path id="path282" class="shp1" d="M695.78 1103.62L652.26 1103.62L652.26 1098.17C653.66 1098.06 655.09 1097.94 656.59 1097.83C658.09 1097.72 659.36 1097.49 660.45 1097.15C662.17 1096.67 663.45 1095.8 664.25 1094.56C665.07 1093.32 665.5 1091.71 665.5 1089.74L665.5 1039.42C665.5 1037.65 665.03 1036.04 664.16 1034.57C663.29 1033.1 662.05 1031.89 660.45 1030.9C659.3 1030.23 657.65 1029.66 655.44 1029.21C653.25 1028.74 651.27 1028.45 649.42 1028.34L649.42 1022.97L681.21 1021.15L682.48 1022.3L682.48 1088.75C682.48 1090.67 682.89 1092.28 683.69 1093.55C684.51 1094.79 685.81 1095.75 687.59 1096.34C688.93 1096.85 690.24 1097.24 691.51 1097.55C692.79 1097.83 694.19 1098.06 695.78 1098.17L695.78 1103.62L695.78 1103.62ZM684.29 989.02C684.29 992.15 683.17 994.89 680.86 997.22C678.59 999.57 675.78 1000.76 672.42 1000.76C669.34 1000.76 666.63 999.62 664.35 997.4C662.08 995.17 660.92 992.6 660.92 989.75C660.92 986.72 662.08 984.09 664.35 981.84C666.63 979.57 669.34 978.44 672.42 978.44C675.91 978.44 678.75 979.49 680.95 981.61C683.17 983.75 684.29 986.2 684.29 989.02Z" />
			<path id="path284" fill-rule="evenodd" class="shp1" d="M776.17 1099.97C769.83 1103.84 762.54 1105.76 754.36 1105.76C747.1 1105.76 740.77 1104.6 735.32 1102.29C729.86 1099.97 725.38 1096.85 721.85 1092.86C718.34 1088.92 715.69 1084.26 713.94 1078.98C712.23 1073.69 711.36 1068.11 711.36 1062.22C711.36 1056.93 712.29 1051.75 714.13 1046.64C715.99 1041.53 718.7 1036.97 722.32 1032.88C725.78 1028.99 730.08 1025.83 735.22 1023.43C740.37 1021.03 746.13 1019.82 752.52 1019.82C759.09 1019.82 764.73 1020.75 769.41 1022.64C774.1 1024.5 777.91 1027.07 780.8 1030.32C783.61 1033.41 785.7 1037.05 787.07 1041.23C788.44 1045.43 789.12 1049.97 789.12 1054.85L789.12 1060.32L729.52 1060.32C729.52 1065.65 730.08 1070.5 731.21 1074.85C732.32 1079.22 734.1 1083.02 736.56 1086.35C738.93 1089.54 742.01 1092.05 745.85 1093.91C749.68 1095.75 754.26 1096.67 759.56 1096.67C764.98 1096.67 769.65 1095.52 773.57 1093.24C777.47 1090.95 781.28 1086.83 784.92 1080.88L791.3 1084.43C787.53 1090.95 782.49 1096.12 776.17 1099.97ZM771.14 1053.38C771.14 1050.29 770.86 1046.98 770.28 1043.46C769.68 1039.93 768.78 1036.99 767.5 1034.62C766.1 1032.09 764.17 1030.03 761.74 1028.42C759.31 1026.81 756.16 1026.02 752.33 1026.02C745.94 1026.02 740.64 1028.42 736.41 1033.25C732.18 1038.06 729.89 1044.78 729.52 1053.38L771.14 1053.38Z" />
			<path id="path286" class="shp1" d="M865.63 1063.7C868.13 1065.68 870.06 1067.96 871.4 1070.56C872.74 1073.15 873.4 1076.32 873.4 1080.07C873.4 1087.62 870.28 1093.77 864.05 1098.57C857.82 1103.36 849.72 1105.76 839.81 1105.76C834.58 1105.76 829.74 1104.92 825.35 1103.19C820.93 1101.5 817.78 1099.92 815.88 1098.48L814.08 1103.87L807.22 1103.87L806.31 1075.52L812.61 1075.52C813.1 1077.66 814.15 1080.17 815.73 1083.02C817.29 1085.9 819.21 1088.5 821.46 1090.81C823.83 1093.24 826.69 1095.26 829.99 1096.93C833.33 1098.57 837.03 1099.41 841.18 1099.41C847.04 1099.41 851.52 1098.2 854.7 1095.8C857.85 1093.4 859.44 1089.99 859.44 1085.5C859.44 1083.2 858.94 1081.22 857.94 1079.53C856.91 1077.83 855.45 1076.37 853.52 1075.1C851.49 1073.83 849.03 1072.7 846.1 1071.68C843.17 1070.67 839.93 1069.66 836.36 1068.68C833.49 1067.87 830.31 1066.83 826.82 1065.48C823.29 1064.13 820.3 1062.55 817.81 1060.71C815.13 1058.8 812.96 1056.43 811.24 1053.64C809.52 1050.81 808.68 1047.52 808.68 1043.71C808.68 1037.05 811.42 1031.39 816.91 1026.76C822.39 1022.13 829.71 1019.82 838.9 1019.82C842.42 1019.82 846.04 1020.25 849.72 1021.06C853.39 1021.91 856.38 1022.9 858.72 1024.06L860.81 1019.74L867.38 1019.74L868.76 1045.94L862.46 1045.94C861.18 1040.1 858.41 1035.36 854.16 1031.7C849.97 1028.02 844.79 1026.2 838.72 1026.2C833.73 1026.2 829.8 1027.32 826.94 1029.58C824.07 1031.83 822.64 1034.57 822.64 1037.76C822.64 1040.24 823.11 1042.3 824.07 1043.97C825.01 1045.6 826.41 1047.01 828.31 1048.16C830.15 1049.26 832.42 1050.3 835.2 1051.27C837.97 1052.23 841.4 1053.32 845.48 1054.53C849.5 1055.69 853.27 1057.05 856.82 1058.58C860.41 1060.12 863.33 1061.84 865.63 1063.7" />
			<path id="path288" class="shp1" d="M1038.46 1068.76L1035.72 1103.62L934.5 1103.62L934.5 1097.75C935.96 1097.62 938.07 1097.43 940.85 1097.15C943.62 1096.9 945.56 1096.53 946.64 1096.09C948.45 1095.37 949.79 1094.34 950.6 1092.95C951.44 1091.56 951.84 1089.83 951.84 1087.68L951.84 1003.72C951.84 1001.85 951.5 1000.2 950.78 998.76C950.1 997.31 948.7 996.16 946.64 995.29C945.23 994.64 943.28 993.99 940.75 993.34C938.23 992.72 936.14 992.35 934.5 992.23L934.5 986.37L989.17 986.37L989.17 992.23C987.46 992.28 985.28 992.55 982.57 993.06C979.85 993.56 977.89 993.99 976.68 994.38C974.59 995.03 973.19 996.16 972.41 997.77C971.66 999.37 971.29 1001.06 971.29 1002.9L971.29 1081.64C971.29 1085.27 971.47 1088.1 971.88 1090.11C972.28 1092.11 973.19 1093.66 974.66 1094.79C976.06 1095.78 978.14 1096.42 980.91 1096.7C983.69 1097.01 987.55 1097.15 992.54 1097.15C994.81 1097.15 997.14 1097.13 999.58 1097.02C1002.01 1096.9 1004.31 1096.68 1006.53 1096.35C1008.64 1096.01 1010.61 1095.56 1012.41 1094.99C1014.2 1094.4 1015.53 1093.67 1016.36 1092.78C1018.86 1090.25 1021.76 1086.42 1025.09 1081.29C1028.4 1076.13 1030.71 1071.95 1031.98 1068.77L1038.46 1068.77L1038.46 1068.76Z" />
			<path id="path290" class="shp1" d="M1093.16 1103.62L1049.65 1103.62L1049.65 1098.17C1051.04 1098.06 1052.48 1097.94 1053.97 1097.83C1055.47 1097.72 1056.75 1097.49 1057.84 1097.15C1059.55 1096.67 1060.82 1095.8 1061.63 1094.56C1062.45 1093.32 1062.87 1091.71 1062.87 1089.74L1062.87 1039.42C1062.87 1037.65 1062.42 1036.04 1061.54 1034.57C1060.68 1033.1 1059.42 1031.89 1057.84 1030.9C1056.68 1030.23 1055.03 1029.66 1052.81 1029.21C1050.63 1028.74 1048.64 1028.45 1046.8 1028.34L1046.8 1022.97L1078.59 1021.15L1079.86 1022.3L1079.86 1088.75C1079.86 1090.67 1080.27 1092.28 1081.08 1093.55C1081.89 1094.79 1083.19 1095.75 1084.97 1096.34C1086.31 1096.85 1087.61 1097.24 1088.89 1097.55C1090.17 1097.83 1091.57 1098.06 1093.16 1098.17L1093.16 1103.62L1093.16 1103.62ZM1081.67 989.02C1081.67 992.15 1080.54 994.89 1078.24 997.22C1075.97 999.57 1073.16 1000.76 1069.8 1000.76C1066.7 1000.76 1064 999.62 1061.73 997.4C1059.46 995.17 1058.3 992.6 1058.3 989.75C1058.3 986.72 1059.46 984.09 1061.73 981.84C1064 979.57 1066.7 978.44 1069.8 978.44C1073.29 978.44 1076.12 979.49 1078.33 981.61C1080.54 983.75 1081.67 986.2 1081.67 989.02Z" />
			<path id="path292" class="shp1" d="M1262.9 1103.62L1219 1103.62L1219 1098.17C1220.4 1098.06 1221.8 1097.94 1223.23 1097.83C1224.67 1097.72 1225.94 1097.49 1227.03 1097.15C1228.75 1096.67 1229.99 1095.8 1230.81 1094.56C1231.64 1093.32 1232.06 1091.71 1232.06 1089.74L1232.06 1047.69C1232.06 1041.93 1230.62 1037.53 1227.73 1034.4C1224.82 1031.3 1221.21 1029.75 1216.91 1029.75C1213.92 1029.75 1211.12 1030.17 1208.5 1030.99C1205.89 1031.8 1203.48 1032.97 1201.3 1034.46C1199.52 1035.67 1198.06 1036.97 1196.88 1038.37C1195.66 1039.79 1194.79 1040.95 1194.16 1041.9L1194.16 1088.92C1194.16 1090.84 1194.54 1092.41 1195.25 1093.66C1196 1094.9 1197.25 1095.86 1199 1096.5C1200.4 1097.01 1201.68 1097.39 1202.79 1097.63C1203.91 1097.86 1205.38 1098.06 1207.23 1098.17L1207.23 1103.62L1164.23 1103.62L1164.23 1098.17C1165.63 1098.06 1167 1097.94 1168.31 1097.83C1169.61 1097.72 1170.8 1097.49 1171.89 1097.15C1173.6 1096.67 1174.85 1095.8 1175.69 1094.56C1176.5 1093.32 1176.91 1091.71 1176.91 1089.74L1176.91 1047.69C1176.91 1041.93 1175.47 1037.53 1172.57 1034.4C1169.68 1031.3 1166.09 1029.75 1161.77 1029.75C1158.77 1029.75 1155.99 1030.17 1153.38 1031.02C1150.77 1031.89 1148.34 1033.04 1146.15 1034.54C1144.38 1035.75 1142.92 1037.1 1141.7 1038.63C1140.49 1040.16 1139.55 1041.28 1138.96 1042.04L1138.96 1088.75C1138.96 1090.61 1139.36 1092.19 1140.24 1093.46C1141.07 1094.73 1142.34 1095.69 1144.07 1096.34C1145.34 1096.9 1146.65 1097.3 1147.99 1097.58C1149.33 1097.85 1150.83 1098.06 1152.45 1098.17L1152.45 1103.62L1108.74 1103.62L1108.74 1098.17C1110.14 1098.06 1111.57 1097.94 1113.07 1097.83C1114.56 1097.72 1115.84 1097.49 1116.96 1097.15C1118.64 1096.67 1119.92 1095.8 1120.74 1094.56C1121.57 1093.32 1121.98 1091.71 1121.98 1089.74L1121.98 1039.08C1121.98 1037.31 1121.53 1035.73 1120.64 1034.31C1119.77 1032.94 1118.52 1031.73 1116.96 1030.73C1115.81 1030.09 1114.38 1029.55 1112.67 1029.13C1110.94 1028.71 1109.2 1028.45 1107.37 1028.34L1107.37 1022.97L1137.49 1021.15L1138.77 1022.3L1138.77 1033.96L1139.39 1033.96C1140.92 1032.57 1142.79 1030.96 1144.97 1029.07C1147.15 1027.21 1149.2 1025.69 1151.08 1024.53C1153.22 1023.21 1155.88 1022.1 1159.09 1021.23C1162.26 1020.36 1165.71 1019.91 1169.43 1019.91C1175.28 1019.91 1180.3 1021.35 1184.5 1024.17C1188.68 1027.01 1191.7 1030.43 1193.55 1034.46C1195.72 1032.51 1197.65 1030.82 1199.34 1029.38C1200.98 1027.92 1203.2 1026.37 1205.94 1024.7C1208.25 1023.26 1210.99 1022.1 1214.11 1021.23C1217.25 1020.36 1220.74 1019.91 1224.58 1019.91C1232.18 1019.91 1238.19 1022.16 1242.65 1026.68C1247.07 1031.22 1249.31 1038.15 1249.31 1047.52L1249.31 1088.92C1249.31 1090.84 1249.65 1092.41 1250.4 1093.66C1251.12 1094.9 1252.36 1095.86 1254.14 1096.5C1255.55 1097.01 1256.92 1097.39 1258.29 1097.63C1259.66 1097.86 1261.21 1098.06 1262.9 1098.17L1262.9 1103.62L1262.9 1103.62Z" />
			<path id="path294" class="shp1" d="M1321.61 1103.62L1278.09 1103.62L1278.09 1098.17C1279.5 1098.06 1280.93 1097.94 1282.43 1097.83C1283.92 1097.72 1285.2 1097.49 1286.29 1097.15C1288 1096.67 1289.28 1095.8 1290.08 1094.56C1290.9 1093.32 1291.34 1091.71 1291.34 1089.74L1291.34 1039.42C1291.34 1037.65 1290.87 1036.04 1289.99 1034.57C1289.12 1033.1 1287.88 1031.89 1286.29 1030.9C1285.13 1030.23 1283.48 1029.66 1281.27 1029.21C1279.09 1028.74 1277.11 1028.45 1275.26 1028.34L1275.26 1022.97L1307.04 1021.15L1308.32 1022.3L1308.32 1088.75C1308.32 1090.67 1308.72 1092.28 1309.53 1093.55C1310.35 1094.79 1311.65 1095.75 1313.43 1096.34C1314.76 1096.85 1316.07 1097.24 1317.36 1097.55C1318.63 1097.83 1320.03 1098.06 1321.61 1098.17L1321.61 1103.62L1321.61 1103.62ZM1310.13 989.02C1310.13 992.15 1309.01 994.89 1306.69 997.22C1304.43 999.57 1301.62 1000.76 1298.25 1000.76C1295.17 1000.76 1292.46 999.62 1290.18 997.4C1287.91 995.17 1286.76 992.6 1286.76 989.75C1286.76 986.72 1287.91 984.09 1290.18 981.84C1292.46 979.57 1295.17 978.44 1298.25 978.44C1301.75 978.44 1304.58 979.49 1306.79 981.61C1309.01 983.75 1310.13 986.2 1310.13 989.02" />
			<path id="path296" class="shp1" d="M1392.77 1100.06C1388.82 1101.55 1385.09 1102.79 1381.56 1103.81C1378.01 1104.83 1373.7 1105.35 1368.6 1105.35C1361.06 1105.35 1355.73 1103.62 1352.68 1100.17C1349.6 1096.73 1348.07 1091.88 1348.07 1085.59L1348.07 1030.4L1331.8 1030.4L1331.8 1022.47L1348.41 1022.47L1348.41 997.11L1365.04 997.11L1365.04 1022.47L1390.87 1022.47L1390.87 1030.4L1365.2 1030.4L1365.2 1075.95C1365.2 1079.36 1365.36 1082.21 1365.63 1084.49C1365.89 1086.77 1366.54 1088.78 1367.6 1090.47C1368.57 1092.08 1370.04 1093.29 1371.96 1094.1C1373.93 1094.93 1376.54 1095.34 1379.82 1095.34C1381.34 1095.34 1383.58 1095.24 1386.51 1094.98C1389.47 1094.72 1391.56 1094.42 1392.77 1094.02L1392.77 1100.06L1392.77 1100.06Z" />
			<path id="path298" fill-rule="evenodd" class="shp1" d="M1471.03 1099.97C1464.71 1103.84 1457.42 1105.76 1449.22 1105.76C1441.96 1105.76 1435.65 1104.6 1430.19 1102.29C1424.73 1099.97 1420.25 1096.85 1416.73 1092.86C1413.2 1088.92 1410.55 1084.26 1408.81 1078.98C1407.1 1073.69 1406.23 1068.11 1406.23 1062.22C1406.23 1056.93 1407.17 1051.75 1409 1046.64C1410.87 1041.53 1413.58 1036.97 1417.19 1032.88C1420.66 1028.99 1424.96 1025.83 1430.1 1023.43C1435.23 1021.03 1441 1019.82 1447.38 1019.82C1453.96 1019.82 1459.59 1020.75 1464.27 1022.64C1468.98 1024.5 1472.78 1027.07 1475.67 1030.32C1478.48 1033.41 1480.56 1037.05 1481.94 1041.23C1483.31 1045.43 1484 1049.97 1484 1054.85L1484 1060.32L1424.38 1060.32C1424.38 1065.65 1424.96 1070.5 1426.08 1074.85C1427.2 1079.22 1428.98 1083.02 1431.43 1086.35C1433.8 1089.54 1436.89 1092.05 1440.71 1093.91C1444.54 1095.75 1449.13 1096.67 1454.43 1096.67C1459.84 1096.67 1464.53 1095.52 1468.45 1093.24C1472.34 1090.95 1476.14 1086.83 1479.79 1080.88L1486.18 1084.43C1482.4 1090.95 1477.36 1096.12 1471.03 1099.97ZM1465.14 1043.46C1464.56 1039.93 1463.65 1036.99 1462.37 1034.62C1460.97 1032.09 1459.04 1030.03 1456.61 1028.42C1454.18 1026.81 1451.03 1026.02 1447.2 1026.02C1440.81 1026.02 1435.52 1028.42 1431.27 1033.25C1427.04 1038.06 1424.77 1044.78 1424.38 1053.38L1466.02 1053.38C1466.02 1050.29 1465.74 1046.98 1465.14 1043.46Z" />
			<path id="path300" fill-rule="evenodd" class="shp1" d="M1599.67 1102.12L1568.26 1103.95L1566.89 1102.79L1566.89 1095.18L1566.18 1095.02C1563 1098.24 1559.11 1100.84 1554.43 1102.89C1549.79 1104.93 1544.99 1105.94 1540.07 1105.94C1534.96 1105.94 1530.01 1104.89 1525.23 1102.83C1520.47 1100.78 1516.3 1097.87 1512.78 1094.12C1509.19 1090.31 1506.32 1085.75 1504.24 1080.41C1502.15 1075.06 1501.1 1069.16 1501.1 1062.73C1501.1 1056.84 1502.21 1051.26 1504.46 1045.95C1506.73 1040.67 1509.82 1036.06 1513.77 1032.07C1517.48 1028.37 1522.03 1025.44 1527.42 1023.22C1532.81 1021.02 1538.29 1019.92 1543.9 1019.92C1548.11 1019.92 1552.22 1020.4 1556.27 1021.36C1560.32 1022.35 1563.81 1023.56 1566.7 1025.05L1566.7 996.71C1566.7 994.39 1566.3 992.27 1565.43 990.39C1564.59 988.47 1563.41 987.03 1561.88 986.04C1560.17 985 1557.9 984.25 1554.99 983.76C1552.09 983.31 1548.98 982.98 1545.65 982.75L1545.65 977.61L1582.41 975.73L1583.78 976.97L1583.78 1086.84C1583.78 1088.79 1584.18 1090.42 1585.04 1091.78C1585.83 1093.11 1587.05 1094.26 1588.63 1095.19C1589.79 1095.88 1591.44 1096.26 1593.66 1096.43C1595.84 1096.58 1597.84 1096.72 1599.67 1096.77L1599.67 1102.12ZM1566.7 1040.16C1566.25 1038.72 1565.43 1037.19 1564.34 1035.53C1563.25 1033.87 1561.88 1032.37 1560.23 1030.99C1558.48 1029.61 1556.39 1028.45 1554.02 1027.55C1551.66 1026.65 1548.88 1026.2 1545.74 1026.2C1542.06 1026.2 1538.7 1027.04 1535.65 1028.76C1532.56 1030.45 1529.85 1032.91 1527.48 1036.1C1525.21 1039.2 1523.43 1043.11 1522.13 1047.88C1520.82 1052.65 1520.15 1057.92 1520.15 1063.7C1520.15 1068.33 1520.66 1072.53 1521.63 1076.32C1522.58 1080.09 1524.24 1083.6 1526.54 1086.83C1528.7 1089.94 1531.41 1092.41 1534.74 1094.28C1538.04 1096.14 1541.97 1097.1 1546.55 1097.1C1551.4 1097.1 1555.46 1096.12 1558.64 1094.19C1561.85 1092.28 1564.53 1090.13 1566.7 1087.81L1566.7 1040.16Z" />
		</g>
	</g>
</svg>