<svg version="1.2" xmlns="http://www.w3.org/2000/svg" viewBox="0 0 1551 532" width="1551" height="532">
	<title>State_Bank_of_India-svg</title>
	<style>
		.s0 { fill: #292075 } 
		.s1 { fill: #00b5ef } 
	</style>
	<g id="layer1">
		<g id="g9996">
			<path id="path2868" class="s0" d="m917 270c-28.3-23.5-65-38.6-97.3-52-44.5-18.4-83-34.3-83-63.8 0-12.9 6-24.7 17-33.3 11.5-9 27.6-13.9 45.4-13.9 55.7 0 100.1 39.4 100.5 39.7l10.9 9.9 49.4-92.6-5.7-5.9c-2.1-2.3-54.1-56-154.5-56-48.1 0-92.4 15.4-124.7 43.3-32.7 28.3-50.8 67.5-50.8 110.1 0 41.7 16.1 75.3 49.3 102.9 27.9 23.2 62.6 38.2 96.3 52.7 45.8 19.7 85.4 36.8 85.4 67.2 0 23.1-15.6 47.9-59.6 47.9-63 0-113.6-48-114.1-48.5l-9.5-9.2-61.4 85.1 6.2 6.8c0.6 0.7 16.5 18.3 46.3 35.7 27.3 16 72.3 35 131.1 35 51.5 0 95.3-15.8 126.8-45.6 29.7-28.1 46-66.9 46-109.3 0-43.5-16.4-78.3-50-106.2z"/>
			<path id="path2870" class="s0" d="m1436 9.7h115v513.8h-115z"/>
			<path id="path2874" fill-rule="evenodd" class="s0" d="m1385.2 369.3c0 49.6-19.1 90.1-55.4 117.4-31.9 24-75.4 36.7-125.6 36.7h-189.3v-513.7h187.2c47.1 0 87.3 12.3 116.2 35.5 30.7 24.6 46.9 60.1 46.9 102.7 0 42.1-16.9 79-46.9 103 18.6 9.6 34.2 23.8 45.5 41.7 14 21.9 21.4 48.5 21.4 76.7zm-110.7-5.5c0-17.2-4.8-29.2-16.5-41.3-11.2-11.5-27.4-17.6-46.9-17.6h-35.6v-94.6h26.6c35.3 0 53.1-17.2 53.1-51.3 0-33.7-19.8-53.1-54.4-53.1h-77.3v321.4h87.6c39.1 0 63.4-24.3 63.4-63.5z"/>
			<path id="path2878" class="s1" d="m266.6 0.5c-146.7 0-265.6 119.2-265.6 266.2 0 137.8 104.5 251.2 238.4 264.8v-193.4c-28.8-10.9-49.3-38.8-49.3-71.4 0-42.2 34.3-76.5 76.5-76.5 42.1 0 76.5 34.3 76.5 76.5 0 32.6-20.6 60.5-49.4 71.4v193.4c134-13.6 238.5-127 238.5-264.8 0-147-118.9-266.2-265.6-266.2z"/>
		</g>
	</g>
</svg>