<svg version="1.2" xmlns="http://www.w3.org/2000/svg" viewBox="0 0 1550 370" width="1550" height="370"><style></style><path  d="m555.7 213.9l-44.6-30.5c-17.4-12.3-25.1-23.5-25.1-36.9 0-17.1 14.2-27.8 34.3-27.8 25.6 0 37.6 11.8 52.8 11.8 12 0 20.2-8 20.2-19.8 0-8.5-4.4-15.5-15.8-20.8-18-8.6-37.6-11.8-58.8-11.8-22.3 0-41.9 6.4-56.1 17.1-2.7 2.2-5.4 4.3-8.1 7-16.4 17.1-30 42.2-40.9 77.5l-12.5 40.6c-22.3 71.6-57.7 105.8-112.7 105.8-60.4 0-98.5-41.2-98.5-102.1 0-60.9 38.1-102.6 93.1-102.6q3.6 0 7 0.2 0.4 0 0.8 0.1 3.1 0.1 6.1 0.5 0.5 0 1 0.1 3 0.3 5.9 0.8 0.4 0.1 0.9 0.1 3 0.5 5.9 1.2 0.3 0 0.5 0.1c8.6 1.9 16.6 4.7 24.2 8.2 7 3.2 13 4.2 18.5 4.2 13 0 21.7-8.5 21.7-21.3 0-8-4.9-16.1-16.3-21.4-20.7-10.1-47.4-16-76.2-16-86 0-145.4 59.8-145.4 146.9 0 23 4.2 44 12 62.5-11.3 24.1-28.6 36.9-51.2 36.9-27.2 0-45.2-15.5-45.2-50.7v-150.8h63.7c14.7 0 24.5-8.5 24.5-20.8 0-12.3-9.8-20.8-24.5-20.8h-63.6v-54.6c0-16-10.9-26.7-26.2-26.7-15.2 0-26.1 10.7-26.1 26.7v105.8 147c0 58.8 34.3 89.8 92.5 89.8 13.1 0 25.1-2.2 36-5.9 19-7 34.4-19.4 45.2-37.1 25.9 27.4 64.2 43.5 112.1 43.5 25 0 46.8-4.8 66.4-15 39.7-20.3 68.1-61.4 87.7-124.5l11.4-36.8c7.6 10 18.3 19.5 32.7 29.4l40.8 27.7c18.5 12.9 26.1 23.6 26.1 39 0 23-18.5 38.5-45.2 38.5-25.6 0-47.3-12.8-59.3-12.8-12 0-20.1 8-20.1 19.8 0 8.5 4.3 15.5 15.7 20.8 15.8 7.5 41.4 13.9 64.3 13.9 28.8 0 52.8-8.5 69.7-23.5 15.2-13.9 24.5-33.7 24.5-56.7-0.1-32-13.1-53.4-45.8-75.8z"/><path  d="m701.4 92.2h36.7v-65.6h26.1v-26.5h-88.8v26.5h26z"/><path  d="m791.2 92.2l18.7-55.1 18.7 55.1h35.9l-35.2-92.1h-38.8l-35.1 92.1z"/><path  d="m881.7 92.2h36.7v-65.6h26v-26.5h-88.7v26.5h26z"/><path  d="m971.4 92.2l18.7-55.1 18.7 55.1h35.9l-35.2-92.1h-38.8l-35.1 92.1z"/><path  d="m1323.6 158.1c4.5 10.4 10.5 21.7 16.5 31.7l24 40.5h17.4v-92.1h-15.6v32.2c0 14.1 0.3 25.9 1.5 38.1l-0.3 0.1c-4.2-10-9.6-20.7-15.6-30.8l-23.8-39.6h-19.2v92.1h15.5v-32.9c0-15.1-0.2-27.3-0.9-39.2z"/><path  d="m1240.3 204.3h29.2l8.3 26h18.1l-29.9-92.1h-21.4l-29.5 92.1h17.4zm9.8-35.4c1.7-5.5 3.1-11.9 4.4-17.3h0.3c1.4 5.4 2.9 11.7 4.6 17.3l7.3 22.7h-23.7z"/><path  d="m966.6 217.8c-8.6 0-16.8-2.7-22.2-5.8l-3.8 13.9c5.1 3.1 15.2 5.9 24.9 5.9 23.7 0 34.8-12.9 34.8-27.7 0-13.2-7.6-21.3-23.6-27.4-12.2-4.6-17.6-8-17.6-15 0-5.5 4.6-11.1 15.2-11.1 8.7 0 15.1 2.6 18.4 4.3l4-13.5c-4.8-2.5-12.1-4.6-22-4.6-20 0-32.6 11.4-32.6 26.5 0 13.2 9.7 21.3 24.9 26.7 11.6 4.3 16.3 8.4 16.3 15.3 0 7.5-6 12.5-16.7 12.5z"/><path  d="m725.3 150.7c7.5 0 13.7 1.7 17.9 3.6l3.7-13.4c-3.4-1.8-11.2-4.1-22.3-4.1-28.1 0-49.2 18.3-49.2 48.6 0 28 17.8 46.4 46.9 46.4 11.2 0 19.9-2.2 23.9-4.2l-2.8-13.3c-4.4 2-11.5 3.4-18.3 3.4-20.2 0-32-12.9-32-33.2 0-22.1 13.5-33.8 32.2-33.8z"/><path  d="m1194.7 230.3v-77.9h26.5v-14.2h-69.6v14.2h26.3v77.9z"/><path  d="m1530.2 138.2l-11 23.6c-3.2 6.7-5.7 12.4-8 18.3h-0.3c-2.5-6.2-4.9-11.5-8-18.2l-10.9-23.7h-19.2l29 53.8v38.3h16.8v-38.8l30.6-53.2h-19z"/><path  d="m795.5 136.7c-26 0-43.8 20-43.8 48.3 0 27 16.4 46.9 42.4 46.9h0.2c25.1 0 43.8-17.7 43.8-48.5 0-26.4-15.8-46.7-42.6-46.7zm-0.7 81.7h-0.1c-16.1 0-25.5-15.5-25.4-33.8 0-18.4 8.8-34.4 25.6-34.4 16.7 0 25.3 16.4 25.3 33.8 0 19.2-9.2 34.4-25.4 34.4z"/><path  d="m1445.9 150.7c7.5 0 13.6 1.7 17.9 3.6l3.6-13.4c-3.4-1.8-11.2-4.1-22.2-4.1-28.1 0-49.2 18.3-49.2 48.6 0 28 17.7 46.4 46.9 46.4 11.1 0 19.9-2.2 23.8-4.2l-2.7-13.3c-4.5 2-11.6 3.4-18.4 3.4-20.2 0-32-12.9-32-33.2 0-22.1 13.5-33.8 32.3-33.8z"/><path  d="m1123 138.2h-16.7v92.1h54.6v-14.1h-37.9z"/><path  d="m1087.1 190.8v-52.5h-16.8v53.7c0 18-7.2 26.3-19.3 26.3-11.4 0-18.9-8.4-18.9-26.3v-53.7h-16.7v52.7c0 28.9 13.8 40.9 35 40.9 22.2 0 36.7-12.7 36.7-41.1z"/><path  d="m925.5 138.2h-15.5v32.2c0 14.1 0.3 25.9 1.5 38.1l-0.3 0.1c-4.3-10-9.6-20.7-15.7-30.8l-23.7-39.6h-19.2v92.1h15.5v-32.9c0-15.1-0.2-27.3-0.9-39.2l0.5-0.1c4.5 10.4 10.5 21.7 16.5 31.8l24 40.5h17.3z"/><path fill-rule="evenodd" d="m997.3 276.4v92h-16.8v-92z"/><path  d="m865 325.3v-0.4c8.6-3.1 16.6-11.1 16.6-22.8 0-7.9-2.9-14.2-7.9-18.4-6.1-5.1-16.7-7.3-28.1-7.3-11.4 0-18.9 0.8-25.3 1.9v90.1h16.6v-37.5h8.4c9.4 0.2 13.8 4.1 16.4 16 2.5 11.3 4.7 18.9 6.1 21.5h17.1c-1.8-3.5-4.3-14-7.2-25.4-2.2-8.9-6.1-15.2-12.7-17.7zm-18.3-6.7h-9.8v-28.9c1.7-0.4 5.1-0.8 10.3-0.8 10.8 0 17.8 4.7 17.8 14.7 0 9.1-7 15-18.3 15z"/><path  d="m939.4 318.4c-3.6 11.2-6.9 22.5-9.3 33.3h-0.3c-2.4-11.1-5.6-21.9-9-33.5l-12.6-41.9h-18.3l29.8 92.1h19.2l31.8-92.1h-17.9z"/><path  d="m1113.5 327.6h34.6v-13.7h-34.6v-23.7h36.7v-13.8h-53.5v92h55.5v-13.8h-38.7z"/><path  d="m1061.6 288.8c7.5 0 13.7 1.6 17.9 3.6l3.7-13.4c-3.4-1.9-11.2-4.1-22.3-4.1-28.1 0-49.2 18.3-49.2 48.5 0 28.1 17.8 46.5 46.9 46.5 11.2 0 19.9-2.2 23.9-4.2l-2.8-13.3c-4.4 2-11.5 3.3-18.3 3.3-20.2 0-32-12.8-32-33.1 0-22.1 13.5-33.8 32.2-33.8z"/><path  d="m711.5 314.8c-12.3-4.7-17.6-8-17.6-15.1 0-5.4 4.5-11.1 15.1-11.1 8.7 0 15.1 2.7 18.4 4.4l4-13.6c-4.8-2.4-12.1-4.5-22-4.5-19.9 0-32.5 11.4-32.5 26.4 0 13.2 9.6 21.4 24.8 26.8 11.6 4.2 16.3 8.3 16.3 15.3 0 7.5-6 12.5-16.7 12.5-8.5 0-16.8-2.7-22.2-5.8l-3.7 13.9c5 3.1 15.1 5.9 24.8 5.9 23.7 0 34.9-12.9 34.9-27.7 0-13.3-7.7-21.3-23.6-27.4z"/><path  d="m767 327.6h34.6v-13.7h-34.6v-23.7h36.7v-13.8h-53.5v92h55.5v-13.8h-38.7z"/><path  d="m1198.9 314.8c-12.2-4.7-17.6-8-17.6-15.1 0-5.4 4.6-11.1 15.2-11.1 8.6 0 15.1 2.7 18.4 4.4l4-13.6c-4.8-2.4-12.1-4.5-22.1-4.5-19.9 0-32.5 11.4-32.5 26.4 0 13.2 9.7 21.4 24.9 26.8 11.6 4.2 16.3 8.3 16.3 15.3 0 7.5-6 12.5-16.7 12.5-8.6 0-16.8-2.7-22.2-5.8l-3.8 13.9c5 3.1 15.1 5.9 24.9 5.9 23.7 0 34.8-12.9 34.8-27.7 0.1-13.3-7.6-21.3-23.6-27.4z"/></svg>